G04 #@! TF.GenerationSoftware,KiCad,Pcbnew,(6.0.1-0)*
G04 #@! TF.CreationDate,2023-03-21T08:47:59-07:00*
G04 #@! TF.ProjectId,plate,706c6174-652e-46b6-9963-61645f706362,rev?*
G04 #@! TF.SameCoordinates,Original*
G04 #@! TF.FileFunction,Legend,Bot*
G04 #@! TF.FilePolarity,Positive*
%FSLAX46Y46*%
G04 Gerber Fmt 4.6, Leading zero omitted, Abs format (unit mm)*
G04 Created by KiCad (PCBNEW (6.0.1-0)) date 2023-03-21 08:47:59*
%MOMM*%
%LPD*%
G01*
G04 APERTURE LIST*
%ADD10C,0.150000*%
G04 APERTURE END LIST*
D10*
X177853273Y-75572916D02*
X177377083Y-75572916D01*
X177948511Y-75858630D02*
X177615178Y-74858630D01*
X177281845Y-75858630D01*
X176948511Y-75858630D02*
X176948511Y-75191964D01*
X176948511Y-75382440D02*
X176900892Y-75287202D01*
X176853273Y-75239583D01*
X176758035Y-75191964D01*
X176662797Y-75191964D01*
X176472321Y-75191964D02*
X176091369Y-75191964D01*
X176329464Y-74858630D02*
X176329464Y-75715773D01*
X176281845Y-75811011D01*
X176186607Y-75858630D01*
X176091369Y-75858630D01*
X174996130Y-75858630D02*
X174996130Y-74858630D01*
X174615178Y-74858630D01*
X174519940Y-74906250D01*
X174472321Y-74953869D01*
X174424702Y-75049107D01*
X174424702Y-75191964D01*
X174472321Y-75287202D01*
X174519940Y-75334821D01*
X174615178Y-75382440D01*
X174996130Y-75382440D01*
X173567559Y-75858630D02*
X173567559Y-75334821D01*
X173615178Y-75239583D01*
X173710416Y-75191964D01*
X173900892Y-75191964D01*
X173996130Y-75239583D01*
X173567559Y-75811011D02*
X173662797Y-75858630D01*
X173900892Y-75858630D01*
X173996130Y-75811011D01*
X174043750Y-75715773D01*
X174043750Y-75620535D01*
X173996130Y-75525297D01*
X173900892Y-75477678D01*
X173662797Y-75477678D01*
X173567559Y-75430059D01*
X172662797Y-75858630D02*
X172662797Y-74858630D01*
X172662797Y-75811011D02*
X172758035Y-75858630D01*
X172948511Y-75858630D01*
X173043750Y-75811011D01*
X173091369Y-75763392D01*
X173138988Y-75668154D01*
X173138988Y-75382440D01*
X173091369Y-75287202D01*
X173043750Y-75239583D01*
X172948511Y-75191964D01*
X172758035Y-75191964D01*
X172662797Y-75239583D01*
X171424702Y-75858630D02*
X171424702Y-74858630D01*
X171424702Y-75239583D02*
X171329464Y-75191964D01*
X171138988Y-75191964D01*
X171043750Y-75239583D01*
X170996130Y-75287202D01*
X170948511Y-75382440D01*
X170948511Y-75668154D01*
X170996130Y-75763392D01*
X171043750Y-75811011D01*
X171138988Y-75858630D01*
X171329464Y-75858630D01*
X171424702Y-75811011D01*
X170615178Y-75191964D02*
X170377083Y-75858630D01*
X170138988Y-75191964D02*
X170377083Y-75858630D01*
X170472321Y-76096726D01*
X170519940Y-76144345D01*
X170615178Y-76191964D01*
X168567559Y-75858630D02*
X168567559Y-74858630D01*
X168567559Y-75811011D02*
X168662797Y-75858630D01*
X168853273Y-75858630D01*
X168948511Y-75811011D01*
X168996130Y-75763392D01*
X169043750Y-75668154D01*
X169043750Y-75382440D01*
X168996130Y-75287202D01*
X168948511Y-75239583D01*
X168853273Y-75191964D01*
X168662797Y-75191964D01*
X168567559Y-75239583D01*
X167662797Y-75811011D02*
X167758035Y-75858630D01*
X167948511Y-75858630D01*
X168043750Y-75811011D01*
X168091369Y-75763392D01*
X168138988Y-75668154D01*
X168138988Y-75382440D01*
X168091369Y-75287202D01*
X168043750Y-75239583D01*
X167948511Y-75191964D01*
X167758035Y-75191964D01*
X167662797Y-75239583D01*
X167234226Y-75191964D02*
X167234226Y-76191964D01*
X167234226Y-75239583D02*
X167138988Y-75191964D01*
X166948511Y-75191964D01*
X166853273Y-75239583D01*
X166805654Y-75287202D01*
X166758035Y-75382440D01*
X166758035Y-75668154D01*
X166805654Y-75763392D01*
X166853273Y-75811011D01*
X166948511Y-75858630D01*
X167138988Y-75858630D01*
X167234226Y-75811011D01*
X165948511Y-75811011D02*
X166043750Y-75858630D01*
X166234226Y-75858630D01*
X166329464Y-75811011D01*
X166377083Y-75715773D01*
X166377083Y-75334821D01*
X166329464Y-75239583D01*
X166234226Y-75191964D01*
X166043750Y-75191964D01*
X165948511Y-75239583D01*
X165900892Y-75334821D01*
X165900892Y-75430059D01*
X166377083Y-75525297D01*
X165043750Y-75858630D02*
X165043750Y-74858630D01*
X165043750Y-75811011D02*
X165138988Y-75858630D01*
X165329464Y-75858630D01*
X165424702Y-75811011D01*
X165472321Y-75763392D01*
X165519940Y-75668154D01*
X165519940Y-75382440D01*
X165472321Y-75287202D01*
X165424702Y-75239583D01*
X165329464Y-75191964D01*
X165138988Y-75191964D01*
X165043750Y-75239583D01*
X164567559Y-75858630D02*
X164567559Y-75191964D01*
X164567559Y-74858630D02*
X164615178Y-74906250D01*
X164567559Y-74953869D01*
X164519940Y-74906250D01*
X164567559Y-74858630D01*
X164567559Y-74953869D01*
X164234226Y-75191964D02*
X163853273Y-75191964D01*
X164091369Y-74858630D02*
X164091369Y-75715773D01*
X164043750Y-75811011D01*
X163948511Y-75858630D01*
X163853273Y-75858630D01*
X162472321Y-76239583D02*
X162519940Y-76191964D01*
X162615178Y-76049107D01*
X162662797Y-75953869D01*
X162710416Y-75811011D01*
X162758035Y-75572916D01*
X162758035Y-75382440D01*
X162710416Y-75144345D01*
X162662797Y-75001488D01*
X162615178Y-74906250D01*
X162519940Y-74763392D01*
X162472321Y-74715773D01*
X161662797Y-75191964D02*
X161662797Y-76001488D01*
X161710416Y-76096726D01*
X161758035Y-76144345D01*
X161853273Y-76191964D01*
X161996130Y-76191964D01*
X162091369Y-76144345D01*
X161662797Y-75811011D02*
X161758035Y-75858630D01*
X161948511Y-75858630D01*
X162043750Y-75811011D01*
X162091369Y-75763392D01*
X162138988Y-75668154D01*
X162138988Y-75382440D01*
X162091369Y-75287202D01*
X162043750Y-75239583D01*
X161948511Y-75191964D01*
X161758035Y-75191964D01*
X161662797Y-75239583D01*
X161186607Y-75858630D02*
X161186607Y-75191964D01*
X161186607Y-74858630D02*
X161234226Y-74906250D01*
X161186607Y-74953869D01*
X161138988Y-74906250D01*
X161186607Y-74858630D01*
X161186607Y-74953869D01*
X160853273Y-75191964D02*
X160472321Y-75191964D01*
X160710416Y-74858630D02*
X160710416Y-75715773D01*
X160662797Y-75811011D01*
X160567559Y-75858630D01*
X160472321Y-75858630D01*
X160138988Y-75858630D02*
X160138988Y-74858630D01*
X159710416Y-75858630D02*
X159710416Y-75334821D01*
X159758035Y-75239583D01*
X159853273Y-75191964D01*
X159996130Y-75191964D01*
X160091369Y-75239583D01*
X160138988Y-75287202D01*
X158805654Y-75191964D02*
X158805654Y-75858630D01*
X159234226Y-75191964D02*
X159234226Y-75715773D01*
X159186607Y-75811011D01*
X159091369Y-75858630D01*
X158948511Y-75858630D01*
X158853273Y-75811011D01*
X158805654Y-75763392D01*
X158329464Y-75858630D02*
X158329464Y-74858630D01*
X158329464Y-75239583D02*
X158234226Y-75191964D01*
X158043750Y-75191964D01*
X157948511Y-75239583D01*
X157900892Y-75287202D01*
X157853273Y-75382440D01*
X157853273Y-75668154D01*
X157900892Y-75763392D01*
X157948511Y-75811011D01*
X158043750Y-75858630D01*
X158234226Y-75858630D01*
X158329464Y-75811011D01*
X157424702Y-75763392D02*
X157377083Y-75811011D01*
X157424702Y-75858630D01*
X157472321Y-75811011D01*
X157424702Y-75763392D01*
X157424702Y-75858630D01*
X156519940Y-75811011D02*
X156615178Y-75858630D01*
X156805654Y-75858630D01*
X156900892Y-75811011D01*
X156948511Y-75763392D01*
X156996130Y-75668154D01*
X156996130Y-75382440D01*
X156948511Y-75287202D01*
X156900892Y-75239583D01*
X156805654Y-75191964D01*
X156615178Y-75191964D01*
X156519940Y-75239583D01*
X155948511Y-75858630D02*
X156043750Y-75811011D01*
X156091369Y-75763392D01*
X156138988Y-75668154D01*
X156138988Y-75382440D01*
X156091369Y-75287202D01*
X156043750Y-75239583D01*
X155948511Y-75191964D01*
X155805654Y-75191964D01*
X155710416Y-75239583D01*
X155662797Y-75287202D01*
X155615178Y-75382440D01*
X155615178Y-75668154D01*
X155662797Y-75763392D01*
X155710416Y-75811011D01*
X155805654Y-75858630D01*
X155948511Y-75858630D01*
X155186607Y-75858630D02*
X155186607Y-75191964D01*
X155186607Y-75287202D02*
X155138988Y-75239583D01*
X155043750Y-75191964D01*
X154900892Y-75191964D01*
X154805654Y-75239583D01*
X154758035Y-75334821D01*
X154758035Y-75858630D01*
X154758035Y-75334821D02*
X154710416Y-75239583D01*
X154615178Y-75191964D01*
X154472321Y-75191964D01*
X154377083Y-75239583D01*
X154329464Y-75334821D01*
X154329464Y-75858630D01*
X153138988Y-74811011D02*
X153996130Y-76096726D01*
X152377083Y-75858630D02*
X152377083Y-74858630D01*
X152377083Y-75811011D02*
X152472321Y-75858630D01*
X152662797Y-75858630D01*
X152758035Y-75811011D01*
X152805654Y-75763392D01*
X152853273Y-75668154D01*
X152853273Y-75382440D01*
X152805654Y-75287202D01*
X152758035Y-75239583D01*
X152662797Y-75191964D01*
X152472321Y-75191964D01*
X152377083Y-75239583D01*
X151472321Y-75811011D02*
X151567559Y-75858630D01*
X151758035Y-75858630D01*
X151853273Y-75811011D01*
X151900892Y-75763392D01*
X151948511Y-75668154D01*
X151948511Y-75382440D01*
X151900892Y-75287202D01*
X151853273Y-75239583D01*
X151758035Y-75191964D01*
X151567559Y-75191964D01*
X151472321Y-75239583D01*
X151043750Y-75191964D02*
X151043750Y-76191964D01*
X151043750Y-75239583D02*
X150948511Y-75191964D01*
X150758035Y-75191964D01*
X150662797Y-75239583D01*
X150615178Y-75287202D01*
X150567559Y-75382440D01*
X150567559Y-75668154D01*
X150615178Y-75763392D01*
X150662797Y-75811011D01*
X150758035Y-75858630D01*
X150948511Y-75858630D01*
X151043750Y-75811011D01*
X149758035Y-75811011D02*
X149853273Y-75858630D01*
X150043750Y-75858630D01*
X150138988Y-75811011D01*
X150186607Y-75715773D01*
X150186607Y-75334821D01*
X150138988Y-75239583D01*
X150043750Y-75191964D01*
X149853273Y-75191964D01*
X149758035Y-75239583D01*
X149710416Y-75334821D01*
X149710416Y-75430059D01*
X150186607Y-75525297D01*
X148853273Y-75858630D02*
X148853273Y-74858630D01*
X148853273Y-75811011D02*
X148948511Y-75858630D01*
X149138988Y-75858630D01*
X149234226Y-75811011D01*
X149281845Y-75763392D01*
X149329464Y-75668154D01*
X149329464Y-75382440D01*
X149281845Y-75287202D01*
X149234226Y-75239583D01*
X149138988Y-75191964D01*
X148948511Y-75191964D01*
X148853273Y-75239583D01*
X148377083Y-75858630D02*
X148377083Y-75191964D01*
X148377083Y-74858630D02*
X148424702Y-74906250D01*
X148377083Y-74953869D01*
X148329464Y-74906250D01*
X148377083Y-74858630D01*
X148377083Y-74953869D01*
X148043750Y-75191964D02*
X147662797Y-75191964D01*
X147900892Y-74858630D02*
X147900892Y-75715773D01*
X147853273Y-75811011D01*
X147758035Y-75858630D01*
X147662797Y-75858630D01*
X146615178Y-74811011D02*
X147472321Y-76096726D01*
X145853273Y-75858630D02*
X145853273Y-75334821D01*
X145900892Y-75239583D01*
X145996130Y-75191964D01*
X146186607Y-75191964D01*
X146281845Y-75239583D01*
X145853273Y-75811011D02*
X145948511Y-75858630D01*
X146186607Y-75858630D01*
X146281845Y-75811011D01*
X146329464Y-75715773D01*
X146329464Y-75620535D01*
X146281845Y-75525297D01*
X146186607Y-75477678D01*
X145948511Y-75477678D01*
X145853273Y-75430059D01*
X145377083Y-75858630D02*
X145377083Y-75191964D01*
X145377083Y-75382440D02*
X145329464Y-75287202D01*
X145281845Y-75239583D01*
X145186607Y-75191964D01*
X145091369Y-75191964D01*
X144900892Y-75191964D02*
X144519940Y-75191964D01*
X144758035Y-74858630D02*
X144758035Y-75715773D01*
X144710416Y-75811011D01*
X144615178Y-75858630D01*
X144519940Y-75858630D01*
X144186607Y-75191964D02*
X144186607Y-76191964D01*
X144186607Y-75239583D02*
X144091369Y-75191964D01*
X143900892Y-75191964D01*
X143805654Y-75239583D01*
X143758035Y-75287202D01*
X143710416Y-75382440D01*
X143710416Y-75668154D01*
X143758035Y-75763392D01*
X143805654Y-75811011D01*
X143900892Y-75858630D01*
X144091369Y-75858630D01*
X144186607Y-75811011D01*
X142853273Y-75858630D02*
X142853273Y-75334821D01*
X142900892Y-75239583D01*
X142996130Y-75191964D01*
X143186607Y-75191964D01*
X143281845Y-75239583D01*
X142853273Y-75811011D02*
X142948511Y-75858630D01*
X143186607Y-75858630D01*
X143281845Y-75811011D01*
X143329464Y-75715773D01*
X143329464Y-75620535D01*
X143281845Y-75525297D01*
X143186607Y-75477678D01*
X142948511Y-75477678D01*
X142853273Y-75430059D01*
X141948511Y-75858630D02*
X141948511Y-74858630D01*
X141948511Y-75811011D02*
X142043750Y-75858630D01*
X142234226Y-75858630D01*
X142329464Y-75811011D01*
X142377083Y-75763392D01*
X142424702Y-75668154D01*
X142424702Y-75382440D01*
X142377083Y-75287202D01*
X142329464Y-75239583D01*
X142234226Y-75191964D01*
X142043750Y-75191964D01*
X141948511Y-75239583D01*
X141567559Y-76239583D02*
X141519940Y-76191964D01*
X141424702Y-76049107D01*
X141377083Y-75953869D01*
X141329464Y-75811011D01*
X141281845Y-75572916D01*
X141281845Y-75382440D01*
X141329464Y-75144345D01*
X141377083Y-75001488D01*
X141424702Y-74906250D01*
X141519940Y-74763392D01*
X141567559Y-74715773D01*
%LPC*%
M02*
