%FSLAX45Y45*%
G04 Gerber Fmt 4.5, Leading zero omitted, Abs format (unit mm)*
G04 Created by KiCad (PCBNEW (6.0.1-0)) date 2023-03-21 08:48:05*
%MOMM*%
%LPD*%
G01*
G04 APERTURE LIST*
%TA.AperFunction,Profile*%
%ADD10C,0.100000*%
%TD*%
%ADD11C,0.200000*%
G04 APERTURE END LIST*
D10*
X17938750Y-9683750D02*
X17938750Y-5715000D01*
X7381875Y-5476875D02*
X17700625Y-5476875D01*
X19923125Y-11826875D02*
X7381875Y-11826875D01*
X7143750Y-5715000D02*
X7143750Y-11588750D01*
X17938750Y-9683750D02*
G75*
G03*
X18176875Y-9921875I238125J0D01*
G01*
X17938750Y-5715000D02*
G75*
G03*
X17700625Y-5476875I-238125J0D01*
G01*
X20161250Y-10160000D02*
X20161250Y-11588750D01*
X19923125Y-11826875D02*
G75*
G03*
X20161250Y-11588750I0J238125D01*
G01*
X19923125Y-9921875D02*
X18176875Y-9921875D01*
X7143750Y-11588750D02*
G75*
G03*
X7381875Y-11826875I238125J0D01*
G01*
X7381875Y-5476875D02*
G75*
G03*
X7143750Y-5715000I0J-238125D01*
G01*
X20161250Y-10160000D02*
G75*
G03*
X19923125Y-9921875I-238125J0D01*
G01*
D11*
X7396369Y-12142351D02*
X7396369Y-11942351D01*
X7443988Y-11942351D01*
X7472559Y-11951875D01*
X7491607Y-11970923D01*
X7501131Y-11989970D01*
X7510655Y-12028065D01*
X7510655Y-12056637D01*
X7501131Y-12094732D01*
X7491607Y-12113780D01*
X7472559Y-12132827D01*
X7443988Y-12142351D01*
X7396369Y-12142351D01*
X7596369Y-12142351D02*
X7596369Y-12009018D01*
X7596369Y-12047113D02*
X7605893Y-12028065D01*
X7615417Y-12018542D01*
X7634464Y-12009018D01*
X7653512Y-12009018D01*
X7720178Y-12142351D02*
X7720178Y-12009018D01*
X7720178Y-11942351D02*
X7710655Y-11951875D01*
X7720178Y-11961399D01*
X7729702Y-11951875D01*
X7720178Y-11942351D01*
X7720178Y-11961399D01*
X7843988Y-12142351D02*
X7824940Y-12132827D01*
X7815417Y-12113780D01*
X7815417Y-11942351D01*
X7948750Y-12142351D02*
X7929702Y-12132827D01*
X7920178Y-12113780D01*
X7920178Y-11942351D01*
X8177321Y-12142351D02*
X8177321Y-11942351D01*
X8243988Y-12085208D01*
X8310655Y-11942351D01*
X8310655Y-12142351D01*
X8491607Y-12142351D02*
X8491607Y-12037589D01*
X8482083Y-12018542D01*
X8463036Y-12009018D01*
X8424940Y-12009018D01*
X8405893Y-12018542D01*
X8491607Y-12132827D02*
X8472560Y-12142351D01*
X8424940Y-12142351D01*
X8405893Y-12132827D01*
X8396369Y-12113780D01*
X8396369Y-12094732D01*
X8405893Y-12075684D01*
X8424940Y-12066161D01*
X8472560Y-12066161D01*
X8491607Y-12056637D01*
X8586845Y-12009018D02*
X8586845Y-12209018D01*
X8586845Y-12018542D02*
X8605893Y-12009018D01*
X8643988Y-12009018D01*
X8663036Y-12018542D01*
X8672560Y-12028065D01*
X8682083Y-12047113D01*
X8682083Y-12104256D01*
X8672560Y-12123303D01*
X8663036Y-12132827D01*
X8643988Y-12142351D01*
X8605893Y-12142351D01*
X8586845Y-12132827D01*
X8767798Y-12123303D02*
X8777321Y-12132827D01*
X8767798Y-12142351D01*
X8758274Y-12132827D01*
X8767798Y-12123303D01*
X8767798Y-12142351D01*
X8767798Y-12018542D02*
X8777321Y-12028065D01*
X8767798Y-12037589D01*
X8758274Y-12028065D01*
X8767798Y-12018542D01*
X8767798Y-12037589D01*
M02*
