M48
; DRILL file {KiCad (6.0.1-0)} date Tuesday, March 21, 2023 at 08:23:50 AM
; FORMAT={-:-/ absolute / metric / decimal}
; #@! TF.CreationDate,2023-03-21T08:23:50-07:00
; #@! TF.GenerationSoftware,Kicad,Pcbnew,(6.0.1-0)
; #@! TF.FileFunction,NonPlated,1,2,NPTH
FMAT,2
METRIC
; #@! TA.AperFunction,NonPlated,NPTH,ComponentDrill
T1C1.000
; #@! TA.AperFunction,NonPlated,NPTH,ComponentDrill
T2C1.500
; #@! TA.AperFunction,NonPlated,NPTH,ComponentDrill
T3C1.800
; #@! TA.AperFunction,NonPlated,NPTH,ComponentDrill
T4C2.200
; #@! TA.AperFunction,NonPlated,NPTH,ComponentDrill
T5C3.000
; #@! TA.AperFunction,NonPlated,NPTH,ComponentDrill
T6C3.400
%
G90
G05
T1
X75.742Y-68.494
X75.742Y-90.719
X75.742Y-112.944
X86.182Y-68.494
X86.182Y-90.719
X86.182Y-112.944
X97.968Y-68.494
X97.968Y-90.719
X97.968Y-112.944
X108.407Y-68.494
X108.407Y-90.719
X108.407Y-112.944
X120.192Y-68.494
X120.192Y-90.719
X120.192Y-112.944
X130.632Y-68.494
X130.632Y-90.719
X130.632Y-112.944
X142.417Y-68.494
X142.417Y-90.719
X142.417Y-112.944
X152.857Y-68.494
X152.857Y-90.719
X152.857Y-112.944
X164.642Y-68.494
X164.642Y-90.719
X164.642Y-112.944
X175.082Y-68.494
X175.082Y-90.719
X175.082Y-112.944
X186.867Y-112.944
X197.308Y-112.944
T3
X75.462Y-64.294
X75.462Y-86.519
X75.462Y-108.744
X86.462Y-64.294
X86.462Y-86.519
X86.462Y-108.744
X97.688Y-64.294
X97.688Y-86.519
X97.688Y-108.744
X108.688Y-64.294
X108.688Y-86.519
X108.688Y-108.744
X119.912Y-64.294
X119.912Y-86.519
X119.912Y-108.744
X130.912Y-64.294
X130.912Y-86.519
X130.912Y-108.744
X142.137Y-64.294
X142.137Y-86.519
X142.137Y-108.744
X153.137Y-64.294
X153.137Y-86.519
X153.137Y-108.744
X164.362Y-64.294
X164.362Y-86.519
X164.362Y-108.744
X175.362Y-64.294
X175.362Y-86.519
X175.362Y-108.744
X186.588Y-108.744
X197.587Y-108.744
T4
X75.803Y-75.406
X75.803Y-97.631
X136.525Y-59.928
X136.525Y-113.506
X177.403Y-75.406
X199.628Y-96.837
T5
X80.962Y-58.394
X80.962Y-80.619
X80.962Y-102.844
X85.962Y-60.594
X85.962Y-82.819
X85.962Y-105.044
X103.188Y-58.394
X103.188Y-80.619
X103.188Y-102.844
X108.188Y-60.594
X108.188Y-82.819
X108.188Y-105.044
X125.412Y-58.394
X125.412Y-80.619
X125.412Y-102.844
X130.412Y-60.594
X130.412Y-82.819
X130.412Y-105.044
X147.637Y-58.394
X147.637Y-80.619
X147.637Y-102.844
X152.637Y-60.594
X152.637Y-82.819
X152.637Y-105.044
X169.862Y-58.394
X169.862Y-80.619
X169.862Y-102.844
X174.862Y-60.594
X174.862Y-82.819
X174.862Y-105.044
X192.087Y-102.844
X197.087Y-105.044
T6
X80.962Y-64.294
X80.962Y-86.519
X80.962Y-108.744
X103.188Y-64.294
X103.188Y-86.519
X103.188Y-108.744
X125.412Y-64.294
X125.412Y-86.519
X125.412Y-108.744
X147.637Y-64.294
X147.637Y-86.519
X147.637Y-108.744
X169.862Y-64.294
X169.862Y-86.519
X169.862Y-108.744
X192.087Y-108.744
T2
X186.487Y-109.394G85X186.487Y-108.094
G05
X197.688Y-109.394G85X197.688Y-108.094
G05
T0
M30
