G04 #@! TF.GenerationSoftware,KiCad,Pcbnew,(6.0.1-0)*
G04 #@! TF.CreationDate,2023-03-21T08:23:48-07:00*
G04 #@! TF.ProjectId,pcb,7063622e-6b69-4636-9164-5f7063625858,rev?*
G04 #@! TF.SameCoordinates,Original*
G04 #@! TF.FileFunction,Legend,Bot*
G04 #@! TF.FilePolarity,Positive*
%FSLAX46Y46*%
G04 Gerber Fmt 4.6, Leading zero omitted, Abs format (unit mm)*
G04 Created by KiCad (PCBNEW (6.0.1-0)) date 2023-03-21 08:23:48*
%MOMM*%
%LPD*%
G01*
G04 APERTURE LIST*
%ADD10C,0.150000*%
%ADD11C,0.120000*%
%ADD12C,0.100000*%
%ADD13C,0.381000*%
%ADD14R,1.752600X1.752600*%
%ADD15C,1.752600*%
%ADD16C,1.800000*%
%ADD17C,1.000000*%
%ADD18C,3.000000*%
%ADD19C,3.400000*%
%ADD20R,1.700000X1.000000*%
%ADD21R,1.600000X2.200000*%
%ADD22R,1.200000X1.600000*%
%ADD23R,1.600000X1.600000*%
%ADD24C,1.600000*%
%ADD25C,2.200000*%
%ADD26O,2.000000X3.200000*%
%ADD27R,2.000000X2.000000*%
%ADD28C,2.000000*%
%ADD29R,1.700000X1.700000*%
%ADD30O,1.700000X1.700000*%
%ADD31R,3.250000X2.000000*%
G04 APERTURE END LIST*
D10*
X157711904Y-66540671D02*
X156911904Y-66540671D01*
X156911904Y-66731147D01*
X156950000Y-66845433D01*
X157026190Y-66921623D01*
X157102380Y-66959719D01*
X157254761Y-66997814D01*
X157369047Y-66997814D01*
X157521428Y-66959719D01*
X157597619Y-66921623D01*
X157673809Y-66845433D01*
X157711904Y-66731147D01*
X157711904Y-66540671D01*
X157711904Y-67759719D02*
X157711904Y-67302576D01*
X157711904Y-67531147D02*
X156911904Y-67531147D01*
X157026190Y-67454957D01*
X157102380Y-67378766D01*
X157140476Y-67302576D01*
X156911904Y-68026385D02*
X156911904Y-68521623D01*
X157216666Y-68254957D01*
X157216666Y-68369242D01*
X157254761Y-68445433D01*
X157292857Y-68483528D01*
X157369047Y-68521623D01*
X157559523Y-68521623D01*
X157635714Y-68483528D01*
X157673809Y-68445433D01*
X157711904Y-68369242D01*
X157711904Y-68140671D01*
X157673809Y-68064480D01*
X157635714Y-68026385D01*
X92624404Y-66852873D02*
X91824404Y-66852873D01*
X91824404Y-67043350D01*
X91862500Y-67157635D01*
X91938690Y-67233826D01*
X92014880Y-67271921D01*
X92167261Y-67310016D01*
X92281547Y-67310016D01*
X92433928Y-67271921D01*
X92510119Y-67233826D01*
X92586309Y-67157635D01*
X92624404Y-67043350D01*
X92624404Y-66852873D01*
X92091071Y-67995730D02*
X92624404Y-67995730D01*
X91786309Y-67805254D02*
X92357738Y-67614778D01*
X92357738Y-68110016D01*
X92624404Y-111371623D02*
X91824404Y-111371623D01*
X91824404Y-111562100D01*
X91862500Y-111676385D01*
X91938690Y-111752576D01*
X92014880Y-111790671D01*
X92167261Y-111828766D01*
X92281547Y-111828766D01*
X92433928Y-111790671D01*
X92510119Y-111752576D01*
X92586309Y-111676385D01*
X92624404Y-111562100D01*
X92624404Y-111371623D01*
X91824404Y-112514480D02*
X91824404Y-112362100D01*
X91862500Y-112285909D01*
X91900595Y-112247814D01*
X92014880Y-112171623D01*
X92167261Y-112133528D01*
X92472023Y-112133528D01*
X92548214Y-112171623D01*
X92586309Y-112209719D01*
X92624404Y-112285909D01*
X92624404Y-112438290D01*
X92586309Y-112514480D01*
X92548214Y-112552576D01*
X92472023Y-112590671D01*
X92281547Y-112590671D01*
X92205357Y-112552576D01*
X92167261Y-112514480D01*
X92129166Y-112438290D01*
X92129166Y-112285909D01*
X92167261Y-112209719D01*
X92205357Y-112171623D01*
X92281547Y-112133528D01*
X113261904Y-111371623D02*
X112461904Y-111371623D01*
X112461904Y-111562100D01*
X112500000Y-111676385D01*
X112576190Y-111752576D01*
X112652380Y-111790671D01*
X112804761Y-111828766D01*
X112919047Y-111828766D01*
X113071428Y-111790671D01*
X113147619Y-111752576D01*
X113223809Y-111676385D01*
X113261904Y-111562100D01*
X113261904Y-111371623D01*
X113261904Y-112209719D02*
X113261904Y-112362100D01*
X113223809Y-112438290D01*
X113185714Y-112476385D01*
X113071428Y-112552576D01*
X112919047Y-112590671D01*
X112614285Y-112590671D01*
X112538095Y-112552576D01*
X112500000Y-112514480D01*
X112461904Y-112438290D01*
X112461904Y-112285909D01*
X112500000Y-112209719D01*
X112538095Y-112171623D01*
X112614285Y-112133528D01*
X112804761Y-112133528D01*
X112880952Y-112171623D01*
X112919047Y-112209719D01*
X112957142Y-112285909D01*
X112957142Y-112438290D01*
X112919047Y-112514480D01*
X112880952Y-112552576D01*
X112804761Y-112590671D01*
X113261904Y-66921623D02*
X112461904Y-66921623D01*
X112461904Y-67112100D01*
X112500000Y-67226385D01*
X112576190Y-67302576D01*
X112652380Y-67340671D01*
X112804761Y-67378766D01*
X112919047Y-67378766D01*
X113071428Y-67340671D01*
X113147619Y-67302576D01*
X113223809Y-67226385D01*
X113261904Y-67112100D01*
X113261904Y-66921623D01*
X112461904Y-67645433D02*
X112461904Y-68178766D01*
X113261904Y-67835909D01*
X113261904Y-89146623D02*
X112461904Y-89146623D01*
X112461904Y-89337100D01*
X112500000Y-89451385D01*
X112576190Y-89527576D01*
X112652380Y-89565671D01*
X112804761Y-89603766D01*
X112919047Y-89603766D01*
X113071428Y-89565671D01*
X113147619Y-89527576D01*
X113223809Y-89451385D01*
X113261904Y-89337100D01*
X113261904Y-89146623D01*
X112804761Y-90060909D02*
X112766666Y-89984719D01*
X112728571Y-89946623D01*
X112652380Y-89908528D01*
X112614285Y-89908528D01*
X112538095Y-89946623D01*
X112500000Y-89984719D01*
X112461904Y-90060909D01*
X112461904Y-90213290D01*
X112500000Y-90289480D01*
X112538095Y-90327576D01*
X112614285Y-90365671D01*
X112652380Y-90365671D01*
X112728571Y-90327576D01*
X112766666Y-90289480D01*
X112804761Y-90213290D01*
X112804761Y-90060909D01*
X112842857Y-89984719D01*
X112880952Y-89946623D01*
X112957142Y-89908528D01*
X113109523Y-89908528D01*
X113185714Y-89946623D01*
X113223809Y-89984719D01*
X113261904Y-90060909D01*
X113261904Y-90213290D01*
X113223809Y-90289480D01*
X113185714Y-90327576D01*
X113109523Y-90365671D01*
X112957142Y-90365671D01*
X112880952Y-90327576D01*
X112842857Y-90289480D01*
X112804761Y-90213290D01*
X135486904Y-66540671D02*
X134686904Y-66540671D01*
X134686904Y-66731147D01*
X134725000Y-66845433D01*
X134801190Y-66921623D01*
X134877380Y-66959719D01*
X135029761Y-66997814D01*
X135144047Y-66997814D01*
X135296428Y-66959719D01*
X135372619Y-66921623D01*
X135448809Y-66845433D01*
X135486904Y-66731147D01*
X135486904Y-66540671D01*
X135486904Y-67759719D02*
X135486904Y-67302576D01*
X135486904Y-67531147D02*
X134686904Y-67531147D01*
X134801190Y-67454957D01*
X134877380Y-67378766D01*
X134915476Y-67302576D01*
X134686904Y-68254957D02*
X134686904Y-68331147D01*
X134725000Y-68407338D01*
X134763095Y-68445433D01*
X134839285Y-68483528D01*
X134991666Y-68521623D01*
X135182142Y-68521623D01*
X135334523Y-68483528D01*
X135410714Y-68445433D01*
X135448809Y-68407338D01*
X135486904Y-68331147D01*
X135486904Y-68254957D01*
X135448809Y-68178766D01*
X135410714Y-68140671D01*
X135334523Y-68102576D01*
X135182142Y-68064480D01*
X134991666Y-68064480D01*
X134839285Y-68102576D01*
X134763095Y-68140671D01*
X134725000Y-68178766D01*
X134686904Y-68254957D01*
X92624404Y-89146623D02*
X91824404Y-89146623D01*
X91824404Y-89337100D01*
X91862500Y-89451385D01*
X91938690Y-89527576D01*
X92014880Y-89565671D01*
X92167261Y-89603766D01*
X92281547Y-89603766D01*
X92433928Y-89565671D01*
X92510119Y-89527576D01*
X92586309Y-89451385D01*
X92624404Y-89337100D01*
X92624404Y-89146623D01*
X91824404Y-90327576D02*
X91824404Y-89946623D01*
X92205357Y-89908528D01*
X92167261Y-89946623D01*
X92129166Y-90022814D01*
X92129166Y-90213290D01*
X92167261Y-90289480D01*
X92205357Y-90327576D01*
X92281547Y-90365671D01*
X92472023Y-90365671D01*
X92548214Y-90327576D01*
X92586309Y-90289480D01*
X92624404Y-90213290D01*
X92624404Y-90022814D01*
X92586309Y-89946623D01*
X92548214Y-89908528D01*
X196257500Y-95281845D02*
X196209880Y-95186607D01*
X196209880Y-95043750D01*
X196257500Y-94900892D01*
X196352738Y-94805654D01*
X196447976Y-94758035D01*
X196638452Y-94710416D01*
X196781309Y-94710416D01*
X196971785Y-94758035D01*
X197067023Y-94805654D01*
X197162261Y-94900892D01*
X197209880Y-95043750D01*
X197209880Y-95138988D01*
X197162261Y-95281845D01*
X197114642Y-95329464D01*
X196781309Y-95329464D01*
X196781309Y-95138988D01*
X197209880Y-95758035D02*
X196209880Y-95758035D01*
X197209880Y-96329464D01*
X196209880Y-96329464D01*
X197209880Y-96805654D02*
X196209880Y-96805654D01*
X196209880Y-97043750D01*
X196257500Y-97186607D01*
X196352738Y-97281845D01*
X196447976Y-97329464D01*
X196638452Y-97377083D01*
X196781309Y-97377083D01*
X196971785Y-97329464D01*
X197067023Y-97281845D01*
X197162261Y-97186607D01*
X197209880Y-97043750D01*
X197209880Y-96805654D01*
X192082261Y-94853273D02*
X192129880Y-94996130D01*
X192129880Y-95234226D01*
X192082261Y-95329464D01*
X192034642Y-95377083D01*
X191939404Y-95424702D01*
X191844166Y-95424702D01*
X191748928Y-95377083D01*
X191701309Y-95329464D01*
X191653690Y-95234226D01*
X191606071Y-95043750D01*
X191558452Y-94948511D01*
X191510833Y-94900892D01*
X191415595Y-94853273D01*
X191320357Y-94853273D01*
X191225119Y-94900892D01*
X191177500Y-94948511D01*
X191129880Y-95043750D01*
X191129880Y-95281845D01*
X191177500Y-95424702D01*
X192034642Y-96424702D02*
X192082261Y-96377083D01*
X192129880Y-96234226D01*
X192129880Y-96138988D01*
X192082261Y-95996130D01*
X191987023Y-95900892D01*
X191891785Y-95853273D01*
X191701309Y-95805654D01*
X191558452Y-95805654D01*
X191367976Y-95853273D01*
X191272738Y-95900892D01*
X191177500Y-95996130D01*
X191129880Y-96138988D01*
X191129880Y-96234226D01*
X191177500Y-96377083D01*
X191225119Y-96424702D01*
X192129880Y-97329464D02*
X192129880Y-96853273D01*
X191129880Y-96853273D01*
X193669880Y-94710416D02*
X194669880Y-95043750D01*
X193669880Y-95377083D01*
X194574642Y-96281845D02*
X194622261Y-96234226D01*
X194669880Y-96091369D01*
X194669880Y-95996130D01*
X194622261Y-95853273D01*
X194527023Y-95758035D01*
X194431785Y-95710416D01*
X194241309Y-95662797D01*
X194098452Y-95662797D01*
X193907976Y-95710416D01*
X193812738Y-95758035D01*
X193717500Y-95853273D01*
X193669880Y-95996130D01*
X193669880Y-96091369D01*
X193717500Y-96234226D01*
X193765119Y-96281845D01*
X194574642Y-97281845D02*
X194622261Y-97234226D01*
X194669880Y-97091369D01*
X194669880Y-96996130D01*
X194622261Y-96853273D01*
X194527023Y-96758035D01*
X194431785Y-96710416D01*
X194241309Y-96662797D01*
X194098452Y-96662797D01*
X193907976Y-96710416D01*
X193812738Y-96758035D01*
X193717500Y-96853273D01*
X193669880Y-96996130D01*
X193669880Y-97091369D01*
X193717500Y-97234226D01*
X193765119Y-97281845D01*
X189542261Y-94829464D02*
X189589880Y-94972321D01*
X189589880Y-95210416D01*
X189542261Y-95305654D01*
X189494642Y-95353273D01*
X189399404Y-95400892D01*
X189304166Y-95400892D01*
X189208928Y-95353273D01*
X189161309Y-95305654D01*
X189113690Y-95210416D01*
X189066071Y-95019940D01*
X189018452Y-94924702D01*
X188970833Y-94877083D01*
X188875595Y-94829464D01*
X188780357Y-94829464D01*
X188685119Y-94877083D01*
X188637500Y-94924702D01*
X188589880Y-95019940D01*
X188589880Y-95258035D01*
X188637500Y-95400892D01*
X189589880Y-95829464D02*
X188589880Y-95829464D01*
X188589880Y-96067559D01*
X188637500Y-96210416D01*
X188732738Y-96305654D01*
X188827976Y-96353273D01*
X189018452Y-96400892D01*
X189161309Y-96400892D01*
X189351785Y-96353273D01*
X189447023Y-96305654D01*
X189542261Y-96210416D01*
X189589880Y-96067559D01*
X189589880Y-95829464D01*
X189304166Y-96781845D02*
X189304166Y-97258035D01*
X189589880Y-96686607D02*
X188589880Y-97019940D01*
X189589880Y-97353273D01*
X135486904Y-105178171D02*
X134686904Y-105178171D01*
X134686904Y-105368647D01*
X134725000Y-105482933D01*
X134801190Y-105559123D01*
X134877380Y-105597219D01*
X135029761Y-105635314D01*
X135144047Y-105635314D01*
X135296428Y-105597219D01*
X135372619Y-105559123D01*
X135448809Y-105482933D01*
X135486904Y-105368647D01*
X135486904Y-105178171D01*
X135486904Y-106397219D02*
X135486904Y-105940076D01*
X135486904Y-106168647D02*
X134686904Y-106168647D01*
X134801190Y-106092457D01*
X134877380Y-106016266D01*
X134915476Y-105940076D01*
X134763095Y-106701980D02*
X134725000Y-106740076D01*
X134686904Y-106816266D01*
X134686904Y-107006742D01*
X134725000Y-107082933D01*
X134763095Y-107121028D01*
X134839285Y-107159123D01*
X134915476Y-107159123D01*
X135029761Y-107121028D01*
X135486904Y-106663885D01*
X135486904Y-107159123D01*
X157711904Y-110990671D02*
X156911904Y-110990671D01*
X156911904Y-111181147D01*
X156950000Y-111295433D01*
X157026190Y-111371623D01*
X157102380Y-111409719D01*
X157254761Y-111447814D01*
X157369047Y-111447814D01*
X157521428Y-111409719D01*
X157597619Y-111371623D01*
X157673809Y-111295433D01*
X157711904Y-111181147D01*
X157711904Y-110990671D01*
X157711904Y-112209719D02*
X157711904Y-111752576D01*
X157711904Y-111981147D02*
X156911904Y-111981147D01*
X157026190Y-111904957D01*
X157102380Y-111828766D01*
X157140476Y-111752576D01*
X156911904Y-112933528D02*
X156911904Y-112552576D01*
X157292857Y-112514480D01*
X157254761Y-112552576D01*
X157216666Y-112628766D01*
X157216666Y-112819242D01*
X157254761Y-112895433D01*
X157292857Y-112933528D01*
X157369047Y-112971623D01*
X157559523Y-112971623D01*
X157635714Y-112933528D01*
X157673809Y-112895433D01*
X157711904Y-112819242D01*
X157711904Y-112628766D01*
X157673809Y-112552576D01*
X157635714Y-112514480D01*
X89449404Y-89146623D02*
X88649404Y-89146623D01*
X88649404Y-89337100D01*
X88687500Y-89451385D01*
X88763690Y-89527576D01*
X88839880Y-89565671D01*
X88992261Y-89603766D01*
X89106547Y-89603766D01*
X89258928Y-89565671D01*
X89335119Y-89527576D01*
X89411309Y-89451385D01*
X89449404Y-89337100D01*
X89449404Y-89146623D01*
X88725595Y-89908528D02*
X88687500Y-89946623D01*
X88649404Y-90022814D01*
X88649404Y-90213290D01*
X88687500Y-90289480D01*
X88725595Y-90327576D01*
X88801785Y-90365671D01*
X88877976Y-90365671D01*
X88992261Y-90327576D01*
X89449404Y-89870433D01*
X89449404Y-90365671D01*
X157711904Y-88765671D02*
X156911904Y-88765671D01*
X156911904Y-88956147D01*
X156950000Y-89070433D01*
X157026190Y-89146623D01*
X157102380Y-89184719D01*
X157254761Y-89222814D01*
X157369047Y-89222814D01*
X157521428Y-89184719D01*
X157597619Y-89146623D01*
X157673809Y-89070433D01*
X157711904Y-88956147D01*
X157711904Y-88765671D01*
X157711904Y-89984719D02*
X157711904Y-89527576D01*
X157711904Y-89756147D02*
X156911904Y-89756147D01*
X157026190Y-89679957D01*
X157102380Y-89603766D01*
X157140476Y-89527576D01*
X157178571Y-90670433D02*
X157711904Y-90670433D01*
X156873809Y-90479957D02*
X157445238Y-90289480D01*
X157445238Y-90784719D01*
X89449404Y-111371623D02*
X88649404Y-111371623D01*
X88649404Y-111562100D01*
X88687500Y-111676385D01*
X88763690Y-111752576D01*
X88839880Y-111790671D01*
X88992261Y-111828766D01*
X89106547Y-111828766D01*
X89258928Y-111790671D01*
X89335119Y-111752576D01*
X89411309Y-111676385D01*
X89449404Y-111562100D01*
X89449404Y-111371623D01*
X88649404Y-112095433D02*
X88649404Y-112590671D01*
X88954166Y-112324004D01*
X88954166Y-112438290D01*
X88992261Y-112514480D01*
X89030357Y-112552576D01*
X89106547Y-112590671D01*
X89297023Y-112590671D01*
X89373214Y-112552576D01*
X89411309Y-112514480D01*
X89449404Y-112438290D01*
X89449404Y-112209719D01*
X89411309Y-112133528D01*
X89373214Y-112095433D01*
X179936904Y-110990671D02*
X179136904Y-110990671D01*
X179136904Y-111181147D01*
X179175000Y-111295433D01*
X179251190Y-111371623D01*
X179327380Y-111409719D01*
X179479761Y-111447814D01*
X179594047Y-111447814D01*
X179746428Y-111409719D01*
X179822619Y-111371623D01*
X179898809Y-111295433D01*
X179936904Y-111181147D01*
X179936904Y-110990671D01*
X179936904Y-112209719D02*
X179936904Y-111752576D01*
X179936904Y-111981147D02*
X179136904Y-111981147D01*
X179251190Y-111904957D01*
X179327380Y-111828766D01*
X179365476Y-111752576D01*
X179136904Y-112895433D02*
X179136904Y-112743052D01*
X179175000Y-112666861D01*
X179213095Y-112628766D01*
X179327380Y-112552576D01*
X179479761Y-112514480D01*
X179784523Y-112514480D01*
X179860714Y-112552576D01*
X179898809Y-112590671D01*
X179936904Y-112666861D01*
X179936904Y-112819242D01*
X179898809Y-112895433D01*
X179860714Y-112933528D01*
X179784523Y-112971623D01*
X179594047Y-112971623D01*
X179517857Y-112933528D01*
X179479761Y-112895433D01*
X179441666Y-112819242D01*
X179441666Y-112666861D01*
X179479761Y-112590671D01*
X179517857Y-112552576D01*
X179594047Y-112514480D01*
X89449404Y-66852873D02*
X88649404Y-66852873D01*
X88649404Y-67043350D01*
X88687500Y-67157635D01*
X88763690Y-67233826D01*
X88839880Y-67271921D01*
X88992261Y-67310016D01*
X89106547Y-67310016D01*
X89258928Y-67271921D01*
X89335119Y-67233826D01*
X89411309Y-67157635D01*
X89449404Y-67043350D01*
X89449404Y-66852873D01*
X89449404Y-68071921D02*
X89449404Y-67614778D01*
X89449404Y-67843350D02*
X88649404Y-67843350D01*
X88763690Y-67767159D01*
X88839880Y-67690969D01*
X88877976Y-67614778D01*
X135486904Y-88765671D02*
X134686904Y-88765671D01*
X134686904Y-88956147D01*
X134725000Y-89070433D01*
X134801190Y-89146623D01*
X134877380Y-89184719D01*
X135029761Y-89222814D01*
X135144047Y-89222814D01*
X135296428Y-89184719D01*
X135372619Y-89146623D01*
X135448809Y-89070433D01*
X135486904Y-88956147D01*
X135486904Y-88765671D01*
X135486904Y-89984719D02*
X135486904Y-89527576D01*
X135486904Y-89756147D02*
X134686904Y-89756147D01*
X134801190Y-89679957D01*
X134877380Y-89603766D01*
X134915476Y-89527576D01*
X135486904Y-90746623D02*
X135486904Y-90289480D01*
X135486904Y-90518052D02*
X134686904Y-90518052D01*
X134801190Y-90441861D01*
X134877380Y-90365671D01*
X134915476Y-90289480D01*
X198158023Y-65880500D02*
X198234214Y-65842404D01*
X198348500Y-65842404D01*
X198462785Y-65880500D01*
X198538976Y-65956690D01*
X198577071Y-66032880D01*
X198615166Y-66185261D01*
X198615166Y-66299547D01*
X198577071Y-66451928D01*
X198538976Y-66528119D01*
X198462785Y-66604309D01*
X198348500Y-66642404D01*
X198272309Y-66642404D01*
X198158023Y-66604309D01*
X198119928Y-66566214D01*
X198119928Y-66299547D01*
X198272309Y-66299547D01*
X197777071Y-66642404D02*
X197777071Y-65842404D01*
X197319928Y-66642404D01*
X197319928Y-65842404D01*
X196938976Y-66642404D02*
X196938976Y-65842404D01*
X196748500Y-65842404D01*
X196634214Y-65880500D01*
X196558023Y-65956690D01*
X196519928Y-66032880D01*
X196481833Y-66185261D01*
X196481833Y-66299547D01*
X196519928Y-66451928D01*
X196558023Y-66528119D01*
X196634214Y-66604309D01*
X196748500Y-66642404D01*
X196938976Y-66642404D01*
X198158023Y-63340500D02*
X198234214Y-63302404D01*
X198348500Y-63302404D01*
X198462785Y-63340500D01*
X198538976Y-63416690D01*
X198577071Y-63492880D01*
X198615166Y-63645261D01*
X198615166Y-63759547D01*
X198577071Y-63911928D01*
X198538976Y-63988119D01*
X198462785Y-64064309D01*
X198348500Y-64102404D01*
X198272309Y-64102404D01*
X198158023Y-64064309D01*
X198119928Y-64026214D01*
X198119928Y-63759547D01*
X198272309Y-63759547D01*
X197777071Y-64102404D02*
X197777071Y-63302404D01*
X197319928Y-64102404D01*
X197319928Y-63302404D01*
X196938976Y-64102404D02*
X196938976Y-63302404D01*
X196748500Y-63302404D01*
X196634214Y-63340500D01*
X196558023Y-63416690D01*
X196519928Y-63492880D01*
X196481833Y-63645261D01*
X196481833Y-63759547D01*
X196519928Y-63911928D01*
X196558023Y-63988119D01*
X196634214Y-64064309D01*
X196748500Y-64102404D01*
X196938976Y-64102404D01*
X197849848Y-58222404D02*
X197392705Y-58222404D01*
X197621276Y-59022404D02*
X197621276Y-58222404D01*
X197202229Y-58222404D02*
X196668895Y-59022404D01*
X196668895Y-58222404D02*
X197202229Y-59022404D01*
X196211752Y-58222404D02*
X196135562Y-58222404D01*
X196059372Y-58260500D01*
X196021276Y-58298595D01*
X195983181Y-58374785D01*
X195945086Y-58527166D01*
X195945086Y-58717642D01*
X195983181Y-58870023D01*
X196021276Y-58946214D01*
X196059372Y-58984309D01*
X196135562Y-59022404D01*
X196211752Y-59022404D01*
X196287943Y-58984309D01*
X196326038Y-58946214D01*
X196364133Y-58870023D01*
X196402229Y-58717642D01*
X196402229Y-58527166D01*
X196364133Y-58374785D01*
X196326038Y-58298595D01*
X196287943Y-58260500D01*
X196211752Y-58222404D01*
X195030800Y-58184309D02*
X195716514Y-59212880D01*
X194764133Y-59022404D02*
X194764133Y-58222404D01*
X194573657Y-58222404D01*
X194459372Y-58260500D01*
X194383181Y-58336690D01*
X194345086Y-58412880D01*
X194306991Y-58565261D01*
X194306991Y-58679547D01*
X194345086Y-58831928D01*
X194383181Y-58908119D01*
X194459372Y-58984309D01*
X194573657Y-59022404D01*
X194764133Y-59022404D01*
X194040324Y-58222404D02*
X193545086Y-58222404D01*
X193811752Y-58527166D01*
X193697467Y-58527166D01*
X193621276Y-58565261D01*
X193583181Y-58603357D01*
X193545086Y-58679547D01*
X193545086Y-58870023D01*
X193583181Y-58946214D01*
X193621276Y-58984309D01*
X193697467Y-59022404D01*
X193926038Y-59022404D01*
X194002229Y-58984309D01*
X194040324Y-58946214D01*
X198138976Y-74262404D02*
X198138976Y-73462404D01*
X197948500Y-73462404D01*
X197834214Y-73500500D01*
X197758023Y-73576690D01*
X197719928Y-73652880D01*
X197681833Y-73805261D01*
X197681833Y-73919547D01*
X197719928Y-74071928D01*
X197758023Y-74148119D01*
X197834214Y-74224309D01*
X197948500Y-74262404D01*
X198138976Y-74262404D01*
X196996119Y-73729071D02*
X196996119Y-74262404D01*
X197186595Y-73424309D02*
X197377071Y-73995738D01*
X196881833Y-73995738D01*
X198138976Y-79342404D02*
X198138976Y-78542404D01*
X197948500Y-78542404D01*
X197834214Y-78580500D01*
X197758023Y-78656690D01*
X197719928Y-78732880D01*
X197681833Y-78885261D01*
X197681833Y-78999547D01*
X197719928Y-79151928D01*
X197758023Y-79228119D01*
X197834214Y-79304309D01*
X197948500Y-79342404D01*
X198138976Y-79342404D01*
X197415166Y-78542404D02*
X196881833Y-78542404D01*
X197224690Y-79342404D01*
X197872309Y-84003357D02*
X197758023Y-84041452D01*
X197719928Y-84079547D01*
X197681833Y-84155738D01*
X197681833Y-84270023D01*
X197719928Y-84346214D01*
X197758023Y-84384309D01*
X197834214Y-84422404D01*
X198138976Y-84422404D01*
X198138976Y-83622404D01*
X197872309Y-83622404D01*
X197796119Y-83660500D01*
X197758023Y-83698595D01*
X197719928Y-83774785D01*
X197719928Y-83850976D01*
X197758023Y-83927166D01*
X197796119Y-83965261D01*
X197872309Y-84003357D01*
X198138976Y-84003357D01*
X196996119Y-83889071D02*
X196996119Y-84422404D01*
X197186595Y-83584309D02*
X197377071Y-84155738D01*
X196881833Y-84155738D01*
X186950309Y-84003357D02*
X186836023Y-84041452D01*
X186797928Y-84079547D01*
X186759833Y-84155738D01*
X186759833Y-84270023D01*
X186797928Y-84346214D01*
X186836023Y-84384309D01*
X186912214Y-84422404D01*
X187216976Y-84422404D01*
X187216976Y-83622404D01*
X186950309Y-83622404D01*
X186874119Y-83660500D01*
X186836023Y-83698595D01*
X186797928Y-83774785D01*
X186797928Y-83850976D01*
X186836023Y-83927166D01*
X186874119Y-83965261D01*
X186950309Y-84003357D01*
X187216976Y-84003357D01*
X186455071Y-83698595D02*
X186416976Y-83660500D01*
X186340785Y-83622404D01*
X186150309Y-83622404D01*
X186074119Y-83660500D01*
X186036023Y-83698595D01*
X185997928Y-83774785D01*
X185997928Y-83850976D01*
X186036023Y-83965261D01*
X186493166Y-84422404D01*
X185997928Y-84422404D01*
X186893166Y-76383357D02*
X187159833Y-76383357D01*
X187159833Y-76802404D02*
X187159833Y-76002404D01*
X186778880Y-76002404D01*
X186550309Y-76002404D02*
X186016976Y-76002404D01*
X186359833Y-76802404D01*
X198138976Y-71722404D02*
X198138976Y-70922404D01*
X197948500Y-70922404D01*
X197834214Y-70960500D01*
X197758023Y-71036690D01*
X197719928Y-71112880D01*
X197681833Y-71265261D01*
X197681833Y-71379547D01*
X197719928Y-71531928D01*
X197758023Y-71608119D01*
X197834214Y-71684309D01*
X197948500Y-71722404D01*
X198138976Y-71722404D01*
X197186595Y-70922404D02*
X197110404Y-70922404D01*
X197034214Y-70960500D01*
X196996119Y-70998595D01*
X196958023Y-71074785D01*
X196919928Y-71227166D01*
X196919928Y-71417642D01*
X196958023Y-71570023D01*
X196996119Y-71646214D01*
X197034214Y-71684309D01*
X197110404Y-71722404D01*
X197186595Y-71722404D01*
X197262785Y-71684309D01*
X197300880Y-71646214D01*
X197338976Y-71570023D01*
X197377071Y-71417642D01*
X197377071Y-71227166D01*
X197338976Y-71074785D01*
X197300880Y-70998595D01*
X197262785Y-70960500D01*
X197186595Y-70922404D01*
X197681833Y-76726214D02*
X197719928Y-76764309D01*
X197834214Y-76802404D01*
X197910404Y-76802404D01*
X198024690Y-76764309D01*
X198100880Y-76688119D01*
X198138976Y-76611928D01*
X198177071Y-76459547D01*
X198177071Y-76345261D01*
X198138976Y-76192880D01*
X198100880Y-76116690D01*
X198024690Y-76040500D01*
X197910404Y-76002404D01*
X197834214Y-76002404D01*
X197719928Y-76040500D01*
X197681833Y-76078595D01*
X196996119Y-76002404D02*
X197148500Y-76002404D01*
X197224690Y-76040500D01*
X197262785Y-76078595D01*
X197338976Y-76192880D01*
X197377071Y-76345261D01*
X197377071Y-76650023D01*
X197338976Y-76726214D01*
X197300880Y-76764309D01*
X197224690Y-76802404D01*
X197072309Y-76802404D01*
X196996119Y-76764309D01*
X196958023Y-76726214D01*
X196919928Y-76650023D01*
X196919928Y-76459547D01*
X196958023Y-76383357D01*
X196996119Y-76345261D01*
X197072309Y-76307166D01*
X197224690Y-76307166D01*
X197300880Y-76345261D01*
X197338976Y-76383357D01*
X197377071Y-76459547D01*
X186887713Y-64034309D02*
X186773427Y-64072404D01*
X186582951Y-64072404D01*
X186506760Y-64034309D01*
X186468665Y-63996214D01*
X186430570Y-63920023D01*
X186430570Y-63843833D01*
X186468665Y-63767642D01*
X186506760Y-63729547D01*
X186582951Y-63691452D01*
X186735332Y-63653357D01*
X186811522Y-63615261D01*
X186849618Y-63577166D01*
X186887713Y-63500976D01*
X186887713Y-63424785D01*
X186849618Y-63348595D01*
X186811522Y-63310500D01*
X186735332Y-63272404D01*
X186544856Y-63272404D01*
X186430570Y-63310500D01*
X186201999Y-63272404D02*
X185744856Y-63272404D01*
X185973427Y-64072404D02*
X185973427Y-63272404D01*
X186893166Y-73843357D02*
X187159833Y-73843357D01*
X187159833Y-74262404D02*
X187159833Y-73462404D01*
X186778880Y-73462404D01*
X186131261Y-73462404D02*
X186283642Y-73462404D01*
X186359833Y-73500500D01*
X186397928Y-73538595D01*
X186474119Y-73652880D01*
X186512214Y-73805261D01*
X186512214Y-74110023D01*
X186474119Y-74186214D01*
X186436023Y-74224309D01*
X186359833Y-74262404D01*
X186207452Y-74262404D01*
X186131261Y-74224309D01*
X186093166Y-74186214D01*
X186055071Y-74110023D01*
X186055071Y-73919547D01*
X186093166Y-73843357D01*
X186131261Y-73805261D01*
X186207452Y-73767166D01*
X186359833Y-73767166D01*
X186436023Y-73805261D01*
X186474119Y-73843357D01*
X186512214Y-73919547D01*
X186950309Y-81463357D02*
X186836023Y-81501452D01*
X186797928Y-81539547D01*
X186759833Y-81615738D01*
X186759833Y-81730023D01*
X186797928Y-81806214D01*
X186836023Y-81844309D01*
X186912214Y-81882404D01*
X187216976Y-81882404D01*
X187216976Y-81082404D01*
X186950309Y-81082404D01*
X186874119Y-81120500D01*
X186836023Y-81158595D01*
X186797928Y-81234785D01*
X186797928Y-81310976D01*
X186836023Y-81387166D01*
X186874119Y-81425261D01*
X186950309Y-81463357D01*
X187216976Y-81463357D01*
X186493166Y-81082404D02*
X185997928Y-81082404D01*
X186264595Y-81387166D01*
X186150309Y-81387166D01*
X186074119Y-81425261D01*
X186036023Y-81463357D01*
X185997928Y-81539547D01*
X185997928Y-81730023D01*
X186036023Y-81806214D01*
X186074119Y-81844309D01*
X186150309Y-81882404D01*
X186378880Y-81882404D01*
X186455071Y-81844309D01*
X186493166Y-81806214D01*
X187693166Y-65842404D02*
X187426500Y-66642404D01*
X187159833Y-65842404D01*
X186436023Y-66566214D02*
X186474119Y-66604309D01*
X186588404Y-66642404D01*
X186664595Y-66642404D01*
X186778880Y-66604309D01*
X186855071Y-66528119D01*
X186893166Y-66451928D01*
X186931261Y-66299547D01*
X186931261Y-66185261D01*
X186893166Y-66032880D01*
X186855071Y-65956690D01*
X186778880Y-65880500D01*
X186664595Y-65842404D01*
X186588404Y-65842404D01*
X186474119Y-65880500D01*
X186436023Y-65918595D01*
X185636023Y-66566214D02*
X185674119Y-66604309D01*
X185788404Y-66642404D01*
X185864595Y-66642404D01*
X185978880Y-66604309D01*
X186055071Y-66528119D01*
X186093166Y-66451928D01*
X186131261Y-66299547D01*
X186131261Y-66185261D01*
X186093166Y-66032880D01*
X186055071Y-65956690D01*
X185978880Y-65880500D01*
X185864595Y-65842404D01*
X185788404Y-65842404D01*
X185674119Y-65880500D01*
X185636023Y-65918595D01*
X198100880Y-81463357D02*
X197834214Y-81463357D01*
X197719928Y-81882404D02*
X198100880Y-81882404D01*
X198100880Y-81082404D01*
X197719928Y-81082404D01*
X197034214Y-81082404D02*
X197186595Y-81082404D01*
X197262785Y-81120500D01*
X197300880Y-81158595D01*
X197377071Y-81272880D01*
X197415166Y-81425261D01*
X197415166Y-81730023D01*
X197377071Y-81806214D01*
X197338976Y-81844309D01*
X197262785Y-81882404D01*
X197110404Y-81882404D01*
X197034214Y-81844309D01*
X196996119Y-81806214D01*
X196958023Y-81730023D01*
X196958023Y-81539547D01*
X196996119Y-81463357D01*
X197034214Y-81425261D01*
X197110404Y-81387166D01*
X197262785Y-81387166D01*
X197338976Y-81425261D01*
X197377071Y-81463357D01*
X197415166Y-81539547D01*
X186893166Y-68763357D02*
X187159833Y-68763357D01*
X187159833Y-69182404D02*
X187159833Y-68382404D01*
X186778880Y-68382404D01*
X186131261Y-68649071D02*
X186131261Y-69182404D01*
X186321738Y-68344309D02*
X186512214Y-68915738D01*
X186016976Y-68915738D01*
X198138976Y-69182404D02*
X198138976Y-68382404D01*
X197948500Y-68382404D01*
X197834214Y-68420500D01*
X197758023Y-68496690D01*
X197719928Y-68572880D01*
X197681833Y-68725261D01*
X197681833Y-68839547D01*
X197719928Y-68991928D01*
X197758023Y-69068119D01*
X197834214Y-69144309D01*
X197948500Y-69182404D01*
X198138976Y-69182404D01*
X196919928Y-69182404D02*
X197377071Y-69182404D01*
X197148500Y-69182404D02*
X197148500Y-68382404D01*
X197224690Y-68496690D01*
X197300880Y-68572880D01*
X197377071Y-68610976D01*
X197872309Y-86543357D02*
X197758023Y-86581452D01*
X197719928Y-86619547D01*
X197681833Y-86695738D01*
X197681833Y-86810023D01*
X197719928Y-86886214D01*
X197758023Y-86924309D01*
X197834214Y-86962404D01*
X198138976Y-86962404D01*
X198138976Y-86162404D01*
X197872309Y-86162404D01*
X197796119Y-86200500D01*
X197758023Y-86238595D01*
X197719928Y-86314785D01*
X197719928Y-86390976D01*
X197758023Y-86467166D01*
X197796119Y-86505261D01*
X197872309Y-86543357D01*
X198138976Y-86543357D01*
X196958023Y-86162404D02*
X197338976Y-86162404D01*
X197377071Y-86543357D01*
X197338976Y-86505261D01*
X197262785Y-86467166D01*
X197072309Y-86467166D01*
X196996119Y-86505261D01*
X196958023Y-86543357D01*
X196919928Y-86619547D01*
X196919928Y-86810023D01*
X196958023Y-86886214D01*
X196996119Y-86924309D01*
X197072309Y-86962404D01*
X197262785Y-86962404D01*
X197338976Y-86924309D01*
X197377071Y-86886214D01*
X187236023Y-60800500D02*
X187312214Y-60762404D01*
X187426500Y-60762404D01*
X187540785Y-60800500D01*
X187616976Y-60876690D01*
X187655071Y-60952880D01*
X187693166Y-61105261D01*
X187693166Y-61219547D01*
X187655071Y-61371928D01*
X187616976Y-61448119D01*
X187540785Y-61524309D01*
X187426500Y-61562404D01*
X187350309Y-61562404D01*
X187236023Y-61524309D01*
X187197928Y-61486214D01*
X187197928Y-61219547D01*
X187350309Y-61219547D01*
X186855071Y-61562404D02*
X186855071Y-60762404D01*
X186397928Y-61562404D01*
X186397928Y-60762404D01*
X186016976Y-61562404D02*
X186016976Y-60762404D01*
X185826500Y-60762404D01*
X185712214Y-60800500D01*
X185636023Y-60876690D01*
X185597928Y-60952880D01*
X185559833Y-61105261D01*
X185559833Y-61219547D01*
X185597928Y-61371928D01*
X185636023Y-61448119D01*
X185712214Y-61524309D01*
X185826500Y-61562404D01*
X186016976Y-61562404D01*
X186950309Y-58603357D02*
X186836023Y-58641452D01*
X186797928Y-58679547D01*
X186759833Y-58755738D01*
X186759833Y-58870023D01*
X186797928Y-58946214D01*
X186836023Y-58984309D01*
X186912214Y-59022404D01*
X187216976Y-59022404D01*
X187216976Y-58222404D01*
X186950309Y-58222404D01*
X186874119Y-58260500D01*
X186836023Y-58298595D01*
X186797928Y-58374785D01*
X186797928Y-58450976D01*
X186836023Y-58527166D01*
X186874119Y-58565261D01*
X186950309Y-58603357D01*
X187216976Y-58603357D01*
X186264595Y-58222404D02*
X186188404Y-58222404D01*
X186112214Y-58260500D01*
X186074119Y-58298595D01*
X186036023Y-58374785D01*
X185997928Y-58527166D01*
X185997928Y-58717642D01*
X186036023Y-58870023D01*
X186074119Y-58946214D01*
X186112214Y-58984309D01*
X186188404Y-59022404D01*
X186264595Y-59022404D01*
X186340785Y-58984309D01*
X186378880Y-58946214D01*
X186416976Y-58870023D01*
X186455071Y-58717642D01*
X186455071Y-58527166D01*
X186416976Y-58374785D01*
X186378880Y-58298595D01*
X186340785Y-58260500D01*
X186264595Y-58222404D01*
X186950309Y-86543357D02*
X186836023Y-86581452D01*
X186797928Y-86619547D01*
X186759833Y-86695738D01*
X186759833Y-86810023D01*
X186797928Y-86886214D01*
X186836023Y-86924309D01*
X186912214Y-86962404D01*
X187216976Y-86962404D01*
X187216976Y-86162404D01*
X186950309Y-86162404D01*
X186874119Y-86200500D01*
X186836023Y-86238595D01*
X186797928Y-86314785D01*
X186797928Y-86390976D01*
X186836023Y-86467166D01*
X186874119Y-86505261D01*
X186950309Y-86543357D01*
X187216976Y-86543357D01*
X186074119Y-86162404D02*
X186226500Y-86162404D01*
X186302690Y-86200500D01*
X186340785Y-86238595D01*
X186416976Y-86352880D01*
X186455071Y-86505261D01*
X186455071Y-86810023D01*
X186416976Y-86886214D01*
X186378880Y-86924309D01*
X186302690Y-86962404D01*
X186150309Y-86962404D01*
X186074119Y-86924309D01*
X186036023Y-86886214D01*
X185997928Y-86810023D01*
X185997928Y-86619547D01*
X186036023Y-86543357D01*
X186074119Y-86505261D01*
X186150309Y-86467166D01*
X186302690Y-86467166D01*
X186378880Y-86505261D01*
X186416976Y-86543357D01*
X186455071Y-86619547D01*
X186950309Y-78923357D02*
X186836023Y-78961452D01*
X186797928Y-78999547D01*
X186759833Y-79075738D01*
X186759833Y-79190023D01*
X186797928Y-79266214D01*
X186836023Y-79304309D01*
X186912214Y-79342404D01*
X187216976Y-79342404D01*
X187216976Y-78542404D01*
X186950309Y-78542404D01*
X186874119Y-78580500D01*
X186836023Y-78618595D01*
X186797928Y-78694785D01*
X186797928Y-78770976D01*
X186836023Y-78847166D01*
X186874119Y-78885261D01*
X186950309Y-78923357D01*
X187216976Y-78923357D01*
X185997928Y-79342404D02*
X186455071Y-79342404D01*
X186226500Y-79342404D02*
X186226500Y-78542404D01*
X186302690Y-78656690D01*
X186378880Y-78732880D01*
X186455071Y-78770976D01*
X198138976Y-61562404D02*
X198138976Y-60762404D01*
X197948500Y-60762404D01*
X197834214Y-60800500D01*
X197758023Y-60876690D01*
X197719928Y-60952880D01*
X197681833Y-61105261D01*
X197681833Y-61219547D01*
X197719928Y-61371928D01*
X197758023Y-61448119D01*
X197834214Y-61524309D01*
X197948500Y-61562404D01*
X198138976Y-61562404D01*
X197377071Y-60838595D02*
X197338976Y-60800500D01*
X197262785Y-60762404D01*
X197072309Y-60762404D01*
X196996119Y-60800500D01*
X196958023Y-60838595D01*
X196919928Y-60914785D01*
X196919928Y-60990976D01*
X196958023Y-61105261D01*
X197415166Y-61562404D01*
X196919928Y-61562404D01*
X186893166Y-71303357D02*
X187159833Y-71303357D01*
X187159833Y-71722404D02*
X187159833Y-70922404D01*
X186778880Y-70922404D01*
X186093166Y-70922404D02*
X186474119Y-70922404D01*
X186512214Y-71303357D01*
X186474119Y-71265261D01*
X186397928Y-71227166D01*
X186207452Y-71227166D01*
X186131261Y-71265261D01*
X186093166Y-71303357D01*
X186055071Y-71379547D01*
X186055071Y-71570023D01*
X186093166Y-71646214D01*
X186131261Y-71684309D01*
X186207452Y-71722404D01*
X186397928Y-71722404D01*
X186474119Y-71684309D01*
X186512214Y-71646214D01*
X149087500Y-78318750D02*
X149087500Y-82918750D01*
X145687500Y-78618750D02*
X145687500Y-82568750D01*
X146537500Y-78318750D02*
X146537500Y-82918750D01*
X146837500Y-78318750D02*
X146837500Y-82918750D01*
X150587500Y-80068750D02*
X150587500Y-84468750D01*
D11*
X143237500Y-88867750D02*
X143237500Y-90518750D01*
D10*
X149837500Y-79118750D02*
X149837500Y-83268750D01*
X152387500Y-80518750D02*
X152387500Y-85118750D01*
X145787500Y-78518750D02*
X145787500Y-82718750D01*
X148487500Y-78318750D02*
X148487500Y-82918750D01*
X148337500Y-78318750D02*
X148337500Y-82918750D01*
X146087500Y-78368750D02*
X146087500Y-82868750D01*
X149387500Y-78468750D02*
X149387500Y-83018750D01*
X150437500Y-79968750D02*
X150437500Y-84368750D01*
X151637500Y-80468750D02*
X151637500Y-85118750D01*
X147587500Y-78318750D02*
X147587500Y-82918750D01*
X149637500Y-78718750D02*
X149637500Y-83118750D01*
X146387500Y-78318750D02*
X146387500Y-82918750D01*
X150737500Y-80168750D02*
X150737500Y-84618750D01*
X154187500Y-80768750D02*
X154187500Y-84868750D01*
X146337500Y-78293750D02*
X148937500Y-78293750D01*
X147887500Y-78318750D02*
X147887500Y-82918750D01*
X150887500Y-80268750D02*
X150887500Y-84718750D01*
X147287500Y-78318750D02*
X147287500Y-82918750D01*
X148037500Y-78318750D02*
X148037500Y-82918750D01*
X154937500Y-84118750D02*
X154937500Y-81518750D01*
X146337500Y-82943750D02*
X148912500Y-82943750D01*
X154037500Y-80668750D02*
X154037500Y-85018750D01*
X153137500Y-80518750D02*
X153137500Y-85118750D01*
X147137500Y-78318750D02*
X147137500Y-82918750D01*
X148787500Y-78318750D02*
X148787500Y-82868750D01*
X145587500Y-78718750D02*
X145587500Y-82468750D01*
X153887500Y-80518750D02*
X153887500Y-85118750D01*
X145487500Y-78868750D02*
X145487500Y-82418750D01*
X152087500Y-80518750D02*
X152087500Y-85118750D01*
X152987500Y-80518750D02*
X152987500Y-85118750D01*
X148937500Y-78318750D02*
X148937500Y-82918750D01*
X151937500Y-80518750D02*
X151937500Y-85118750D01*
X151037500Y-80318750D02*
X151037500Y-84868750D01*
X154337500Y-80918750D02*
X154337500Y-84718750D01*
X151337500Y-80468750D02*
X151337500Y-85068750D01*
X146687500Y-78318750D02*
X146687500Y-82918750D01*
X151362500Y-85143750D02*
X153912500Y-85143750D01*
X145337500Y-81943750D02*
X145337500Y-79293750D01*
X147737500Y-78318750D02*
X147737500Y-82918750D01*
X154937500Y-81518750D02*
X153912500Y-80493750D01*
X146987500Y-78318750D02*
X146987500Y-82918750D01*
X149237500Y-78368750D02*
X149237500Y-82918750D01*
X149537500Y-78568750D02*
X149537500Y-83068750D01*
X153587500Y-80518750D02*
X153587500Y-85118750D01*
X150287500Y-79818750D02*
X150287500Y-84268750D01*
X151487500Y-80468750D02*
X151487500Y-85118750D01*
X149937500Y-79318750D02*
X149937500Y-83468750D01*
D11*
X151537500Y-88867750D02*
X143237500Y-88867750D01*
D10*
X150037500Y-79468750D02*
X150037500Y-83618750D01*
X154487500Y-81068750D02*
X154487500Y-84568750D01*
X146237500Y-78318750D02*
X146237500Y-82868750D01*
X149737500Y-78968750D02*
X149737500Y-83168750D01*
X151937500Y-80493750D02*
X153912500Y-80493750D01*
X152687500Y-80518750D02*
X152687500Y-85118750D01*
X154787500Y-81368750D02*
X154787500Y-84268750D01*
X148187500Y-78318750D02*
X148187500Y-82918750D01*
X153737500Y-80518750D02*
X153737500Y-85118750D01*
X145937500Y-78418750D02*
X145937500Y-82818750D01*
X147437500Y-78318750D02*
X147437500Y-82918750D01*
X153437500Y-80518750D02*
X153437500Y-85118750D01*
X148637500Y-78318750D02*
X148637500Y-82918750D01*
X153287500Y-80518750D02*
X153287500Y-85118750D01*
X152837500Y-80518750D02*
X152837500Y-85118750D01*
X151362500Y-85143750D02*
X150087500Y-84118750D01*
X152537500Y-80518750D02*
X152537500Y-85118750D01*
X151187500Y-80418750D02*
X151187500Y-84968750D01*
X150137500Y-79668750D02*
X150137500Y-84118750D01*
X152237500Y-80518750D02*
X152237500Y-85118750D01*
X154637500Y-81268750D02*
X154637500Y-84418750D01*
D11*
X143737500Y-93567750D02*
X151537500Y-93567750D01*
D10*
X151787500Y-80518750D02*
X151787500Y-85068750D01*
X154937500Y-84118750D02*
X153912500Y-85143750D01*
X145337500Y-81943750D02*
G75*
G03*
X146337500Y-82943750I999999J-1D01*
G01*
X149799699Y-78996846D02*
G75*
G03*
X151937500Y-80493750I2137802J778098D01*
G01*
X146337500Y-78293750D02*
G75*
G03*
X145337500Y-79293750I-1J-999999D01*
G01*
X150087500Y-84118750D02*
G75*
G03*
X148912500Y-82943750I-1175002J-2D01*
G01*
X149799699Y-78996846D02*
G75*
G03*
X148938495Y-78294959I-900000J-225000D01*
G01*
D12*
X143237500Y-89883750D02*
X143237500Y-88867750D01*
X143237500Y-88867750D02*
X144245500Y-88867750D01*
X144245500Y-88867750D02*
X143237500Y-89883750D01*
G36*
X143237500Y-89883750D02*
G01*
X143237500Y-88867750D01*
X144245500Y-88867750D01*
X143237500Y-89883750D01*
G37*
X143237500Y-89883750D02*
X143237500Y-88867750D01*
X144245500Y-88867750D01*
X143237500Y-89883750D01*
D10*
X149087500Y-100543750D02*
X149087500Y-105143750D01*
X145687500Y-100843750D02*
X145687500Y-104793750D01*
X146537500Y-100543750D02*
X146537500Y-105143750D01*
X146837500Y-100543750D02*
X146837500Y-105143750D01*
X150587500Y-102293750D02*
X150587500Y-106693750D01*
D11*
X143237500Y-111092750D02*
X143237500Y-112743750D01*
D10*
X149837500Y-101343750D02*
X149837500Y-105493750D01*
X152387500Y-102743750D02*
X152387500Y-107343750D01*
X145787500Y-100743750D02*
X145787500Y-104943750D01*
X148487500Y-100543750D02*
X148487500Y-105143750D01*
X148337500Y-100543750D02*
X148337500Y-105143750D01*
X146087500Y-100593750D02*
X146087500Y-105093750D01*
X149387500Y-100693750D02*
X149387500Y-105243750D01*
X150437500Y-102193750D02*
X150437500Y-106593750D01*
X151637500Y-102693750D02*
X151637500Y-107343750D01*
X147587500Y-100543750D02*
X147587500Y-105143750D01*
X149637500Y-100943750D02*
X149637500Y-105343750D01*
X146387500Y-100543750D02*
X146387500Y-105143750D01*
X150737500Y-102393750D02*
X150737500Y-106843750D01*
X154187500Y-102993750D02*
X154187500Y-107093750D01*
X146337500Y-100518750D02*
X148937500Y-100518750D01*
X147887500Y-100543750D02*
X147887500Y-105143750D01*
X150887500Y-102493750D02*
X150887500Y-106943750D01*
X147287500Y-100543750D02*
X147287500Y-105143750D01*
X148037500Y-100543750D02*
X148037500Y-105143750D01*
X154937500Y-106343750D02*
X154937500Y-103743750D01*
X146337500Y-105168750D02*
X148912500Y-105168750D01*
X154037500Y-102893750D02*
X154037500Y-107243750D01*
X153137500Y-102743750D02*
X153137500Y-107343750D01*
X147137500Y-100543750D02*
X147137500Y-105143750D01*
X148787500Y-100543750D02*
X148787500Y-105093750D01*
X145587500Y-100943750D02*
X145587500Y-104693750D01*
X153887500Y-102743750D02*
X153887500Y-107343750D01*
X145487500Y-101093750D02*
X145487500Y-104643750D01*
X152087500Y-102743750D02*
X152087500Y-107343750D01*
X152987500Y-102743750D02*
X152987500Y-107343750D01*
X148937500Y-100543750D02*
X148937500Y-105143750D01*
X151937500Y-102743750D02*
X151937500Y-107343750D01*
X151037500Y-102543750D02*
X151037500Y-107093750D01*
X154337500Y-103143750D02*
X154337500Y-106943750D01*
X151337500Y-102693750D02*
X151337500Y-107293750D01*
X146687500Y-100543750D02*
X146687500Y-105143750D01*
X151362500Y-107368750D02*
X153912500Y-107368750D01*
X145337500Y-104168750D02*
X145337500Y-101518750D01*
X147737500Y-100543750D02*
X147737500Y-105143750D01*
X154937500Y-103743750D02*
X153912500Y-102718750D01*
X146987500Y-100543750D02*
X146987500Y-105143750D01*
X149237500Y-100593750D02*
X149237500Y-105143750D01*
X149537500Y-100793750D02*
X149537500Y-105293750D01*
X153587500Y-102743750D02*
X153587500Y-107343750D01*
X150287500Y-102043750D02*
X150287500Y-106493750D01*
X151487500Y-102693750D02*
X151487500Y-107343750D01*
X149937500Y-101543750D02*
X149937500Y-105693750D01*
D11*
X151537500Y-111092750D02*
X143237500Y-111092750D01*
D10*
X150037500Y-101693750D02*
X150037500Y-105843750D01*
X154487500Y-103293750D02*
X154487500Y-106793750D01*
X146237500Y-100543750D02*
X146237500Y-105093750D01*
X149737500Y-101193750D02*
X149737500Y-105393750D01*
X151937500Y-102718750D02*
X153912500Y-102718750D01*
X152687500Y-102743750D02*
X152687500Y-107343750D01*
X154787500Y-103593750D02*
X154787500Y-106493750D01*
X148187500Y-100543750D02*
X148187500Y-105143750D01*
X153737500Y-102743750D02*
X153737500Y-107343750D01*
X145937500Y-100643750D02*
X145937500Y-105043750D01*
X147437500Y-100543750D02*
X147437500Y-105143750D01*
X153437500Y-102743750D02*
X153437500Y-107343750D01*
X148637500Y-100543750D02*
X148637500Y-105143750D01*
X153287500Y-102743750D02*
X153287500Y-107343750D01*
X152837500Y-102743750D02*
X152837500Y-107343750D01*
X151362500Y-107368750D02*
X150087500Y-106343750D01*
X152537500Y-102743750D02*
X152537500Y-107343750D01*
X151187500Y-102643750D02*
X151187500Y-107193750D01*
X150137500Y-101893750D02*
X150137500Y-106343750D01*
X152237500Y-102743750D02*
X152237500Y-107343750D01*
X154637500Y-103493750D02*
X154637500Y-106643750D01*
D11*
X143737500Y-115792750D02*
X151537500Y-115792750D01*
D10*
X151787500Y-102743750D02*
X151787500Y-107293750D01*
X154937500Y-106343750D02*
X153912500Y-107368750D01*
X145337500Y-104168750D02*
G75*
G03*
X146337500Y-105168750I999999J-1D01*
G01*
X149799699Y-101221846D02*
G75*
G03*
X151937500Y-102718750I2137802J778098D01*
G01*
X146337500Y-100518750D02*
G75*
G03*
X145337500Y-101518750I-1J-999999D01*
G01*
X150087500Y-106343750D02*
G75*
G03*
X148912500Y-105168750I-1175002J-2D01*
G01*
X149799699Y-101221846D02*
G75*
G03*
X148938495Y-100519959I-900000J-225000D01*
G01*
D12*
X143237500Y-112108750D02*
X143237500Y-111092750D01*
X143237500Y-111092750D02*
X144245500Y-111092750D01*
X144245500Y-111092750D02*
X143237500Y-112108750D01*
G36*
X143237500Y-112108750D02*
G01*
X143237500Y-111092750D01*
X144245500Y-111092750D01*
X143237500Y-112108750D01*
G37*
X143237500Y-112108750D02*
X143237500Y-111092750D01*
X144245500Y-111092750D01*
X143237500Y-112108750D01*
D10*
X82412500Y-78318750D02*
X82412500Y-82918750D01*
X79012500Y-78618750D02*
X79012500Y-82568750D01*
X79862500Y-78318750D02*
X79862500Y-82918750D01*
X80162500Y-78318750D02*
X80162500Y-82918750D01*
X83912500Y-80068750D02*
X83912500Y-84468750D01*
D11*
X76562500Y-88867750D02*
X76562500Y-90518750D01*
D10*
X83162500Y-79118750D02*
X83162500Y-83268750D01*
X85712500Y-80518750D02*
X85712500Y-85118750D01*
X79112500Y-78518750D02*
X79112500Y-82718750D01*
X81812500Y-78318750D02*
X81812500Y-82918750D01*
X81662500Y-78318750D02*
X81662500Y-82918750D01*
X79412500Y-78368750D02*
X79412500Y-82868750D01*
X82712500Y-78468750D02*
X82712500Y-83018750D01*
X83762500Y-79968750D02*
X83762500Y-84368750D01*
X84962500Y-80468750D02*
X84962500Y-85118750D01*
X80912500Y-78318750D02*
X80912500Y-82918750D01*
X82962500Y-78718750D02*
X82962500Y-83118750D01*
X79712500Y-78318750D02*
X79712500Y-82918750D01*
X84062500Y-80168750D02*
X84062500Y-84618750D01*
X87512500Y-80768750D02*
X87512500Y-84868750D01*
X79662500Y-78293750D02*
X82262500Y-78293750D01*
X81212500Y-78318750D02*
X81212500Y-82918750D01*
X84212500Y-80268750D02*
X84212500Y-84718750D01*
X80612500Y-78318750D02*
X80612500Y-82918750D01*
X81362500Y-78318750D02*
X81362500Y-82918750D01*
X88262500Y-84118750D02*
X88262500Y-81518750D01*
X79662500Y-82943750D02*
X82237500Y-82943750D01*
X87362500Y-80668750D02*
X87362500Y-85018750D01*
X86462500Y-80518750D02*
X86462500Y-85118750D01*
X80462500Y-78318750D02*
X80462500Y-82918750D01*
X82112500Y-78318750D02*
X82112500Y-82868750D01*
X78912500Y-78718750D02*
X78912500Y-82468750D01*
X87212500Y-80518750D02*
X87212500Y-85118750D01*
X78812500Y-78868750D02*
X78812500Y-82418750D01*
X85412500Y-80518750D02*
X85412500Y-85118750D01*
X86312500Y-80518750D02*
X86312500Y-85118750D01*
X82262500Y-78318750D02*
X82262500Y-82918750D01*
X85262500Y-80518750D02*
X85262500Y-85118750D01*
X84362500Y-80318750D02*
X84362500Y-84868750D01*
X87662500Y-80918750D02*
X87662500Y-84718750D01*
X84662500Y-80468750D02*
X84662500Y-85068750D01*
X80012500Y-78318750D02*
X80012500Y-82918750D01*
X84687500Y-85143750D02*
X87237500Y-85143750D01*
X78662500Y-81943750D02*
X78662500Y-79293750D01*
X81062500Y-78318750D02*
X81062500Y-82918750D01*
X88262500Y-81518750D02*
X87237500Y-80493750D01*
X80312500Y-78318750D02*
X80312500Y-82918750D01*
X82562500Y-78368750D02*
X82562500Y-82918750D01*
X82862500Y-78568750D02*
X82862500Y-83068750D01*
X86912500Y-80518750D02*
X86912500Y-85118750D01*
X83612500Y-79818750D02*
X83612500Y-84268750D01*
X84812500Y-80468750D02*
X84812500Y-85118750D01*
X83262500Y-79318750D02*
X83262500Y-83468750D01*
D11*
X84862500Y-88867750D02*
X76562500Y-88867750D01*
D10*
X83362500Y-79468750D02*
X83362500Y-83618750D01*
X87812500Y-81068750D02*
X87812500Y-84568750D01*
X79562500Y-78318750D02*
X79562500Y-82868750D01*
X83062500Y-78968750D02*
X83062500Y-83168750D01*
X85262500Y-80493750D02*
X87237500Y-80493750D01*
X86012500Y-80518750D02*
X86012500Y-85118750D01*
X88112500Y-81368750D02*
X88112500Y-84268750D01*
X81512500Y-78318750D02*
X81512500Y-82918750D01*
X87062500Y-80518750D02*
X87062500Y-85118750D01*
X79262500Y-78418750D02*
X79262500Y-82818750D01*
X80762500Y-78318750D02*
X80762500Y-82918750D01*
X86762500Y-80518750D02*
X86762500Y-85118750D01*
X81962500Y-78318750D02*
X81962500Y-82918750D01*
X86612500Y-80518750D02*
X86612500Y-85118750D01*
X86162500Y-80518750D02*
X86162500Y-85118750D01*
X84687500Y-85143750D02*
X83412500Y-84118750D01*
X85862500Y-80518750D02*
X85862500Y-85118750D01*
X84512500Y-80418750D02*
X84512500Y-84968750D01*
X83462500Y-79668750D02*
X83462500Y-84118750D01*
X85562500Y-80518750D02*
X85562500Y-85118750D01*
X87962500Y-81268750D02*
X87962500Y-84418750D01*
D11*
X77062500Y-93567750D02*
X84862500Y-93567750D01*
D10*
X85112500Y-80518750D02*
X85112500Y-85068750D01*
X88262500Y-84118750D02*
X87237500Y-85143750D01*
X78662500Y-81943750D02*
G75*
G03*
X79662500Y-82943750I999999J-1D01*
G01*
X83124699Y-78996846D02*
G75*
G03*
X85262500Y-80493750I2137802J778098D01*
G01*
X79662500Y-78293750D02*
G75*
G03*
X78662500Y-79293750I-1J-999999D01*
G01*
X83412500Y-84118750D02*
G75*
G03*
X82237500Y-82943750I-1175002J-2D01*
G01*
X83124699Y-78996846D02*
G75*
G03*
X82263495Y-78294959I-900000J-225000D01*
G01*
D12*
X76562500Y-89883750D02*
X76562500Y-88867750D01*
X76562500Y-88867750D02*
X77570500Y-88867750D01*
X77570500Y-88867750D02*
X76562500Y-89883750D01*
G36*
X76562500Y-89883750D02*
G01*
X76562500Y-88867750D01*
X77570500Y-88867750D01*
X76562500Y-89883750D01*
G37*
X76562500Y-89883750D02*
X76562500Y-88867750D01*
X77570500Y-88867750D01*
X76562500Y-89883750D01*
D10*
X104637500Y-100543750D02*
X104637500Y-105143750D01*
X101237500Y-100843750D02*
X101237500Y-104793750D01*
X102087500Y-100543750D02*
X102087500Y-105143750D01*
X102387500Y-100543750D02*
X102387500Y-105143750D01*
X106137500Y-102293750D02*
X106137500Y-106693750D01*
D11*
X98787500Y-111092750D02*
X98787500Y-112743750D01*
D10*
X105387500Y-101343750D02*
X105387500Y-105493750D01*
X107937500Y-102743750D02*
X107937500Y-107343750D01*
X101337500Y-100743750D02*
X101337500Y-104943750D01*
X104037500Y-100543750D02*
X104037500Y-105143750D01*
X103887500Y-100543750D02*
X103887500Y-105143750D01*
X101637500Y-100593750D02*
X101637500Y-105093750D01*
X104937500Y-100693750D02*
X104937500Y-105243750D01*
X105987500Y-102193750D02*
X105987500Y-106593750D01*
X107187500Y-102693750D02*
X107187500Y-107343750D01*
X103137500Y-100543750D02*
X103137500Y-105143750D01*
X105187500Y-100943750D02*
X105187500Y-105343750D01*
X101937500Y-100543750D02*
X101937500Y-105143750D01*
X106287500Y-102393750D02*
X106287500Y-106843750D01*
X109737500Y-102993750D02*
X109737500Y-107093750D01*
X101887500Y-100518750D02*
X104487500Y-100518750D01*
X103437500Y-100543750D02*
X103437500Y-105143750D01*
X106437500Y-102493750D02*
X106437500Y-106943750D01*
X102837500Y-100543750D02*
X102837500Y-105143750D01*
X103587500Y-100543750D02*
X103587500Y-105143750D01*
X110487500Y-106343750D02*
X110487500Y-103743750D01*
X101887500Y-105168750D02*
X104462500Y-105168750D01*
X109587500Y-102893750D02*
X109587500Y-107243750D01*
X108687500Y-102743750D02*
X108687500Y-107343750D01*
X102687500Y-100543750D02*
X102687500Y-105143750D01*
X104337500Y-100543750D02*
X104337500Y-105093750D01*
X101137500Y-100943750D02*
X101137500Y-104693750D01*
X109437500Y-102743750D02*
X109437500Y-107343750D01*
X101037500Y-101093750D02*
X101037500Y-104643750D01*
X107637500Y-102743750D02*
X107637500Y-107343750D01*
X108537500Y-102743750D02*
X108537500Y-107343750D01*
X104487500Y-100543750D02*
X104487500Y-105143750D01*
X107487500Y-102743750D02*
X107487500Y-107343750D01*
X106587500Y-102543750D02*
X106587500Y-107093750D01*
X109887500Y-103143750D02*
X109887500Y-106943750D01*
X106887500Y-102693750D02*
X106887500Y-107293750D01*
X102237500Y-100543750D02*
X102237500Y-105143750D01*
X106912500Y-107368750D02*
X109462500Y-107368750D01*
X100887500Y-104168750D02*
X100887500Y-101518750D01*
X103287500Y-100543750D02*
X103287500Y-105143750D01*
X110487500Y-103743750D02*
X109462500Y-102718750D01*
X102537500Y-100543750D02*
X102537500Y-105143750D01*
X104787500Y-100593750D02*
X104787500Y-105143750D01*
X105087500Y-100793750D02*
X105087500Y-105293750D01*
X109137500Y-102743750D02*
X109137500Y-107343750D01*
X105837500Y-102043750D02*
X105837500Y-106493750D01*
X107037500Y-102693750D02*
X107037500Y-107343750D01*
X105487500Y-101543750D02*
X105487500Y-105693750D01*
D11*
X107087500Y-111092750D02*
X98787500Y-111092750D01*
D10*
X105587500Y-101693750D02*
X105587500Y-105843750D01*
X110037500Y-103293750D02*
X110037500Y-106793750D01*
X101787500Y-100543750D02*
X101787500Y-105093750D01*
X105287500Y-101193750D02*
X105287500Y-105393750D01*
X107487500Y-102718750D02*
X109462500Y-102718750D01*
X108237500Y-102743750D02*
X108237500Y-107343750D01*
X110337500Y-103593750D02*
X110337500Y-106493750D01*
X103737500Y-100543750D02*
X103737500Y-105143750D01*
X109287500Y-102743750D02*
X109287500Y-107343750D01*
X101487500Y-100643750D02*
X101487500Y-105043750D01*
X102987500Y-100543750D02*
X102987500Y-105143750D01*
X108987500Y-102743750D02*
X108987500Y-107343750D01*
X104187500Y-100543750D02*
X104187500Y-105143750D01*
X108837500Y-102743750D02*
X108837500Y-107343750D01*
X108387500Y-102743750D02*
X108387500Y-107343750D01*
X106912500Y-107368750D02*
X105637500Y-106343750D01*
X108087500Y-102743750D02*
X108087500Y-107343750D01*
X106737500Y-102643750D02*
X106737500Y-107193750D01*
X105687500Y-101893750D02*
X105687500Y-106343750D01*
X107787500Y-102743750D02*
X107787500Y-107343750D01*
X110187500Y-103493750D02*
X110187500Y-106643750D01*
D11*
X99287500Y-115792750D02*
X107087500Y-115792750D01*
D10*
X107337500Y-102743750D02*
X107337500Y-107293750D01*
X110487500Y-106343750D02*
X109462500Y-107368750D01*
X100887500Y-104168750D02*
G75*
G03*
X101887500Y-105168750I999999J-1D01*
G01*
X105349699Y-101221846D02*
G75*
G03*
X107487500Y-102718750I2137802J778098D01*
G01*
X101887500Y-100518750D02*
G75*
G03*
X100887500Y-101518750I-1J-999999D01*
G01*
X105637500Y-106343750D02*
G75*
G03*
X104462500Y-105168750I-1175002J-2D01*
G01*
X105349699Y-101221846D02*
G75*
G03*
X104488495Y-100519959I-900000J-225000D01*
G01*
D12*
X98787500Y-112108750D02*
X98787500Y-111092750D01*
X98787500Y-111092750D02*
X99795500Y-111092750D01*
X99795500Y-111092750D02*
X98787500Y-112108750D01*
G36*
X98787500Y-112108750D02*
G01*
X98787500Y-111092750D01*
X99795500Y-111092750D01*
X98787500Y-112108750D01*
G37*
X98787500Y-112108750D02*
X98787500Y-111092750D01*
X99795500Y-111092750D01*
X98787500Y-112108750D01*
D10*
X82412500Y-56093750D02*
X82412500Y-60693750D01*
X79012500Y-56393750D02*
X79012500Y-60343750D01*
X79862500Y-56093750D02*
X79862500Y-60693750D01*
X80162500Y-56093750D02*
X80162500Y-60693750D01*
X83912500Y-57843750D02*
X83912500Y-62243750D01*
D11*
X76562500Y-66642750D02*
X76562500Y-68293750D01*
D10*
X83162500Y-56893750D02*
X83162500Y-61043750D01*
X85712500Y-58293750D02*
X85712500Y-62893750D01*
X79112500Y-56293750D02*
X79112500Y-60493750D01*
X81812500Y-56093750D02*
X81812500Y-60693750D01*
X81662500Y-56093750D02*
X81662500Y-60693750D01*
X79412500Y-56143750D02*
X79412500Y-60643750D01*
X82712500Y-56243750D02*
X82712500Y-60793750D01*
X83762500Y-57743750D02*
X83762500Y-62143750D01*
X84962500Y-58243750D02*
X84962500Y-62893750D01*
X80912500Y-56093750D02*
X80912500Y-60693750D01*
X82962500Y-56493750D02*
X82962500Y-60893750D01*
X79712500Y-56093750D02*
X79712500Y-60693750D01*
X84062500Y-57943750D02*
X84062500Y-62393750D01*
X87512500Y-58543750D02*
X87512500Y-62643750D01*
X79662500Y-56068750D02*
X82262500Y-56068750D01*
X81212500Y-56093750D02*
X81212500Y-60693750D01*
X84212500Y-58043750D02*
X84212500Y-62493750D01*
X80612500Y-56093750D02*
X80612500Y-60693750D01*
X81362500Y-56093750D02*
X81362500Y-60693750D01*
X88262500Y-61893750D02*
X88262500Y-59293750D01*
X79662500Y-60718750D02*
X82237500Y-60718750D01*
X87362500Y-58443750D02*
X87362500Y-62793750D01*
X86462500Y-58293750D02*
X86462500Y-62893750D01*
X80462500Y-56093750D02*
X80462500Y-60693750D01*
X82112500Y-56093750D02*
X82112500Y-60643750D01*
X78912500Y-56493750D02*
X78912500Y-60243750D01*
X87212500Y-58293750D02*
X87212500Y-62893750D01*
X78812500Y-56643750D02*
X78812500Y-60193750D01*
X85412500Y-58293750D02*
X85412500Y-62893750D01*
X86312500Y-58293750D02*
X86312500Y-62893750D01*
X82262500Y-56093750D02*
X82262500Y-60693750D01*
X85262500Y-58293750D02*
X85262500Y-62893750D01*
X84362500Y-58093750D02*
X84362500Y-62643750D01*
X87662500Y-58693750D02*
X87662500Y-62493750D01*
X84662500Y-58243750D02*
X84662500Y-62843750D01*
X80012500Y-56093750D02*
X80012500Y-60693750D01*
X84687500Y-62918750D02*
X87237500Y-62918750D01*
X78662500Y-59718750D02*
X78662500Y-57068750D01*
X81062500Y-56093750D02*
X81062500Y-60693750D01*
X88262500Y-59293750D02*
X87237500Y-58268750D01*
X80312500Y-56093750D02*
X80312500Y-60693750D01*
X82562500Y-56143750D02*
X82562500Y-60693750D01*
X82862500Y-56343750D02*
X82862500Y-60843750D01*
X86912500Y-58293750D02*
X86912500Y-62893750D01*
X83612500Y-57593750D02*
X83612500Y-62043750D01*
X84812500Y-58243750D02*
X84812500Y-62893750D01*
X83262500Y-57093750D02*
X83262500Y-61243750D01*
D11*
X84862500Y-66642750D02*
X76562500Y-66642750D01*
D10*
X83362500Y-57243750D02*
X83362500Y-61393750D01*
X87812500Y-58843750D02*
X87812500Y-62343750D01*
X79562500Y-56093750D02*
X79562500Y-60643750D01*
X83062500Y-56743750D02*
X83062500Y-60943750D01*
X85262500Y-58268750D02*
X87237500Y-58268750D01*
X86012500Y-58293750D02*
X86012500Y-62893750D01*
X88112500Y-59143750D02*
X88112500Y-62043750D01*
X81512500Y-56093750D02*
X81512500Y-60693750D01*
X87062500Y-58293750D02*
X87062500Y-62893750D01*
X79262500Y-56193750D02*
X79262500Y-60593750D01*
X80762500Y-56093750D02*
X80762500Y-60693750D01*
X86762500Y-58293750D02*
X86762500Y-62893750D01*
X81962500Y-56093750D02*
X81962500Y-60693750D01*
X86612500Y-58293750D02*
X86612500Y-62893750D01*
X86162500Y-58293750D02*
X86162500Y-62893750D01*
X84687500Y-62918750D02*
X83412500Y-61893750D01*
X85862500Y-58293750D02*
X85862500Y-62893750D01*
X84512500Y-58193750D02*
X84512500Y-62743750D01*
X83462500Y-57443750D02*
X83462500Y-61893750D01*
X85562500Y-58293750D02*
X85562500Y-62893750D01*
X87962500Y-59043750D02*
X87962500Y-62193750D01*
D11*
X77062500Y-71342750D02*
X84862500Y-71342750D01*
D10*
X85112500Y-58293750D02*
X85112500Y-62843750D01*
X88262500Y-61893750D02*
X87237500Y-62918750D01*
X78662500Y-59718750D02*
G75*
G03*
X79662500Y-60718750I999999J-1D01*
G01*
X83124699Y-56771846D02*
G75*
G03*
X85262500Y-58268750I2137802J778098D01*
G01*
X79662500Y-56068750D02*
G75*
G03*
X78662500Y-57068750I-1J-999999D01*
G01*
X83412500Y-61893750D02*
G75*
G03*
X82237500Y-60718750I-1175002J-2D01*
G01*
X83124699Y-56771846D02*
G75*
G03*
X82263495Y-56069959I-900000J-225000D01*
G01*
D12*
X76562500Y-67658750D02*
X76562500Y-66642750D01*
X76562500Y-66642750D02*
X77570500Y-66642750D01*
X77570500Y-66642750D02*
X76562500Y-67658750D01*
G36*
X76562500Y-67658750D02*
G01*
X76562500Y-66642750D01*
X77570500Y-66642750D01*
X76562500Y-67658750D01*
G37*
X76562500Y-67658750D02*
X76562500Y-66642750D01*
X77570500Y-66642750D01*
X76562500Y-67658750D01*
D10*
X82412500Y-100543750D02*
X82412500Y-105143750D01*
X79012500Y-100843750D02*
X79012500Y-104793750D01*
X79862500Y-100543750D02*
X79862500Y-105143750D01*
X80162500Y-100543750D02*
X80162500Y-105143750D01*
X83912500Y-102293750D02*
X83912500Y-106693750D01*
D11*
X76562500Y-111092750D02*
X76562500Y-112743750D01*
D10*
X83162500Y-101343750D02*
X83162500Y-105493750D01*
X85712500Y-102743750D02*
X85712500Y-107343750D01*
X79112500Y-100743750D02*
X79112500Y-104943750D01*
X81812500Y-100543750D02*
X81812500Y-105143750D01*
X81662500Y-100543750D02*
X81662500Y-105143750D01*
X79412500Y-100593750D02*
X79412500Y-105093750D01*
X82712500Y-100693750D02*
X82712500Y-105243750D01*
X83762500Y-102193750D02*
X83762500Y-106593750D01*
X84962500Y-102693750D02*
X84962500Y-107343750D01*
X80912500Y-100543750D02*
X80912500Y-105143750D01*
X82962500Y-100943750D02*
X82962500Y-105343750D01*
X79712500Y-100543750D02*
X79712500Y-105143750D01*
X84062500Y-102393750D02*
X84062500Y-106843750D01*
X87512500Y-102993750D02*
X87512500Y-107093750D01*
X79662500Y-100518750D02*
X82262500Y-100518750D01*
X81212500Y-100543750D02*
X81212500Y-105143750D01*
X84212500Y-102493750D02*
X84212500Y-106943750D01*
X80612500Y-100543750D02*
X80612500Y-105143750D01*
X81362500Y-100543750D02*
X81362500Y-105143750D01*
X88262500Y-106343750D02*
X88262500Y-103743750D01*
X79662500Y-105168750D02*
X82237500Y-105168750D01*
X87362500Y-102893750D02*
X87362500Y-107243750D01*
X86462500Y-102743750D02*
X86462500Y-107343750D01*
X80462500Y-100543750D02*
X80462500Y-105143750D01*
X82112500Y-100543750D02*
X82112500Y-105093750D01*
X78912500Y-100943750D02*
X78912500Y-104693750D01*
X87212500Y-102743750D02*
X87212500Y-107343750D01*
X78812500Y-101093750D02*
X78812500Y-104643750D01*
X85412500Y-102743750D02*
X85412500Y-107343750D01*
X86312500Y-102743750D02*
X86312500Y-107343750D01*
X82262500Y-100543750D02*
X82262500Y-105143750D01*
X85262500Y-102743750D02*
X85262500Y-107343750D01*
X84362500Y-102543750D02*
X84362500Y-107093750D01*
X87662500Y-103143750D02*
X87662500Y-106943750D01*
X84662500Y-102693750D02*
X84662500Y-107293750D01*
X80012500Y-100543750D02*
X80012500Y-105143750D01*
X84687500Y-107368750D02*
X87237500Y-107368750D01*
X78662500Y-104168750D02*
X78662500Y-101518750D01*
X81062500Y-100543750D02*
X81062500Y-105143750D01*
X88262500Y-103743750D02*
X87237500Y-102718750D01*
X80312500Y-100543750D02*
X80312500Y-105143750D01*
X82562500Y-100593750D02*
X82562500Y-105143750D01*
X82862500Y-100793750D02*
X82862500Y-105293750D01*
X86912500Y-102743750D02*
X86912500Y-107343750D01*
X83612500Y-102043750D02*
X83612500Y-106493750D01*
X84812500Y-102693750D02*
X84812500Y-107343750D01*
X83262500Y-101543750D02*
X83262500Y-105693750D01*
D11*
X84862500Y-111092750D02*
X76562500Y-111092750D01*
D10*
X83362500Y-101693750D02*
X83362500Y-105843750D01*
X87812500Y-103293750D02*
X87812500Y-106793750D01*
X79562500Y-100543750D02*
X79562500Y-105093750D01*
X83062500Y-101193750D02*
X83062500Y-105393750D01*
X85262500Y-102718750D02*
X87237500Y-102718750D01*
X86012500Y-102743750D02*
X86012500Y-107343750D01*
X88112500Y-103593750D02*
X88112500Y-106493750D01*
X81512500Y-100543750D02*
X81512500Y-105143750D01*
X87062500Y-102743750D02*
X87062500Y-107343750D01*
X79262500Y-100643750D02*
X79262500Y-105043750D01*
X80762500Y-100543750D02*
X80762500Y-105143750D01*
X86762500Y-102743750D02*
X86762500Y-107343750D01*
X81962500Y-100543750D02*
X81962500Y-105143750D01*
X86612500Y-102743750D02*
X86612500Y-107343750D01*
X86162500Y-102743750D02*
X86162500Y-107343750D01*
X84687500Y-107368750D02*
X83412500Y-106343750D01*
X85862500Y-102743750D02*
X85862500Y-107343750D01*
X84512500Y-102643750D02*
X84512500Y-107193750D01*
X83462500Y-101893750D02*
X83462500Y-106343750D01*
X85562500Y-102743750D02*
X85562500Y-107343750D01*
X87962500Y-103493750D02*
X87962500Y-106643750D01*
D11*
X77062500Y-115792750D02*
X84862500Y-115792750D01*
D10*
X85112500Y-102743750D02*
X85112500Y-107293750D01*
X88262500Y-106343750D02*
X87237500Y-107368750D01*
X78662500Y-104168750D02*
G75*
G03*
X79662500Y-105168750I999999J-1D01*
G01*
X83124699Y-101221846D02*
G75*
G03*
X85262500Y-102718750I2137802J778098D01*
G01*
X79662500Y-100518750D02*
G75*
G03*
X78662500Y-101518750I-1J-999999D01*
G01*
X83412500Y-106343750D02*
G75*
G03*
X82237500Y-105168750I-1175002J-2D01*
G01*
X83124699Y-101221846D02*
G75*
G03*
X82263495Y-100519959I-900000J-225000D01*
G01*
D12*
X76562500Y-112108750D02*
X76562500Y-111092750D01*
X76562500Y-111092750D02*
X77570500Y-111092750D01*
X77570500Y-111092750D02*
X76562500Y-112108750D01*
G36*
X76562500Y-112108750D02*
G01*
X76562500Y-111092750D01*
X77570500Y-111092750D01*
X76562500Y-112108750D01*
G37*
X76562500Y-112108750D02*
X76562500Y-111092750D01*
X77570500Y-111092750D01*
X76562500Y-112108750D01*
D10*
X126862500Y-56093750D02*
X126862500Y-60693750D01*
X123462500Y-56393750D02*
X123462500Y-60343750D01*
X124312500Y-56093750D02*
X124312500Y-60693750D01*
X124612500Y-56093750D02*
X124612500Y-60693750D01*
X128362500Y-57843750D02*
X128362500Y-62243750D01*
D11*
X121012500Y-66642750D02*
X121012500Y-68293750D01*
D10*
X127612500Y-56893750D02*
X127612500Y-61043750D01*
X130162500Y-58293750D02*
X130162500Y-62893750D01*
X123562500Y-56293750D02*
X123562500Y-60493750D01*
X126262500Y-56093750D02*
X126262500Y-60693750D01*
X126112500Y-56093750D02*
X126112500Y-60693750D01*
X123862500Y-56143750D02*
X123862500Y-60643750D01*
X127162500Y-56243750D02*
X127162500Y-60793750D01*
X128212500Y-57743750D02*
X128212500Y-62143750D01*
X129412500Y-58243750D02*
X129412500Y-62893750D01*
X125362500Y-56093750D02*
X125362500Y-60693750D01*
X127412500Y-56493750D02*
X127412500Y-60893750D01*
X124162500Y-56093750D02*
X124162500Y-60693750D01*
X128512500Y-57943750D02*
X128512500Y-62393750D01*
X131962500Y-58543750D02*
X131962500Y-62643750D01*
X124112500Y-56068750D02*
X126712500Y-56068750D01*
X125662500Y-56093750D02*
X125662500Y-60693750D01*
X128662500Y-58043750D02*
X128662500Y-62493750D01*
X125062500Y-56093750D02*
X125062500Y-60693750D01*
X125812500Y-56093750D02*
X125812500Y-60693750D01*
X132712500Y-61893750D02*
X132712500Y-59293750D01*
X124112500Y-60718750D02*
X126687500Y-60718750D01*
X131812500Y-58443750D02*
X131812500Y-62793750D01*
X130912500Y-58293750D02*
X130912500Y-62893750D01*
X124912500Y-56093750D02*
X124912500Y-60693750D01*
X126562500Y-56093750D02*
X126562500Y-60643750D01*
X123362500Y-56493750D02*
X123362500Y-60243750D01*
X131662500Y-58293750D02*
X131662500Y-62893750D01*
X123262500Y-56643750D02*
X123262500Y-60193750D01*
X129862500Y-58293750D02*
X129862500Y-62893750D01*
X130762500Y-58293750D02*
X130762500Y-62893750D01*
X126712500Y-56093750D02*
X126712500Y-60693750D01*
X129712500Y-58293750D02*
X129712500Y-62893750D01*
X128812500Y-58093750D02*
X128812500Y-62643750D01*
X132112500Y-58693750D02*
X132112500Y-62493750D01*
X129112500Y-58243750D02*
X129112500Y-62843750D01*
X124462500Y-56093750D02*
X124462500Y-60693750D01*
X129137500Y-62918750D02*
X131687500Y-62918750D01*
X123112500Y-59718750D02*
X123112500Y-57068750D01*
X125512500Y-56093750D02*
X125512500Y-60693750D01*
X132712500Y-59293750D02*
X131687500Y-58268750D01*
X124762500Y-56093750D02*
X124762500Y-60693750D01*
X127012500Y-56143750D02*
X127012500Y-60693750D01*
X127312500Y-56343750D02*
X127312500Y-60843750D01*
X131362500Y-58293750D02*
X131362500Y-62893750D01*
X128062500Y-57593750D02*
X128062500Y-62043750D01*
X129262500Y-58243750D02*
X129262500Y-62893750D01*
X127712500Y-57093750D02*
X127712500Y-61243750D01*
D11*
X129312500Y-66642750D02*
X121012500Y-66642750D01*
D10*
X127812500Y-57243750D02*
X127812500Y-61393750D01*
X132262500Y-58843750D02*
X132262500Y-62343750D01*
X124012500Y-56093750D02*
X124012500Y-60643750D01*
X127512500Y-56743750D02*
X127512500Y-60943750D01*
X129712500Y-58268750D02*
X131687500Y-58268750D01*
X130462500Y-58293750D02*
X130462500Y-62893750D01*
X132562500Y-59143750D02*
X132562500Y-62043750D01*
X125962500Y-56093750D02*
X125962500Y-60693750D01*
X131512500Y-58293750D02*
X131512500Y-62893750D01*
X123712500Y-56193750D02*
X123712500Y-60593750D01*
X125212500Y-56093750D02*
X125212500Y-60693750D01*
X131212500Y-58293750D02*
X131212500Y-62893750D01*
X126412500Y-56093750D02*
X126412500Y-60693750D01*
X131062500Y-58293750D02*
X131062500Y-62893750D01*
X130612500Y-58293750D02*
X130612500Y-62893750D01*
X129137500Y-62918750D02*
X127862500Y-61893750D01*
X130312500Y-58293750D02*
X130312500Y-62893750D01*
X128962500Y-58193750D02*
X128962500Y-62743750D01*
X127912500Y-57443750D02*
X127912500Y-61893750D01*
X130012500Y-58293750D02*
X130012500Y-62893750D01*
X132412500Y-59043750D02*
X132412500Y-62193750D01*
D11*
X121512500Y-71342750D02*
X129312500Y-71342750D01*
D10*
X129562500Y-58293750D02*
X129562500Y-62843750D01*
X132712500Y-61893750D02*
X131687500Y-62918750D01*
X123112500Y-59718750D02*
G75*
G03*
X124112500Y-60718750I999999J-1D01*
G01*
X127574699Y-56771846D02*
G75*
G03*
X129712500Y-58268750I2137802J778098D01*
G01*
X124112500Y-56068750D02*
G75*
G03*
X123112500Y-57068750I-1J-999999D01*
G01*
X127862500Y-61893750D02*
G75*
G03*
X126687500Y-60718750I-1175002J-2D01*
G01*
X127574699Y-56771846D02*
G75*
G03*
X126713495Y-56069959I-900000J-225000D01*
G01*
D12*
X121012500Y-67658750D02*
X121012500Y-66642750D01*
X121012500Y-66642750D02*
X122020500Y-66642750D01*
X122020500Y-66642750D02*
X121012500Y-67658750D01*
G36*
X121012500Y-67658750D02*
G01*
X121012500Y-66642750D01*
X122020500Y-66642750D01*
X121012500Y-67658750D01*
G37*
X121012500Y-67658750D02*
X121012500Y-66642750D01*
X122020500Y-66642750D01*
X121012500Y-67658750D01*
D10*
X171312500Y-56093750D02*
X171312500Y-60693750D01*
X167912500Y-56393750D02*
X167912500Y-60343750D01*
X168762500Y-56093750D02*
X168762500Y-60693750D01*
X169062500Y-56093750D02*
X169062500Y-60693750D01*
X172812500Y-57843750D02*
X172812500Y-62243750D01*
D11*
X165462500Y-66642750D02*
X165462500Y-68293750D01*
D10*
X172062500Y-56893750D02*
X172062500Y-61043750D01*
X174612500Y-58293750D02*
X174612500Y-62893750D01*
X168012500Y-56293750D02*
X168012500Y-60493750D01*
X170712500Y-56093750D02*
X170712500Y-60693750D01*
X170562500Y-56093750D02*
X170562500Y-60693750D01*
X168312500Y-56143750D02*
X168312500Y-60643750D01*
X171612500Y-56243750D02*
X171612500Y-60793750D01*
X172662500Y-57743750D02*
X172662500Y-62143750D01*
X173862500Y-58243750D02*
X173862500Y-62893750D01*
X169812500Y-56093750D02*
X169812500Y-60693750D01*
X171862500Y-56493750D02*
X171862500Y-60893750D01*
X168612500Y-56093750D02*
X168612500Y-60693750D01*
X172962500Y-57943750D02*
X172962500Y-62393750D01*
X176412500Y-58543750D02*
X176412500Y-62643750D01*
X168562500Y-56068750D02*
X171162500Y-56068750D01*
X170112500Y-56093750D02*
X170112500Y-60693750D01*
X173112500Y-58043750D02*
X173112500Y-62493750D01*
X169512500Y-56093750D02*
X169512500Y-60693750D01*
X170262500Y-56093750D02*
X170262500Y-60693750D01*
X177162500Y-61893750D02*
X177162500Y-59293750D01*
X168562500Y-60718750D02*
X171137500Y-60718750D01*
X176262500Y-58443750D02*
X176262500Y-62793750D01*
X175362500Y-58293750D02*
X175362500Y-62893750D01*
X169362500Y-56093750D02*
X169362500Y-60693750D01*
X171012500Y-56093750D02*
X171012500Y-60643750D01*
X167812500Y-56493750D02*
X167812500Y-60243750D01*
X176112500Y-58293750D02*
X176112500Y-62893750D01*
X167712500Y-56643750D02*
X167712500Y-60193750D01*
X174312500Y-58293750D02*
X174312500Y-62893750D01*
X175212500Y-58293750D02*
X175212500Y-62893750D01*
X171162500Y-56093750D02*
X171162500Y-60693750D01*
X174162500Y-58293750D02*
X174162500Y-62893750D01*
X173262500Y-58093750D02*
X173262500Y-62643750D01*
X176562500Y-58693750D02*
X176562500Y-62493750D01*
X173562500Y-58243750D02*
X173562500Y-62843750D01*
X168912500Y-56093750D02*
X168912500Y-60693750D01*
X173587500Y-62918750D02*
X176137500Y-62918750D01*
X167562500Y-59718750D02*
X167562500Y-57068750D01*
X169962500Y-56093750D02*
X169962500Y-60693750D01*
X177162500Y-59293750D02*
X176137500Y-58268750D01*
X169212500Y-56093750D02*
X169212500Y-60693750D01*
X171462500Y-56143750D02*
X171462500Y-60693750D01*
X171762500Y-56343750D02*
X171762500Y-60843750D01*
X175812500Y-58293750D02*
X175812500Y-62893750D01*
X172512500Y-57593750D02*
X172512500Y-62043750D01*
X173712500Y-58243750D02*
X173712500Y-62893750D01*
X172162500Y-57093750D02*
X172162500Y-61243750D01*
D11*
X173762500Y-66642750D02*
X165462500Y-66642750D01*
D10*
X172262500Y-57243750D02*
X172262500Y-61393750D01*
X176712500Y-58843750D02*
X176712500Y-62343750D01*
X168462500Y-56093750D02*
X168462500Y-60643750D01*
X171962500Y-56743750D02*
X171962500Y-60943750D01*
X174162500Y-58268750D02*
X176137500Y-58268750D01*
X174912500Y-58293750D02*
X174912500Y-62893750D01*
X177012500Y-59143750D02*
X177012500Y-62043750D01*
X170412500Y-56093750D02*
X170412500Y-60693750D01*
X175962500Y-58293750D02*
X175962500Y-62893750D01*
X168162500Y-56193750D02*
X168162500Y-60593750D01*
X169662500Y-56093750D02*
X169662500Y-60693750D01*
X175662500Y-58293750D02*
X175662500Y-62893750D01*
X170862500Y-56093750D02*
X170862500Y-60693750D01*
X175512500Y-58293750D02*
X175512500Y-62893750D01*
X175062500Y-58293750D02*
X175062500Y-62893750D01*
X173587500Y-62918750D02*
X172312500Y-61893750D01*
X174762500Y-58293750D02*
X174762500Y-62893750D01*
X173412500Y-58193750D02*
X173412500Y-62743750D01*
X172362500Y-57443750D02*
X172362500Y-61893750D01*
X174462500Y-58293750D02*
X174462500Y-62893750D01*
X176862500Y-59043750D02*
X176862500Y-62193750D01*
D11*
X165962500Y-71342750D02*
X173762500Y-71342750D01*
D10*
X174012500Y-58293750D02*
X174012500Y-62843750D01*
X177162500Y-61893750D02*
X176137500Y-62918750D01*
X167562500Y-59718750D02*
G75*
G03*
X168562500Y-60718750I999999J-1D01*
G01*
X172024699Y-56771846D02*
G75*
G03*
X174162500Y-58268750I2137802J778098D01*
G01*
X168562500Y-56068750D02*
G75*
G03*
X167562500Y-57068750I-1J-999999D01*
G01*
X172312500Y-61893750D02*
G75*
G03*
X171137500Y-60718750I-1175002J-2D01*
G01*
X172024699Y-56771846D02*
G75*
G03*
X171163495Y-56069959I-900000J-225000D01*
G01*
D12*
X165462500Y-67658750D02*
X165462500Y-66642750D01*
X165462500Y-66642750D02*
X166470500Y-66642750D01*
X166470500Y-66642750D02*
X165462500Y-67658750D01*
G36*
X165462500Y-67658750D02*
G01*
X165462500Y-66642750D01*
X166470500Y-66642750D01*
X165462500Y-67658750D01*
G37*
X165462500Y-67658750D02*
X165462500Y-66642750D01*
X166470500Y-66642750D01*
X165462500Y-67658750D01*
D10*
X126862500Y-100543750D02*
X126862500Y-105143750D01*
X123462500Y-100843750D02*
X123462500Y-104793750D01*
X124312500Y-100543750D02*
X124312500Y-105143750D01*
X124612500Y-100543750D02*
X124612500Y-105143750D01*
X128362500Y-102293750D02*
X128362500Y-106693750D01*
D11*
X121012500Y-111092750D02*
X121012500Y-112743750D01*
D10*
X127612500Y-101343750D02*
X127612500Y-105493750D01*
X130162500Y-102743750D02*
X130162500Y-107343750D01*
X123562500Y-100743750D02*
X123562500Y-104943750D01*
X126262500Y-100543750D02*
X126262500Y-105143750D01*
X126112500Y-100543750D02*
X126112500Y-105143750D01*
X123862500Y-100593750D02*
X123862500Y-105093750D01*
X127162500Y-100693750D02*
X127162500Y-105243750D01*
X128212500Y-102193750D02*
X128212500Y-106593750D01*
X129412500Y-102693750D02*
X129412500Y-107343750D01*
X125362500Y-100543750D02*
X125362500Y-105143750D01*
X127412500Y-100943750D02*
X127412500Y-105343750D01*
X124162500Y-100543750D02*
X124162500Y-105143750D01*
X128512500Y-102393750D02*
X128512500Y-106843750D01*
X131962500Y-102993750D02*
X131962500Y-107093750D01*
X124112500Y-100518750D02*
X126712500Y-100518750D01*
X125662500Y-100543750D02*
X125662500Y-105143750D01*
X128662500Y-102493750D02*
X128662500Y-106943750D01*
X125062500Y-100543750D02*
X125062500Y-105143750D01*
X125812500Y-100543750D02*
X125812500Y-105143750D01*
X132712500Y-106343750D02*
X132712500Y-103743750D01*
X124112500Y-105168750D02*
X126687500Y-105168750D01*
X131812500Y-102893750D02*
X131812500Y-107243750D01*
X130912500Y-102743750D02*
X130912500Y-107343750D01*
X124912500Y-100543750D02*
X124912500Y-105143750D01*
X126562500Y-100543750D02*
X126562500Y-105093750D01*
X123362500Y-100943750D02*
X123362500Y-104693750D01*
X131662500Y-102743750D02*
X131662500Y-107343750D01*
X123262500Y-101093750D02*
X123262500Y-104643750D01*
X129862500Y-102743750D02*
X129862500Y-107343750D01*
X130762500Y-102743750D02*
X130762500Y-107343750D01*
X126712500Y-100543750D02*
X126712500Y-105143750D01*
X129712500Y-102743750D02*
X129712500Y-107343750D01*
X128812500Y-102543750D02*
X128812500Y-107093750D01*
X132112500Y-103143750D02*
X132112500Y-106943750D01*
X129112500Y-102693750D02*
X129112500Y-107293750D01*
X124462500Y-100543750D02*
X124462500Y-105143750D01*
X129137500Y-107368750D02*
X131687500Y-107368750D01*
X123112500Y-104168750D02*
X123112500Y-101518750D01*
X125512500Y-100543750D02*
X125512500Y-105143750D01*
X132712500Y-103743750D02*
X131687500Y-102718750D01*
X124762500Y-100543750D02*
X124762500Y-105143750D01*
X127012500Y-100593750D02*
X127012500Y-105143750D01*
X127312500Y-100793750D02*
X127312500Y-105293750D01*
X131362500Y-102743750D02*
X131362500Y-107343750D01*
X128062500Y-102043750D02*
X128062500Y-106493750D01*
X129262500Y-102693750D02*
X129262500Y-107343750D01*
X127712500Y-101543750D02*
X127712500Y-105693750D01*
D11*
X129312500Y-111092750D02*
X121012500Y-111092750D01*
D10*
X127812500Y-101693750D02*
X127812500Y-105843750D01*
X132262500Y-103293750D02*
X132262500Y-106793750D01*
X124012500Y-100543750D02*
X124012500Y-105093750D01*
X127512500Y-101193750D02*
X127512500Y-105393750D01*
X129712500Y-102718750D02*
X131687500Y-102718750D01*
X130462500Y-102743750D02*
X130462500Y-107343750D01*
X132562500Y-103593750D02*
X132562500Y-106493750D01*
X125962500Y-100543750D02*
X125962500Y-105143750D01*
X131512500Y-102743750D02*
X131512500Y-107343750D01*
X123712500Y-100643750D02*
X123712500Y-105043750D01*
X125212500Y-100543750D02*
X125212500Y-105143750D01*
X131212500Y-102743750D02*
X131212500Y-107343750D01*
X126412500Y-100543750D02*
X126412500Y-105143750D01*
X131062500Y-102743750D02*
X131062500Y-107343750D01*
X130612500Y-102743750D02*
X130612500Y-107343750D01*
X129137500Y-107368750D02*
X127862500Y-106343750D01*
X130312500Y-102743750D02*
X130312500Y-107343750D01*
X128962500Y-102643750D02*
X128962500Y-107193750D01*
X127912500Y-101893750D02*
X127912500Y-106343750D01*
X130012500Y-102743750D02*
X130012500Y-107343750D01*
X132412500Y-103493750D02*
X132412500Y-106643750D01*
D11*
X121512500Y-115792750D02*
X129312500Y-115792750D01*
D10*
X129562500Y-102743750D02*
X129562500Y-107293750D01*
X132712500Y-106343750D02*
X131687500Y-107368750D01*
X123112500Y-104168750D02*
G75*
G03*
X124112500Y-105168750I999999J-1D01*
G01*
X127574699Y-101221846D02*
G75*
G03*
X129712500Y-102718750I2137802J778098D01*
G01*
X124112500Y-100518750D02*
G75*
G03*
X123112500Y-101518750I-1J-999999D01*
G01*
X127862500Y-106343750D02*
G75*
G03*
X126687500Y-105168750I-1175002J-2D01*
G01*
X127574699Y-101221846D02*
G75*
G03*
X126713495Y-100519959I-900000J-225000D01*
G01*
D12*
X121012500Y-112108750D02*
X121012500Y-111092750D01*
X121012500Y-111092750D02*
X122020500Y-111092750D01*
X122020500Y-111092750D02*
X121012500Y-112108750D01*
G36*
X121012500Y-112108750D02*
G01*
X121012500Y-111092750D01*
X122020500Y-111092750D01*
X121012500Y-112108750D01*
G37*
X121012500Y-112108750D02*
X121012500Y-111092750D01*
X122020500Y-111092750D01*
X121012500Y-112108750D01*
D10*
X171312500Y-100543750D02*
X171312500Y-105143750D01*
X167912500Y-100843750D02*
X167912500Y-104793750D01*
X168762500Y-100543750D02*
X168762500Y-105143750D01*
X169062500Y-100543750D02*
X169062500Y-105143750D01*
X172812500Y-102293750D02*
X172812500Y-106693750D01*
D11*
X165462500Y-111092750D02*
X165462500Y-112743750D01*
D10*
X172062500Y-101343750D02*
X172062500Y-105493750D01*
X174612500Y-102743750D02*
X174612500Y-107343750D01*
X168012500Y-100743750D02*
X168012500Y-104943750D01*
X170712500Y-100543750D02*
X170712500Y-105143750D01*
X170562500Y-100543750D02*
X170562500Y-105143750D01*
X168312500Y-100593750D02*
X168312500Y-105093750D01*
X171612500Y-100693750D02*
X171612500Y-105243750D01*
X172662500Y-102193750D02*
X172662500Y-106593750D01*
X173862500Y-102693750D02*
X173862500Y-107343750D01*
X169812500Y-100543750D02*
X169812500Y-105143750D01*
X171862500Y-100943750D02*
X171862500Y-105343750D01*
X168612500Y-100543750D02*
X168612500Y-105143750D01*
X172962500Y-102393750D02*
X172962500Y-106843750D01*
X176412500Y-102993750D02*
X176412500Y-107093750D01*
X168562500Y-100518750D02*
X171162500Y-100518750D01*
X170112500Y-100543750D02*
X170112500Y-105143750D01*
X173112500Y-102493750D02*
X173112500Y-106943750D01*
X169512500Y-100543750D02*
X169512500Y-105143750D01*
X170262500Y-100543750D02*
X170262500Y-105143750D01*
X177162500Y-106343750D02*
X177162500Y-103743750D01*
X168562500Y-105168750D02*
X171137500Y-105168750D01*
X176262500Y-102893750D02*
X176262500Y-107243750D01*
X175362500Y-102743750D02*
X175362500Y-107343750D01*
X169362500Y-100543750D02*
X169362500Y-105143750D01*
X171012500Y-100543750D02*
X171012500Y-105093750D01*
X167812500Y-100943750D02*
X167812500Y-104693750D01*
X176112500Y-102743750D02*
X176112500Y-107343750D01*
X167712500Y-101093750D02*
X167712500Y-104643750D01*
X174312500Y-102743750D02*
X174312500Y-107343750D01*
X175212500Y-102743750D02*
X175212500Y-107343750D01*
X171162500Y-100543750D02*
X171162500Y-105143750D01*
X174162500Y-102743750D02*
X174162500Y-107343750D01*
X173262500Y-102543750D02*
X173262500Y-107093750D01*
X176562500Y-103143750D02*
X176562500Y-106943750D01*
X173562500Y-102693750D02*
X173562500Y-107293750D01*
X168912500Y-100543750D02*
X168912500Y-105143750D01*
X173587500Y-107368750D02*
X176137500Y-107368750D01*
X167562500Y-104168750D02*
X167562500Y-101518750D01*
X169962500Y-100543750D02*
X169962500Y-105143750D01*
X177162500Y-103743750D02*
X176137500Y-102718750D01*
X169212500Y-100543750D02*
X169212500Y-105143750D01*
X171462500Y-100593750D02*
X171462500Y-105143750D01*
X171762500Y-100793750D02*
X171762500Y-105293750D01*
X175812500Y-102743750D02*
X175812500Y-107343750D01*
X172512500Y-102043750D02*
X172512500Y-106493750D01*
X173712500Y-102693750D02*
X173712500Y-107343750D01*
X172162500Y-101543750D02*
X172162500Y-105693750D01*
D11*
X173762500Y-111092750D02*
X165462500Y-111092750D01*
D10*
X172262500Y-101693750D02*
X172262500Y-105843750D01*
X176712500Y-103293750D02*
X176712500Y-106793750D01*
X168462500Y-100543750D02*
X168462500Y-105093750D01*
X171962500Y-101193750D02*
X171962500Y-105393750D01*
X174162500Y-102718750D02*
X176137500Y-102718750D01*
X174912500Y-102743750D02*
X174912500Y-107343750D01*
X177012500Y-103593750D02*
X177012500Y-106493750D01*
X170412500Y-100543750D02*
X170412500Y-105143750D01*
X175962500Y-102743750D02*
X175962500Y-107343750D01*
X168162500Y-100643750D02*
X168162500Y-105043750D01*
X169662500Y-100543750D02*
X169662500Y-105143750D01*
X175662500Y-102743750D02*
X175662500Y-107343750D01*
X170862500Y-100543750D02*
X170862500Y-105143750D01*
X175512500Y-102743750D02*
X175512500Y-107343750D01*
X175062500Y-102743750D02*
X175062500Y-107343750D01*
X173587500Y-107368750D02*
X172312500Y-106343750D01*
X174762500Y-102743750D02*
X174762500Y-107343750D01*
X173412500Y-102643750D02*
X173412500Y-107193750D01*
X172362500Y-101893750D02*
X172362500Y-106343750D01*
X174462500Y-102743750D02*
X174462500Y-107343750D01*
X176862500Y-103493750D02*
X176862500Y-106643750D01*
D11*
X165962500Y-115792750D02*
X173762500Y-115792750D01*
D10*
X174012500Y-102743750D02*
X174012500Y-107293750D01*
X177162500Y-106343750D02*
X176137500Y-107368750D01*
X167562500Y-104168750D02*
G75*
G03*
X168562500Y-105168750I999999J-1D01*
G01*
X172024699Y-101221846D02*
G75*
G03*
X174162500Y-102718750I2137802J778098D01*
G01*
X168562500Y-100518750D02*
G75*
G03*
X167562500Y-101518750I-1J-999999D01*
G01*
X172312500Y-106343750D02*
G75*
G03*
X171137500Y-105168750I-1175002J-2D01*
G01*
X172024699Y-101221846D02*
G75*
G03*
X171163495Y-100519959I-900000J-225000D01*
G01*
D12*
X165462500Y-112108750D02*
X165462500Y-111092750D01*
X165462500Y-111092750D02*
X166470500Y-111092750D01*
X166470500Y-111092750D02*
X165462500Y-112108750D01*
G36*
X165462500Y-112108750D02*
G01*
X165462500Y-111092750D01*
X166470500Y-111092750D01*
X165462500Y-112108750D01*
G37*
X165462500Y-112108750D02*
X165462500Y-111092750D01*
X166470500Y-111092750D01*
X165462500Y-112108750D01*
D10*
X104637500Y-78318750D02*
X104637500Y-82918750D01*
X101237500Y-78618750D02*
X101237500Y-82568750D01*
X102087500Y-78318750D02*
X102087500Y-82918750D01*
X102387500Y-78318750D02*
X102387500Y-82918750D01*
X106137500Y-80068750D02*
X106137500Y-84468750D01*
D11*
X98787500Y-88867750D02*
X98787500Y-90518750D01*
D10*
X105387500Y-79118750D02*
X105387500Y-83268750D01*
X107937500Y-80518750D02*
X107937500Y-85118750D01*
X101337500Y-78518750D02*
X101337500Y-82718750D01*
X104037500Y-78318750D02*
X104037500Y-82918750D01*
X103887500Y-78318750D02*
X103887500Y-82918750D01*
X101637500Y-78368750D02*
X101637500Y-82868750D01*
X104937500Y-78468750D02*
X104937500Y-83018750D01*
X105987500Y-79968750D02*
X105987500Y-84368750D01*
X107187500Y-80468750D02*
X107187500Y-85118750D01*
X103137500Y-78318750D02*
X103137500Y-82918750D01*
X105187500Y-78718750D02*
X105187500Y-83118750D01*
X101937500Y-78318750D02*
X101937500Y-82918750D01*
X106287500Y-80168750D02*
X106287500Y-84618750D01*
X109737500Y-80768750D02*
X109737500Y-84868750D01*
X101887500Y-78293750D02*
X104487500Y-78293750D01*
X103437500Y-78318750D02*
X103437500Y-82918750D01*
X106437500Y-80268750D02*
X106437500Y-84718750D01*
X102837500Y-78318750D02*
X102837500Y-82918750D01*
X103587500Y-78318750D02*
X103587500Y-82918750D01*
X110487500Y-84118750D02*
X110487500Y-81518750D01*
X101887500Y-82943750D02*
X104462500Y-82943750D01*
X109587500Y-80668750D02*
X109587500Y-85018750D01*
X108687500Y-80518750D02*
X108687500Y-85118750D01*
X102687500Y-78318750D02*
X102687500Y-82918750D01*
X104337500Y-78318750D02*
X104337500Y-82868750D01*
X101137500Y-78718750D02*
X101137500Y-82468750D01*
X109437500Y-80518750D02*
X109437500Y-85118750D01*
X101037500Y-78868750D02*
X101037500Y-82418750D01*
X107637500Y-80518750D02*
X107637500Y-85118750D01*
X108537500Y-80518750D02*
X108537500Y-85118750D01*
X104487500Y-78318750D02*
X104487500Y-82918750D01*
X107487500Y-80518750D02*
X107487500Y-85118750D01*
X106587500Y-80318750D02*
X106587500Y-84868750D01*
X109887500Y-80918750D02*
X109887500Y-84718750D01*
X106887500Y-80468750D02*
X106887500Y-85068750D01*
X102237500Y-78318750D02*
X102237500Y-82918750D01*
X106912500Y-85143750D02*
X109462500Y-85143750D01*
X100887500Y-81943750D02*
X100887500Y-79293750D01*
X103287500Y-78318750D02*
X103287500Y-82918750D01*
X110487500Y-81518750D02*
X109462500Y-80493750D01*
X102537500Y-78318750D02*
X102537500Y-82918750D01*
X104787500Y-78368750D02*
X104787500Y-82918750D01*
X105087500Y-78568750D02*
X105087500Y-83068750D01*
X109137500Y-80518750D02*
X109137500Y-85118750D01*
X105837500Y-79818750D02*
X105837500Y-84268750D01*
X107037500Y-80468750D02*
X107037500Y-85118750D01*
X105487500Y-79318750D02*
X105487500Y-83468750D01*
D11*
X107087500Y-88867750D02*
X98787500Y-88867750D01*
D10*
X105587500Y-79468750D02*
X105587500Y-83618750D01*
X110037500Y-81068750D02*
X110037500Y-84568750D01*
X101787500Y-78318750D02*
X101787500Y-82868750D01*
X105287500Y-78968750D02*
X105287500Y-83168750D01*
X107487500Y-80493750D02*
X109462500Y-80493750D01*
X108237500Y-80518750D02*
X108237500Y-85118750D01*
X110337500Y-81368750D02*
X110337500Y-84268750D01*
X103737500Y-78318750D02*
X103737500Y-82918750D01*
X109287500Y-80518750D02*
X109287500Y-85118750D01*
X101487500Y-78418750D02*
X101487500Y-82818750D01*
X102987500Y-78318750D02*
X102987500Y-82918750D01*
X108987500Y-80518750D02*
X108987500Y-85118750D01*
X104187500Y-78318750D02*
X104187500Y-82918750D01*
X108837500Y-80518750D02*
X108837500Y-85118750D01*
X108387500Y-80518750D02*
X108387500Y-85118750D01*
X106912500Y-85143750D02*
X105637500Y-84118750D01*
X108087500Y-80518750D02*
X108087500Y-85118750D01*
X106737500Y-80418750D02*
X106737500Y-84968750D01*
X105687500Y-79668750D02*
X105687500Y-84118750D01*
X107787500Y-80518750D02*
X107787500Y-85118750D01*
X110187500Y-81268750D02*
X110187500Y-84418750D01*
D11*
X99287500Y-93567750D02*
X107087500Y-93567750D01*
D10*
X107337500Y-80518750D02*
X107337500Y-85068750D01*
X110487500Y-84118750D02*
X109462500Y-85143750D01*
X100887500Y-81943750D02*
G75*
G03*
X101887500Y-82943750I999999J-1D01*
G01*
X105349699Y-78996846D02*
G75*
G03*
X107487500Y-80493750I2137802J778098D01*
G01*
X101887500Y-78293750D02*
G75*
G03*
X100887500Y-79293750I-1J-999999D01*
G01*
X105637500Y-84118750D02*
G75*
G03*
X104462500Y-82943750I-1175002J-2D01*
G01*
X105349699Y-78996846D02*
G75*
G03*
X104488495Y-78294959I-900000J-225000D01*
G01*
D12*
X98787500Y-89883750D02*
X98787500Y-88867750D01*
X98787500Y-88867750D02*
X99795500Y-88867750D01*
X99795500Y-88867750D02*
X98787500Y-89883750D01*
G36*
X98787500Y-89883750D02*
G01*
X98787500Y-88867750D01*
X99795500Y-88867750D01*
X98787500Y-89883750D01*
G37*
X98787500Y-89883750D02*
X98787500Y-88867750D01*
X99795500Y-88867750D01*
X98787500Y-89883750D01*
D10*
X149087500Y-56093750D02*
X149087500Y-60693750D01*
X145687500Y-56393750D02*
X145687500Y-60343750D01*
X146537500Y-56093750D02*
X146537500Y-60693750D01*
X146837500Y-56093750D02*
X146837500Y-60693750D01*
X150587500Y-57843750D02*
X150587500Y-62243750D01*
D11*
X143237500Y-66642750D02*
X143237500Y-68293750D01*
D10*
X149837500Y-56893750D02*
X149837500Y-61043750D01*
X152387500Y-58293750D02*
X152387500Y-62893750D01*
X145787500Y-56293750D02*
X145787500Y-60493750D01*
X148487500Y-56093750D02*
X148487500Y-60693750D01*
X148337500Y-56093750D02*
X148337500Y-60693750D01*
X146087500Y-56143750D02*
X146087500Y-60643750D01*
X149387500Y-56243750D02*
X149387500Y-60793750D01*
X150437500Y-57743750D02*
X150437500Y-62143750D01*
X151637500Y-58243750D02*
X151637500Y-62893750D01*
X147587500Y-56093750D02*
X147587500Y-60693750D01*
X149637500Y-56493750D02*
X149637500Y-60893750D01*
X146387500Y-56093750D02*
X146387500Y-60693750D01*
X150737500Y-57943750D02*
X150737500Y-62393750D01*
X154187500Y-58543750D02*
X154187500Y-62643750D01*
X146337500Y-56068750D02*
X148937500Y-56068750D01*
X147887500Y-56093750D02*
X147887500Y-60693750D01*
X150887500Y-58043750D02*
X150887500Y-62493750D01*
X147287500Y-56093750D02*
X147287500Y-60693750D01*
X148037500Y-56093750D02*
X148037500Y-60693750D01*
X154937500Y-61893750D02*
X154937500Y-59293750D01*
X146337500Y-60718750D02*
X148912500Y-60718750D01*
X154037500Y-58443750D02*
X154037500Y-62793750D01*
X153137500Y-58293750D02*
X153137500Y-62893750D01*
X147137500Y-56093750D02*
X147137500Y-60693750D01*
X148787500Y-56093750D02*
X148787500Y-60643750D01*
X145587500Y-56493750D02*
X145587500Y-60243750D01*
X153887500Y-58293750D02*
X153887500Y-62893750D01*
X145487500Y-56643750D02*
X145487500Y-60193750D01*
X152087500Y-58293750D02*
X152087500Y-62893750D01*
X152987500Y-58293750D02*
X152987500Y-62893750D01*
X148937500Y-56093750D02*
X148937500Y-60693750D01*
X151937500Y-58293750D02*
X151937500Y-62893750D01*
X151037500Y-58093750D02*
X151037500Y-62643750D01*
X154337500Y-58693750D02*
X154337500Y-62493750D01*
X151337500Y-58243750D02*
X151337500Y-62843750D01*
X146687500Y-56093750D02*
X146687500Y-60693750D01*
X151362500Y-62918750D02*
X153912500Y-62918750D01*
X145337500Y-59718750D02*
X145337500Y-57068750D01*
X147737500Y-56093750D02*
X147737500Y-60693750D01*
X154937500Y-59293750D02*
X153912500Y-58268750D01*
X146987500Y-56093750D02*
X146987500Y-60693750D01*
X149237500Y-56143750D02*
X149237500Y-60693750D01*
X149537500Y-56343750D02*
X149537500Y-60843750D01*
X153587500Y-58293750D02*
X153587500Y-62893750D01*
X150287500Y-57593750D02*
X150287500Y-62043750D01*
X151487500Y-58243750D02*
X151487500Y-62893750D01*
X149937500Y-57093750D02*
X149937500Y-61243750D01*
D11*
X151537500Y-66642750D02*
X143237500Y-66642750D01*
D10*
X150037500Y-57243750D02*
X150037500Y-61393750D01*
X154487500Y-58843750D02*
X154487500Y-62343750D01*
X146237500Y-56093750D02*
X146237500Y-60643750D01*
X149737500Y-56743750D02*
X149737500Y-60943750D01*
X151937500Y-58268750D02*
X153912500Y-58268750D01*
X152687500Y-58293750D02*
X152687500Y-62893750D01*
X154787500Y-59143750D02*
X154787500Y-62043750D01*
X148187500Y-56093750D02*
X148187500Y-60693750D01*
X153737500Y-58293750D02*
X153737500Y-62893750D01*
X145937500Y-56193750D02*
X145937500Y-60593750D01*
X147437500Y-56093750D02*
X147437500Y-60693750D01*
X153437500Y-58293750D02*
X153437500Y-62893750D01*
X148637500Y-56093750D02*
X148637500Y-60693750D01*
X153287500Y-58293750D02*
X153287500Y-62893750D01*
X152837500Y-58293750D02*
X152837500Y-62893750D01*
X151362500Y-62918750D02*
X150087500Y-61893750D01*
X152537500Y-58293750D02*
X152537500Y-62893750D01*
X151187500Y-58193750D02*
X151187500Y-62743750D01*
X150137500Y-57443750D02*
X150137500Y-61893750D01*
X152237500Y-58293750D02*
X152237500Y-62893750D01*
X154637500Y-59043750D02*
X154637500Y-62193750D01*
D11*
X143737500Y-71342750D02*
X151537500Y-71342750D01*
D10*
X151787500Y-58293750D02*
X151787500Y-62843750D01*
X154937500Y-61893750D02*
X153912500Y-62918750D01*
X145337500Y-59718750D02*
G75*
G03*
X146337500Y-60718750I999999J-1D01*
G01*
X149799699Y-56771846D02*
G75*
G03*
X151937500Y-58268750I2137802J778098D01*
G01*
X146337500Y-56068750D02*
G75*
G03*
X145337500Y-57068750I-1J-999999D01*
G01*
X150087500Y-61893750D02*
G75*
G03*
X148912500Y-60718750I-1175002J-2D01*
G01*
X149799699Y-56771846D02*
G75*
G03*
X148938495Y-56069959I-900000J-225000D01*
G01*
D12*
X143237500Y-67658750D02*
X143237500Y-66642750D01*
X143237500Y-66642750D02*
X144245500Y-66642750D01*
X144245500Y-66642750D02*
X143237500Y-67658750D01*
G36*
X143237500Y-67658750D02*
G01*
X143237500Y-66642750D01*
X144245500Y-66642750D01*
X143237500Y-67658750D01*
G37*
X143237500Y-67658750D02*
X143237500Y-66642750D01*
X144245500Y-66642750D01*
X143237500Y-67658750D01*
D10*
X193537500Y-100543750D02*
X193537500Y-105143750D01*
X190137500Y-100843750D02*
X190137500Y-104793750D01*
X190987500Y-100543750D02*
X190987500Y-105143750D01*
X191287500Y-100543750D02*
X191287500Y-105143750D01*
X195037500Y-102293750D02*
X195037500Y-106693750D01*
D11*
X187687500Y-111092750D02*
X187687500Y-112743750D01*
D10*
X194287500Y-101343750D02*
X194287500Y-105493750D01*
X196837500Y-102743750D02*
X196837500Y-107343750D01*
X190237500Y-100743750D02*
X190237500Y-104943750D01*
X192937500Y-100543750D02*
X192937500Y-105143750D01*
X192787500Y-100543750D02*
X192787500Y-105143750D01*
X190537500Y-100593750D02*
X190537500Y-105093750D01*
X193837500Y-100693750D02*
X193837500Y-105243750D01*
X194887500Y-102193750D02*
X194887500Y-106593750D01*
X196087500Y-102693750D02*
X196087500Y-107343750D01*
X192037500Y-100543750D02*
X192037500Y-105143750D01*
X194087500Y-100943750D02*
X194087500Y-105343750D01*
X190837500Y-100543750D02*
X190837500Y-105143750D01*
X195187500Y-102393750D02*
X195187500Y-106843750D01*
X198637500Y-102993750D02*
X198637500Y-107093750D01*
X190787500Y-100518750D02*
X193387500Y-100518750D01*
X192337500Y-100543750D02*
X192337500Y-105143750D01*
X195337500Y-102493750D02*
X195337500Y-106943750D01*
X191737500Y-100543750D02*
X191737500Y-105143750D01*
X192487500Y-100543750D02*
X192487500Y-105143750D01*
X199387500Y-106343750D02*
X199387500Y-103743750D01*
X190787500Y-105168750D02*
X193362500Y-105168750D01*
X198487500Y-102893750D02*
X198487500Y-107243750D01*
X197587500Y-102743750D02*
X197587500Y-107343750D01*
X191587500Y-100543750D02*
X191587500Y-105143750D01*
X193237500Y-100543750D02*
X193237500Y-105093750D01*
X190037500Y-100943750D02*
X190037500Y-104693750D01*
X198337500Y-102743750D02*
X198337500Y-107343750D01*
X189937500Y-101093750D02*
X189937500Y-104643750D01*
X196537500Y-102743750D02*
X196537500Y-107343750D01*
X197437500Y-102743750D02*
X197437500Y-107343750D01*
X193387500Y-100543750D02*
X193387500Y-105143750D01*
X196387500Y-102743750D02*
X196387500Y-107343750D01*
X195487500Y-102543750D02*
X195487500Y-107093750D01*
X198787500Y-103143750D02*
X198787500Y-106943750D01*
X195787500Y-102693750D02*
X195787500Y-107293750D01*
X191137500Y-100543750D02*
X191137500Y-105143750D01*
X195812500Y-107368750D02*
X198362500Y-107368750D01*
X189787500Y-104168750D02*
X189787500Y-101518750D01*
X192187500Y-100543750D02*
X192187500Y-105143750D01*
X199387500Y-103743750D02*
X198362500Y-102718750D01*
X191437500Y-100543750D02*
X191437500Y-105143750D01*
X193687500Y-100593750D02*
X193687500Y-105143750D01*
X193987500Y-100793750D02*
X193987500Y-105293750D01*
X198037500Y-102743750D02*
X198037500Y-107343750D01*
X194737500Y-102043750D02*
X194737500Y-106493750D01*
X195937500Y-102693750D02*
X195937500Y-107343750D01*
X194387500Y-101543750D02*
X194387500Y-105693750D01*
D11*
X195987500Y-111092750D02*
X187687500Y-111092750D01*
D10*
X194487500Y-101693750D02*
X194487500Y-105843750D01*
X198937500Y-103293750D02*
X198937500Y-106793750D01*
X190687500Y-100543750D02*
X190687500Y-105093750D01*
X194187500Y-101193750D02*
X194187500Y-105393750D01*
X196387500Y-102718750D02*
X198362500Y-102718750D01*
X197137500Y-102743750D02*
X197137500Y-107343750D01*
X199237500Y-103593750D02*
X199237500Y-106493750D01*
X192637500Y-100543750D02*
X192637500Y-105143750D01*
X198187500Y-102743750D02*
X198187500Y-107343750D01*
X190387500Y-100643750D02*
X190387500Y-105043750D01*
X191887500Y-100543750D02*
X191887500Y-105143750D01*
X197887500Y-102743750D02*
X197887500Y-107343750D01*
X193087500Y-100543750D02*
X193087500Y-105143750D01*
X197737500Y-102743750D02*
X197737500Y-107343750D01*
X197287500Y-102743750D02*
X197287500Y-107343750D01*
X195812500Y-107368750D02*
X194537500Y-106343750D01*
X196987500Y-102743750D02*
X196987500Y-107343750D01*
X195637500Y-102643750D02*
X195637500Y-107193750D01*
X194587500Y-101893750D02*
X194587500Y-106343750D01*
X196687500Y-102743750D02*
X196687500Y-107343750D01*
X199087500Y-103493750D02*
X199087500Y-106643750D01*
D11*
X188187500Y-115792750D02*
X195987500Y-115792750D01*
D10*
X196237500Y-102743750D02*
X196237500Y-107293750D01*
X199387500Y-106343750D02*
X198362500Y-107368750D01*
X189787500Y-104168750D02*
G75*
G03*
X190787500Y-105168750I999999J-1D01*
G01*
X194249699Y-101221846D02*
G75*
G03*
X196387500Y-102718750I2137802J778098D01*
G01*
X190787500Y-100518750D02*
G75*
G03*
X189787500Y-101518750I-1J-999999D01*
G01*
X194537500Y-106343750D02*
G75*
G03*
X193362500Y-105168750I-1175002J-2D01*
G01*
X194249699Y-101221846D02*
G75*
G03*
X193388495Y-100519959I-900000J-225000D01*
G01*
D12*
X187687500Y-112108750D02*
X187687500Y-111092750D01*
X187687500Y-111092750D02*
X188695500Y-111092750D01*
X188695500Y-111092750D02*
X187687500Y-112108750D01*
G36*
X187687500Y-112108750D02*
G01*
X187687500Y-111092750D01*
X188695500Y-111092750D01*
X187687500Y-112108750D01*
G37*
X187687500Y-112108750D02*
X187687500Y-111092750D01*
X188695500Y-111092750D01*
X187687500Y-112108750D01*
D10*
X104637500Y-56093750D02*
X104637500Y-60693750D01*
X101237500Y-56393750D02*
X101237500Y-60343750D01*
X102087500Y-56093750D02*
X102087500Y-60693750D01*
X102387500Y-56093750D02*
X102387500Y-60693750D01*
X106137500Y-57843750D02*
X106137500Y-62243750D01*
D11*
X98787500Y-66642750D02*
X98787500Y-68293750D01*
D10*
X105387500Y-56893750D02*
X105387500Y-61043750D01*
X107937500Y-58293750D02*
X107937500Y-62893750D01*
X101337500Y-56293750D02*
X101337500Y-60493750D01*
X104037500Y-56093750D02*
X104037500Y-60693750D01*
X103887500Y-56093750D02*
X103887500Y-60693750D01*
X101637500Y-56143750D02*
X101637500Y-60643750D01*
X104937500Y-56243750D02*
X104937500Y-60793750D01*
X105987500Y-57743750D02*
X105987500Y-62143750D01*
X107187500Y-58243750D02*
X107187500Y-62893750D01*
X103137500Y-56093750D02*
X103137500Y-60693750D01*
X105187500Y-56493750D02*
X105187500Y-60893750D01*
X101937500Y-56093750D02*
X101937500Y-60693750D01*
X106287500Y-57943750D02*
X106287500Y-62393750D01*
X109737500Y-58543750D02*
X109737500Y-62643750D01*
X101887500Y-56068750D02*
X104487500Y-56068750D01*
X103437500Y-56093750D02*
X103437500Y-60693750D01*
X106437500Y-58043750D02*
X106437500Y-62493750D01*
X102837500Y-56093750D02*
X102837500Y-60693750D01*
X103587500Y-56093750D02*
X103587500Y-60693750D01*
X110487500Y-61893750D02*
X110487500Y-59293750D01*
X101887500Y-60718750D02*
X104462500Y-60718750D01*
X109587500Y-58443750D02*
X109587500Y-62793750D01*
X108687500Y-58293750D02*
X108687500Y-62893750D01*
X102687500Y-56093750D02*
X102687500Y-60693750D01*
X104337500Y-56093750D02*
X104337500Y-60643750D01*
X101137500Y-56493750D02*
X101137500Y-60243750D01*
X109437500Y-58293750D02*
X109437500Y-62893750D01*
X101037500Y-56643750D02*
X101037500Y-60193750D01*
X107637500Y-58293750D02*
X107637500Y-62893750D01*
X108537500Y-58293750D02*
X108537500Y-62893750D01*
X104487500Y-56093750D02*
X104487500Y-60693750D01*
X107487500Y-58293750D02*
X107487500Y-62893750D01*
X106587500Y-58093750D02*
X106587500Y-62643750D01*
X109887500Y-58693750D02*
X109887500Y-62493750D01*
X106887500Y-58243750D02*
X106887500Y-62843750D01*
X102237500Y-56093750D02*
X102237500Y-60693750D01*
X106912500Y-62918750D02*
X109462500Y-62918750D01*
X100887500Y-59718750D02*
X100887500Y-57068750D01*
X103287500Y-56093750D02*
X103287500Y-60693750D01*
X110487500Y-59293750D02*
X109462500Y-58268750D01*
X102537500Y-56093750D02*
X102537500Y-60693750D01*
X104787500Y-56143750D02*
X104787500Y-60693750D01*
X105087500Y-56343750D02*
X105087500Y-60843750D01*
X109137500Y-58293750D02*
X109137500Y-62893750D01*
X105837500Y-57593750D02*
X105837500Y-62043750D01*
X107037500Y-58243750D02*
X107037500Y-62893750D01*
X105487500Y-57093750D02*
X105487500Y-61243750D01*
D11*
X107087500Y-66642750D02*
X98787500Y-66642750D01*
D10*
X105587500Y-57243750D02*
X105587500Y-61393750D01*
X110037500Y-58843750D02*
X110037500Y-62343750D01*
X101787500Y-56093750D02*
X101787500Y-60643750D01*
X105287500Y-56743750D02*
X105287500Y-60943750D01*
X107487500Y-58268750D02*
X109462500Y-58268750D01*
X108237500Y-58293750D02*
X108237500Y-62893750D01*
X110337500Y-59143750D02*
X110337500Y-62043750D01*
X103737500Y-56093750D02*
X103737500Y-60693750D01*
X109287500Y-58293750D02*
X109287500Y-62893750D01*
X101487500Y-56193750D02*
X101487500Y-60593750D01*
X102987500Y-56093750D02*
X102987500Y-60693750D01*
X108987500Y-58293750D02*
X108987500Y-62893750D01*
X104187500Y-56093750D02*
X104187500Y-60693750D01*
X108837500Y-58293750D02*
X108837500Y-62893750D01*
X108387500Y-58293750D02*
X108387500Y-62893750D01*
X106912500Y-62918750D02*
X105637500Y-61893750D01*
X108087500Y-58293750D02*
X108087500Y-62893750D01*
X106737500Y-58193750D02*
X106737500Y-62743750D01*
X105687500Y-57443750D02*
X105687500Y-61893750D01*
X107787500Y-58293750D02*
X107787500Y-62893750D01*
X110187500Y-59043750D02*
X110187500Y-62193750D01*
D11*
X99287500Y-71342750D02*
X107087500Y-71342750D01*
D10*
X107337500Y-58293750D02*
X107337500Y-62843750D01*
X110487500Y-61893750D02*
X109462500Y-62918750D01*
X100887500Y-59718750D02*
G75*
G03*
X101887500Y-60718750I999999J-1D01*
G01*
X105349699Y-56771846D02*
G75*
G03*
X107487500Y-58268750I2137802J778098D01*
G01*
X101887500Y-56068750D02*
G75*
G03*
X100887500Y-57068750I-1J-999999D01*
G01*
X105637500Y-61893750D02*
G75*
G03*
X104462500Y-60718750I-1175002J-2D01*
G01*
X105349699Y-56771846D02*
G75*
G03*
X104488495Y-56069959I-900000J-225000D01*
G01*
D12*
X98787500Y-67658750D02*
X98787500Y-66642750D01*
X98787500Y-66642750D02*
X99795500Y-66642750D01*
X99795500Y-66642750D02*
X98787500Y-67658750D01*
G36*
X98787500Y-67658750D02*
G01*
X98787500Y-66642750D01*
X99795500Y-66642750D01*
X98787500Y-67658750D01*
G37*
X98787500Y-67658750D02*
X98787500Y-66642750D01*
X99795500Y-66642750D01*
X98787500Y-67658750D01*
D10*
X126862500Y-78318750D02*
X126862500Y-82918750D01*
X123462500Y-78618750D02*
X123462500Y-82568750D01*
X124312500Y-78318750D02*
X124312500Y-82918750D01*
X124612500Y-78318750D02*
X124612500Y-82918750D01*
X128362500Y-80068750D02*
X128362500Y-84468750D01*
D11*
X121012500Y-88867750D02*
X121012500Y-90518750D01*
D10*
X127612500Y-79118750D02*
X127612500Y-83268750D01*
X130162500Y-80518750D02*
X130162500Y-85118750D01*
X123562500Y-78518750D02*
X123562500Y-82718750D01*
X126262500Y-78318750D02*
X126262500Y-82918750D01*
X126112500Y-78318750D02*
X126112500Y-82918750D01*
X123862500Y-78368750D02*
X123862500Y-82868750D01*
X127162500Y-78468750D02*
X127162500Y-83018750D01*
X128212500Y-79968750D02*
X128212500Y-84368750D01*
X129412500Y-80468750D02*
X129412500Y-85118750D01*
X125362500Y-78318750D02*
X125362500Y-82918750D01*
X127412500Y-78718750D02*
X127412500Y-83118750D01*
X124162500Y-78318750D02*
X124162500Y-82918750D01*
X128512500Y-80168750D02*
X128512500Y-84618750D01*
X131962500Y-80768750D02*
X131962500Y-84868750D01*
X124112500Y-78293750D02*
X126712500Y-78293750D01*
X125662500Y-78318750D02*
X125662500Y-82918750D01*
X128662500Y-80268750D02*
X128662500Y-84718750D01*
X125062500Y-78318750D02*
X125062500Y-82918750D01*
X125812500Y-78318750D02*
X125812500Y-82918750D01*
X132712500Y-84118750D02*
X132712500Y-81518750D01*
X124112500Y-82943750D02*
X126687500Y-82943750D01*
X131812500Y-80668750D02*
X131812500Y-85018750D01*
X130912500Y-80518750D02*
X130912500Y-85118750D01*
X124912500Y-78318750D02*
X124912500Y-82918750D01*
X126562500Y-78318750D02*
X126562500Y-82868750D01*
X123362500Y-78718750D02*
X123362500Y-82468750D01*
X131662500Y-80518750D02*
X131662500Y-85118750D01*
X123262500Y-78868750D02*
X123262500Y-82418750D01*
X129862500Y-80518750D02*
X129862500Y-85118750D01*
X130762500Y-80518750D02*
X130762500Y-85118750D01*
X126712500Y-78318750D02*
X126712500Y-82918750D01*
X129712500Y-80518750D02*
X129712500Y-85118750D01*
X128812500Y-80318750D02*
X128812500Y-84868750D01*
X132112500Y-80918750D02*
X132112500Y-84718750D01*
X129112500Y-80468750D02*
X129112500Y-85068750D01*
X124462500Y-78318750D02*
X124462500Y-82918750D01*
X129137500Y-85143750D02*
X131687500Y-85143750D01*
X123112500Y-81943750D02*
X123112500Y-79293750D01*
X125512500Y-78318750D02*
X125512500Y-82918750D01*
X132712500Y-81518750D02*
X131687500Y-80493750D01*
X124762500Y-78318750D02*
X124762500Y-82918750D01*
X127012500Y-78368750D02*
X127012500Y-82918750D01*
X127312500Y-78568750D02*
X127312500Y-83068750D01*
X131362500Y-80518750D02*
X131362500Y-85118750D01*
X128062500Y-79818750D02*
X128062500Y-84268750D01*
X129262500Y-80468750D02*
X129262500Y-85118750D01*
X127712500Y-79318750D02*
X127712500Y-83468750D01*
D11*
X129312500Y-88867750D02*
X121012500Y-88867750D01*
D10*
X127812500Y-79468750D02*
X127812500Y-83618750D01*
X132262500Y-81068750D02*
X132262500Y-84568750D01*
X124012500Y-78318750D02*
X124012500Y-82868750D01*
X127512500Y-78968750D02*
X127512500Y-83168750D01*
X129712500Y-80493750D02*
X131687500Y-80493750D01*
X130462500Y-80518750D02*
X130462500Y-85118750D01*
X132562500Y-81368750D02*
X132562500Y-84268750D01*
X125962500Y-78318750D02*
X125962500Y-82918750D01*
X131512500Y-80518750D02*
X131512500Y-85118750D01*
X123712500Y-78418750D02*
X123712500Y-82818750D01*
X125212500Y-78318750D02*
X125212500Y-82918750D01*
X131212500Y-80518750D02*
X131212500Y-85118750D01*
X126412500Y-78318750D02*
X126412500Y-82918750D01*
X131062500Y-80518750D02*
X131062500Y-85118750D01*
X130612500Y-80518750D02*
X130612500Y-85118750D01*
X129137500Y-85143750D02*
X127862500Y-84118750D01*
X130312500Y-80518750D02*
X130312500Y-85118750D01*
X128962500Y-80418750D02*
X128962500Y-84968750D01*
X127912500Y-79668750D02*
X127912500Y-84118750D01*
X130012500Y-80518750D02*
X130012500Y-85118750D01*
X132412500Y-81268750D02*
X132412500Y-84418750D01*
D11*
X121512500Y-93567750D02*
X129312500Y-93567750D01*
D10*
X129562500Y-80518750D02*
X129562500Y-85068750D01*
X132712500Y-84118750D02*
X131687500Y-85143750D01*
X123112500Y-81943750D02*
G75*
G03*
X124112500Y-82943750I999999J-1D01*
G01*
X127574699Y-78996846D02*
G75*
G03*
X129712500Y-80493750I2137802J778098D01*
G01*
X124112500Y-78293750D02*
G75*
G03*
X123112500Y-79293750I-1J-999999D01*
G01*
X127862500Y-84118750D02*
G75*
G03*
X126687500Y-82943750I-1175002J-2D01*
G01*
X127574699Y-78996846D02*
G75*
G03*
X126713495Y-78294959I-900000J-225000D01*
G01*
D12*
X121012500Y-89883750D02*
X121012500Y-88867750D01*
X121012500Y-88867750D02*
X122020500Y-88867750D01*
X122020500Y-88867750D02*
X121012500Y-89883750D01*
G36*
X121012500Y-89883750D02*
G01*
X121012500Y-88867750D01*
X122020500Y-88867750D01*
X121012500Y-89883750D01*
G37*
X121012500Y-89883750D02*
X121012500Y-88867750D01*
X122020500Y-88867750D01*
X121012500Y-89883750D01*
D10*
X171312500Y-78318750D02*
X171312500Y-82918750D01*
X167912500Y-78618750D02*
X167912500Y-82568750D01*
X168762500Y-78318750D02*
X168762500Y-82918750D01*
X169062500Y-78318750D02*
X169062500Y-82918750D01*
X172812500Y-80068750D02*
X172812500Y-84468750D01*
D11*
X165462500Y-88867750D02*
X165462500Y-90518750D01*
D10*
X172062500Y-79118750D02*
X172062500Y-83268750D01*
X174612500Y-80518750D02*
X174612500Y-85118750D01*
X168012500Y-78518750D02*
X168012500Y-82718750D01*
X170712500Y-78318750D02*
X170712500Y-82918750D01*
X170562500Y-78318750D02*
X170562500Y-82918750D01*
X168312500Y-78368750D02*
X168312500Y-82868750D01*
X171612500Y-78468750D02*
X171612500Y-83018750D01*
X172662500Y-79968750D02*
X172662500Y-84368750D01*
X173862500Y-80468750D02*
X173862500Y-85118750D01*
X169812500Y-78318750D02*
X169812500Y-82918750D01*
X171862500Y-78718750D02*
X171862500Y-83118750D01*
X168612500Y-78318750D02*
X168612500Y-82918750D01*
X172962500Y-80168750D02*
X172962500Y-84618750D01*
X176412500Y-80768750D02*
X176412500Y-84868750D01*
X168562500Y-78293750D02*
X171162500Y-78293750D01*
X170112500Y-78318750D02*
X170112500Y-82918750D01*
X173112500Y-80268750D02*
X173112500Y-84718750D01*
X169512500Y-78318750D02*
X169512500Y-82918750D01*
X170262500Y-78318750D02*
X170262500Y-82918750D01*
X177162500Y-84118750D02*
X177162500Y-81518750D01*
X168562500Y-82943750D02*
X171137500Y-82943750D01*
X176262500Y-80668750D02*
X176262500Y-85018750D01*
X175362500Y-80518750D02*
X175362500Y-85118750D01*
X169362500Y-78318750D02*
X169362500Y-82918750D01*
X171012500Y-78318750D02*
X171012500Y-82868750D01*
X167812500Y-78718750D02*
X167812500Y-82468750D01*
X176112500Y-80518750D02*
X176112500Y-85118750D01*
X167712500Y-78868750D02*
X167712500Y-82418750D01*
X174312500Y-80518750D02*
X174312500Y-85118750D01*
X175212500Y-80518750D02*
X175212500Y-85118750D01*
X171162500Y-78318750D02*
X171162500Y-82918750D01*
X174162500Y-80518750D02*
X174162500Y-85118750D01*
X173262500Y-80318750D02*
X173262500Y-84868750D01*
X176562500Y-80918750D02*
X176562500Y-84718750D01*
X173562500Y-80468750D02*
X173562500Y-85068750D01*
X168912500Y-78318750D02*
X168912500Y-82918750D01*
X173587500Y-85143750D02*
X176137500Y-85143750D01*
X167562500Y-81943750D02*
X167562500Y-79293750D01*
X169962500Y-78318750D02*
X169962500Y-82918750D01*
X177162500Y-81518750D02*
X176137500Y-80493750D01*
X169212500Y-78318750D02*
X169212500Y-82918750D01*
X171462500Y-78368750D02*
X171462500Y-82918750D01*
X171762500Y-78568750D02*
X171762500Y-83068750D01*
X175812500Y-80518750D02*
X175812500Y-85118750D01*
X172512500Y-79818750D02*
X172512500Y-84268750D01*
X173712500Y-80468750D02*
X173712500Y-85118750D01*
X172162500Y-79318750D02*
X172162500Y-83468750D01*
D11*
X173762500Y-88867750D02*
X165462500Y-88867750D01*
D10*
X172262500Y-79468750D02*
X172262500Y-83618750D01*
X176712500Y-81068750D02*
X176712500Y-84568750D01*
X168462500Y-78318750D02*
X168462500Y-82868750D01*
X171962500Y-78968750D02*
X171962500Y-83168750D01*
X174162500Y-80493750D02*
X176137500Y-80493750D01*
X174912500Y-80518750D02*
X174912500Y-85118750D01*
X177012500Y-81368750D02*
X177012500Y-84268750D01*
X170412500Y-78318750D02*
X170412500Y-82918750D01*
X175962500Y-80518750D02*
X175962500Y-85118750D01*
X168162500Y-78418750D02*
X168162500Y-82818750D01*
X169662500Y-78318750D02*
X169662500Y-82918750D01*
X175662500Y-80518750D02*
X175662500Y-85118750D01*
X170862500Y-78318750D02*
X170862500Y-82918750D01*
X175512500Y-80518750D02*
X175512500Y-85118750D01*
X175062500Y-80518750D02*
X175062500Y-85118750D01*
X173587500Y-85143750D02*
X172312500Y-84118750D01*
X174762500Y-80518750D02*
X174762500Y-85118750D01*
X173412500Y-80418750D02*
X173412500Y-84968750D01*
X172362500Y-79668750D02*
X172362500Y-84118750D01*
X174462500Y-80518750D02*
X174462500Y-85118750D01*
X176862500Y-81268750D02*
X176862500Y-84418750D01*
D11*
X165962500Y-93567750D02*
X173762500Y-93567750D01*
D10*
X174012500Y-80518750D02*
X174012500Y-85068750D01*
X177162500Y-84118750D02*
X176137500Y-85143750D01*
X167562500Y-81943750D02*
G75*
G03*
X168562500Y-82943750I999999J-1D01*
G01*
X172024699Y-78996846D02*
G75*
G03*
X174162500Y-80493750I2137802J778098D01*
G01*
X168562500Y-78293750D02*
G75*
G03*
X167562500Y-79293750I-1J-999999D01*
G01*
X172312500Y-84118750D02*
G75*
G03*
X171137500Y-82943750I-1175002J-2D01*
G01*
X172024699Y-78996846D02*
G75*
G03*
X171163495Y-78294959I-900000J-225000D01*
G01*
D12*
X165462500Y-89883750D02*
X165462500Y-88867750D01*
X165462500Y-88867750D02*
X166470500Y-88867750D01*
X166470500Y-88867750D02*
X165462500Y-89883750D01*
G36*
X165462500Y-89883750D02*
G01*
X165462500Y-88867750D01*
X166470500Y-88867750D01*
X165462500Y-89883750D01*
G37*
X165462500Y-89883750D02*
X165462500Y-88867750D01*
X166470500Y-88867750D01*
X165462500Y-89883750D01*
D10*
X157988000Y-69950500D02*
X159512000Y-69950500D01*
X159512000Y-69569500D02*
X157988000Y-69569500D01*
X157988000Y-64997500D02*
X157988000Y-70077500D01*
X159512000Y-69823500D02*
X157988000Y-69823500D01*
X157988000Y-69696500D02*
X159512000Y-69696500D01*
X157988000Y-70077500D02*
X159512000Y-70077500D01*
X159512000Y-64997500D02*
X157988000Y-64997500D01*
X157988000Y-69315500D02*
X159512000Y-69315500D01*
X159512000Y-70077500D02*
X159512000Y-64997500D01*
X157988000Y-69442500D02*
X159512000Y-69442500D01*
X94424500Y-70008750D02*
X94424500Y-64928750D01*
X92900500Y-64928750D02*
X92900500Y-70008750D01*
X94424500Y-69754750D02*
X92900500Y-69754750D01*
X92900500Y-69246750D02*
X94424500Y-69246750D01*
X92900500Y-70008750D02*
X94424500Y-70008750D01*
X94424500Y-69500750D02*
X92900500Y-69500750D01*
X92900500Y-69373750D02*
X94424500Y-69373750D01*
X92900500Y-69627750D02*
X94424500Y-69627750D01*
X92900500Y-69881750D02*
X94424500Y-69881750D01*
X94424500Y-64928750D02*
X92900500Y-64928750D01*
X92900500Y-114400500D02*
X94424500Y-114400500D01*
X92900500Y-113892500D02*
X94424500Y-113892500D01*
X94424500Y-114019500D02*
X92900500Y-114019500D01*
X94424500Y-114273500D02*
X92900500Y-114273500D01*
X92900500Y-114146500D02*
X94424500Y-114146500D01*
X94424500Y-109447500D02*
X92900500Y-109447500D01*
X92900500Y-114527500D02*
X94424500Y-114527500D01*
X92900500Y-109447500D02*
X92900500Y-114527500D01*
X92900500Y-113765500D02*
X94424500Y-113765500D01*
X94424500Y-114527500D02*
X94424500Y-109447500D01*
X113538000Y-109447500D02*
X113538000Y-114527500D01*
X113538000Y-114527500D02*
X115062000Y-114527500D01*
X115062000Y-114527500D02*
X115062000Y-109447500D01*
X115062000Y-109447500D02*
X113538000Y-109447500D01*
X113538000Y-114400500D02*
X115062000Y-114400500D01*
X115062000Y-114273500D02*
X113538000Y-114273500D01*
X115062000Y-114019500D02*
X113538000Y-114019500D01*
X113538000Y-114146500D02*
X115062000Y-114146500D01*
X113538000Y-113892500D02*
X115062000Y-113892500D01*
X113538000Y-113765500D02*
X115062000Y-113765500D01*
X115062000Y-69569500D02*
X113538000Y-69569500D01*
X113538000Y-69442500D02*
X115062000Y-69442500D01*
X113538000Y-64997500D02*
X113538000Y-70077500D01*
X113538000Y-69696500D02*
X115062000Y-69696500D01*
X115062000Y-69823500D02*
X113538000Y-69823500D01*
X113538000Y-69315500D02*
X115062000Y-69315500D01*
X113538000Y-69950500D02*
X115062000Y-69950500D01*
X115062000Y-64997500D02*
X113538000Y-64997500D01*
X115062000Y-70077500D02*
X115062000Y-64997500D01*
X113538000Y-70077500D02*
X115062000Y-70077500D01*
X115062000Y-92302500D02*
X115062000Y-87222500D01*
X115062000Y-87222500D02*
X113538000Y-87222500D01*
X113538000Y-91667500D02*
X115062000Y-91667500D01*
X113538000Y-92302500D02*
X115062000Y-92302500D01*
X115062000Y-91794500D02*
X113538000Y-91794500D01*
X113538000Y-91921500D02*
X115062000Y-91921500D01*
X113538000Y-91540500D02*
X115062000Y-91540500D01*
X113538000Y-92175500D02*
X115062000Y-92175500D01*
X113538000Y-87222500D02*
X113538000Y-92302500D01*
X115062000Y-92048500D02*
X113538000Y-92048500D01*
X135763000Y-70077500D02*
X137287000Y-70077500D01*
X137287000Y-64997500D02*
X135763000Y-64997500D01*
X137287000Y-69823500D02*
X135763000Y-69823500D01*
X137287000Y-69569500D02*
X135763000Y-69569500D01*
X135763000Y-69315500D02*
X137287000Y-69315500D01*
X135763000Y-69696500D02*
X137287000Y-69696500D01*
X137287000Y-70077500D02*
X137287000Y-64997500D01*
X135763000Y-69442500D02*
X137287000Y-69442500D01*
X135763000Y-64997500D02*
X135763000Y-70077500D01*
X135763000Y-69950500D02*
X137287000Y-69950500D01*
X92900500Y-92302500D02*
X94424500Y-92302500D01*
X92900500Y-87222500D02*
X92900500Y-92302500D01*
X92900500Y-91540500D02*
X94424500Y-91540500D01*
X92900500Y-92175500D02*
X94424500Y-92175500D01*
X94424500Y-87222500D02*
X92900500Y-87222500D01*
X92900500Y-91667500D02*
X94424500Y-91667500D01*
X94424500Y-91794500D02*
X92900500Y-91794500D01*
X94424500Y-92048500D02*
X92900500Y-92048500D01*
X94424500Y-92302500D02*
X94424500Y-87222500D01*
X92900500Y-91921500D02*
X94424500Y-91921500D01*
X137287000Y-103635000D02*
X135763000Y-103635000D01*
X137287000Y-108461000D02*
X135763000Y-108461000D01*
X135763000Y-108715000D02*
X137287000Y-108715000D01*
X135763000Y-108588000D02*
X137287000Y-108588000D01*
X135763000Y-103635000D02*
X135763000Y-108715000D01*
X137287000Y-108207000D02*
X135763000Y-108207000D01*
X135763000Y-108334000D02*
X137287000Y-108334000D01*
X135763000Y-107953000D02*
X137287000Y-107953000D01*
X135763000Y-108080000D02*
X137287000Y-108080000D01*
X137287000Y-108715000D02*
X137287000Y-103635000D01*
X159512000Y-109447500D02*
X157988000Y-109447500D01*
X157988000Y-113765500D02*
X159512000Y-113765500D01*
X157988000Y-113892500D02*
X159512000Y-113892500D01*
X159512000Y-114527500D02*
X159512000Y-109447500D01*
X157988000Y-114400500D02*
X159512000Y-114400500D01*
X157988000Y-109447500D02*
X157988000Y-114527500D01*
X159512000Y-114273500D02*
X157988000Y-114273500D01*
X159512000Y-114019500D02*
X157988000Y-114019500D01*
X157988000Y-114527500D02*
X159512000Y-114527500D01*
X157988000Y-114146500D02*
X159512000Y-114146500D01*
X89725500Y-92302500D02*
X91249500Y-92302500D01*
X91249500Y-91794500D02*
X89725500Y-91794500D01*
X89725500Y-91921500D02*
X91249500Y-91921500D01*
X89725500Y-87222500D02*
X89725500Y-92302500D01*
X89725500Y-91667500D02*
X91249500Y-91667500D01*
X89725500Y-92175500D02*
X91249500Y-92175500D01*
X89725500Y-91540500D02*
X91249500Y-91540500D01*
X91249500Y-87222500D02*
X89725500Y-87222500D01*
X91249500Y-92302500D02*
X91249500Y-87222500D01*
X91249500Y-92048500D02*
X89725500Y-92048500D01*
X159512000Y-87222500D02*
X157988000Y-87222500D01*
X159512000Y-92048500D02*
X157988000Y-92048500D01*
X157988000Y-92302500D02*
X159512000Y-92302500D01*
X157988000Y-91921500D02*
X159512000Y-91921500D01*
X157988000Y-92175500D02*
X159512000Y-92175500D01*
X157988000Y-91667500D02*
X159512000Y-91667500D01*
X157988000Y-87222500D02*
X157988000Y-92302500D01*
X159512000Y-91794500D02*
X157988000Y-91794500D01*
X159512000Y-92302500D02*
X159512000Y-87222500D01*
X157988000Y-91540500D02*
X159512000Y-91540500D01*
X89725500Y-114400500D02*
X91249500Y-114400500D01*
X89725500Y-113892500D02*
X91249500Y-113892500D01*
X91249500Y-114273500D02*
X89725500Y-114273500D01*
X89725500Y-113765500D02*
X91249500Y-113765500D01*
X91249500Y-114019500D02*
X89725500Y-114019500D01*
X89725500Y-114146500D02*
X91249500Y-114146500D01*
X89725500Y-109447500D02*
X89725500Y-114527500D01*
X89725500Y-114527500D02*
X91249500Y-114527500D01*
X91249500Y-114527500D02*
X91249500Y-109447500D01*
X91249500Y-109447500D02*
X89725500Y-109447500D01*
X181737000Y-114527500D02*
X181737000Y-109447500D01*
X181737000Y-109447500D02*
X180213000Y-109447500D01*
X181737000Y-114273500D02*
X180213000Y-114273500D01*
X180213000Y-114146500D02*
X181737000Y-114146500D01*
X180213000Y-114527500D02*
X181737000Y-114527500D01*
X180213000Y-109447500D02*
X180213000Y-114527500D01*
X180213000Y-113765500D02*
X181737000Y-113765500D01*
X181737000Y-114019500D02*
X180213000Y-114019500D01*
X180213000Y-113892500D02*
X181737000Y-113892500D01*
X180213000Y-114400500D02*
X181737000Y-114400500D01*
X91249500Y-69754750D02*
X89725500Y-69754750D01*
X91249500Y-70008750D02*
X91249500Y-64928750D01*
X89725500Y-64928750D02*
X89725500Y-70008750D01*
X89725500Y-69246750D02*
X91249500Y-69246750D01*
X89725500Y-69627750D02*
X91249500Y-69627750D01*
X89725500Y-70008750D02*
X91249500Y-70008750D01*
X89725500Y-69881750D02*
X91249500Y-69881750D01*
X91249500Y-69500750D02*
X89725500Y-69500750D01*
X91249500Y-64928750D02*
X89725500Y-64928750D01*
X89725500Y-69373750D02*
X91249500Y-69373750D01*
X135763000Y-91921500D02*
X137287000Y-91921500D01*
X135763000Y-91667500D02*
X137287000Y-91667500D01*
X137287000Y-87222500D02*
X135763000Y-87222500D01*
X135763000Y-92175500D02*
X137287000Y-92175500D01*
X137287000Y-92048500D02*
X135763000Y-92048500D01*
X135763000Y-91540500D02*
X137287000Y-91540500D01*
X135763000Y-87222500D02*
X135763000Y-92302500D01*
X137287000Y-92302500D02*
X137287000Y-87222500D01*
X137287000Y-91794500D02*
X135763000Y-91794500D01*
X135763000Y-92302500D02*
X137287000Y-92302500D01*
D13*
X200977500Y-87870500D02*
X183197500Y-87870500D01*
X200977500Y-54850500D02*
X200977500Y-57390500D01*
X183197500Y-57390500D02*
X183197500Y-54850500D01*
X198437500Y-57390500D02*
X200977500Y-57390500D01*
X198437500Y-57390500D02*
X198437500Y-59930500D01*
X183197500Y-54850500D02*
X200977500Y-54850500D01*
X200977500Y-57390500D02*
X200977500Y-87870500D01*
X183197500Y-87870500D02*
X183197500Y-57390500D01*
X198437500Y-59930500D02*
X200977500Y-59930500D01*
D10*
X187155932Y-63269860D02*
X187155932Y-63569860D01*
X187155932Y-63569860D02*
X187255932Y-63569860D01*
X187255932Y-63569860D02*
X187255932Y-63269860D01*
X187255932Y-63269860D02*
X187155932Y-63269860D01*
G36*
X187255932Y-63569860D02*
G01*
X187155932Y-63569860D01*
X187155932Y-63269860D01*
X187255932Y-63269860D01*
X187255932Y-63569860D01*
G37*
X187255932Y-63569860D02*
X187155932Y-63569860D01*
X187155932Y-63269860D01*
X187255932Y-63269860D01*
X187255932Y-63569860D01*
X187155932Y-63869860D02*
X187155932Y-64069860D01*
X187155932Y-64069860D02*
X187255932Y-64069860D01*
X187255932Y-64069860D02*
X187255932Y-63869860D01*
X187255932Y-63869860D02*
X187155932Y-63869860D01*
G36*
X187255932Y-64069860D02*
G01*
X187155932Y-64069860D01*
X187155932Y-63869860D01*
X187255932Y-63869860D01*
X187255932Y-64069860D01*
G37*
X187255932Y-64069860D02*
X187155932Y-64069860D01*
X187155932Y-63869860D01*
X187255932Y-63869860D01*
X187255932Y-64069860D01*
X187355932Y-63669860D02*
X187355932Y-63769860D01*
X187355932Y-63769860D02*
X187455932Y-63769860D01*
X187455932Y-63769860D02*
X187455932Y-63669860D01*
X187455932Y-63669860D02*
X187355932Y-63669860D01*
G36*
X187455932Y-63769860D02*
G01*
X187355932Y-63769860D01*
X187355932Y-63669860D01*
X187455932Y-63669860D01*
X187455932Y-63769860D01*
G37*
X187455932Y-63769860D02*
X187355932Y-63769860D01*
X187355932Y-63669860D01*
X187455932Y-63669860D01*
X187455932Y-63769860D01*
X187555932Y-63269860D02*
X187555932Y-64069860D01*
X187555932Y-64069860D02*
X187655932Y-64069860D01*
X187655932Y-64069860D02*
X187655932Y-63269860D01*
X187655932Y-63269860D02*
X187555932Y-63269860D01*
G36*
X187655932Y-64069860D02*
G01*
X187555932Y-64069860D01*
X187555932Y-63269860D01*
X187655932Y-63269860D01*
X187655932Y-64069860D01*
G37*
X187655932Y-64069860D02*
X187555932Y-64069860D01*
X187555932Y-63269860D01*
X187655932Y-63269860D01*
X187655932Y-64069860D01*
X187155932Y-63269860D02*
X187155932Y-63369860D01*
X187155932Y-63369860D02*
X187655932Y-63369860D01*
X187655932Y-63369860D02*
X187655932Y-63269860D01*
X187655932Y-63269860D02*
X187155932Y-63269860D01*
G36*
X187655932Y-63369860D02*
G01*
X187155932Y-63369860D01*
X187155932Y-63269860D01*
X187655932Y-63269860D01*
X187655932Y-63369860D01*
G37*
X187655932Y-63369860D02*
X187155932Y-63369860D01*
X187155932Y-63269860D01*
X187655932Y-63269860D01*
X187655932Y-63369860D01*
D14*
X199707500Y-58660500D03*
D15*
X199707500Y-61200500D03*
X199707500Y-63740500D03*
X199707500Y-66280500D03*
X199707500Y-68820500D03*
X199707500Y-71360500D03*
X199707500Y-73900500D03*
X199707500Y-76440500D03*
X199707500Y-78980500D03*
X199707500Y-81520500D03*
X199707500Y-84060500D03*
X199707500Y-86600500D03*
X184467500Y-86600500D03*
X184467500Y-84060500D03*
X184467500Y-81520500D03*
X184467500Y-78980500D03*
X184467500Y-76440500D03*
X184467500Y-73900500D03*
X184467500Y-71360500D03*
X184467500Y-68820500D03*
X184467500Y-66280500D03*
X184467500Y-63740500D03*
X184467500Y-61200500D03*
X184467500Y-58660500D03*
%LPC*%
D16*
X142137500Y-86518750D03*
X153137500Y-86518750D03*
D17*
X142417500Y-90718750D03*
D18*
X152637500Y-82818750D03*
X147637500Y-80618750D03*
D17*
X152857500Y-90718750D03*
D19*
X147637500Y-86518750D03*
D20*
X150387500Y-91917750D03*
X150387500Y-90517750D03*
X144887500Y-90517750D03*
X144887500Y-91917750D03*
D21*
X144837500Y-80618750D03*
X155437500Y-82818750D03*
D16*
X142137500Y-108743750D03*
X153137500Y-108743750D03*
D17*
X142417500Y-112943750D03*
D18*
X152637500Y-105043750D03*
X147637500Y-102843750D03*
D17*
X152857500Y-112943750D03*
D19*
X147637500Y-108743750D03*
D20*
X150387500Y-114142750D03*
X150387500Y-112742750D03*
X144887500Y-112742750D03*
X144887500Y-114142750D03*
D21*
X144837500Y-102843750D03*
X155437500Y-105043750D03*
D16*
X75462500Y-86518750D03*
X86462500Y-86518750D03*
D17*
X75742500Y-90718750D03*
D18*
X85962500Y-82818750D03*
X80962500Y-80618750D03*
D17*
X86182500Y-90718750D03*
D19*
X80962500Y-86518750D03*
D20*
X83712500Y-91917750D03*
X83712500Y-90517750D03*
X78212500Y-90517750D03*
X78212500Y-91917750D03*
D21*
X78162500Y-80618750D03*
X88762500Y-82818750D03*
D16*
X97687500Y-108743750D03*
X108687500Y-108743750D03*
D17*
X97967500Y-112943750D03*
D18*
X108187500Y-105043750D03*
X103187500Y-102843750D03*
D17*
X108407500Y-112943750D03*
D19*
X103187500Y-108743750D03*
D20*
X105937500Y-114142750D03*
X105937500Y-112742750D03*
X100437500Y-112742750D03*
X100437500Y-114142750D03*
D21*
X100387500Y-102843750D03*
X110987500Y-105043750D03*
D16*
X75462500Y-64293750D03*
X86462500Y-64293750D03*
D17*
X75742500Y-68493750D03*
D18*
X85962500Y-60593750D03*
X80962500Y-58393750D03*
D17*
X86182500Y-68493750D03*
D19*
X80962500Y-64293750D03*
D20*
X83712500Y-69692750D03*
X83712500Y-68292750D03*
X78212500Y-68292750D03*
X78212500Y-69692750D03*
D21*
X78162500Y-58393750D03*
X88762500Y-60593750D03*
D16*
X75462500Y-108743750D03*
X86462500Y-108743750D03*
D17*
X75742500Y-112943750D03*
D18*
X85962500Y-105043750D03*
X80962500Y-102843750D03*
D17*
X86182500Y-112943750D03*
D19*
X80962500Y-108743750D03*
D20*
X83712500Y-114142750D03*
X83712500Y-112742750D03*
X78212500Y-112742750D03*
X78212500Y-114142750D03*
D21*
X78162500Y-102843750D03*
X88762500Y-105043750D03*
D16*
X119912500Y-64293750D03*
X130912500Y-64293750D03*
D17*
X120192500Y-68493750D03*
D18*
X130412500Y-60593750D03*
X125412500Y-58393750D03*
D17*
X130632500Y-68493750D03*
D19*
X125412500Y-64293750D03*
D20*
X128162500Y-69692750D03*
X128162500Y-68292750D03*
X122662500Y-68292750D03*
X122662500Y-69692750D03*
D21*
X122612500Y-58393750D03*
X133212500Y-60593750D03*
D16*
X164362500Y-64293750D03*
X175362500Y-64293750D03*
D17*
X164642500Y-68493750D03*
D18*
X174862500Y-60593750D03*
X169862500Y-58393750D03*
D17*
X175082500Y-68493750D03*
D19*
X169862500Y-64293750D03*
D20*
X172612500Y-69692750D03*
X172612500Y-68292750D03*
X167112500Y-68292750D03*
X167112500Y-69692750D03*
D21*
X167062500Y-58393750D03*
X177662500Y-60593750D03*
D16*
X119912500Y-108743750D03*
X130912500Y-108743750D03*
D17*
X120192500Y-112943750D03*
D18*
X130412500Y-105043750D03*
X125412500Y-102843750D03*
D17*
X130632500Y-112943750D03*
D19*
X125412500Y-108743750D03*
D20*
X128162500Y-114142750D03*
X128162500Y-112742750D03*
X122662500Y-112742750D03*
X122662500Y-114142750D03*
D21*
X122612500Y-102843750D03*
X133212500Y-105043750D03*
D16*
X164362500Y-108743750D03*
X175362500Y-108743750D03*
D17*
X164642500Y-112943750D03*
D18*
X174862500Y-105043750D03*
X169862500Y-102843750D03*
D17*
X175082500Y-112943750D03*
D19*
X169862500Y-108743750D03*
D20*
X172612500Y-114142750D03*
X172612500Y-112742750D03*
X167112500Y-112742750D03*
X167112500Y-114142750D03*
D21*
X167062500Y-102843750D03*
X177662500Y-105043750D03*
D16*
X97687500Y-86518750D03*
X108687500Y-86518750D03*
D17*
X97967500Y-90718750D03*
D18*
X108187500Y-82818750D03*
X103187500Y-80618750D03*
D17*
X108407500Y-90718750D03*
D19*
X103187500Y-86518750D03*
D20*
X105937500Y-91917750D03*
X105937500Y-90517750D03*
X100437500Y-90517750D03*
X100437500Y-91917750D03*
D21*
X100387500Y-80618750D03*
X110987500Y-82818750D03*
D16*
X142137500Y-64293750D03*
X153137500Y-64293750D03*
D17*
X142417500Y-68493750D03*
D18*
X152637500Y-60593750D03*
X147637500Y-58393750D03*
D17*
X152857500Y-68493750D03*
D19*
X147637500Y-64293750D03*
D20*
X150387500Y-69692750D03*
X150387500Y-68292750D03*
X144887500Y-68292750D03*
X144887500Y-69692750D03*
D21*
X144837500Y-58393750D03*
X155437500Y-60593750D03*
D16*
X186587500Y-108743750D03*
X197587500Y-108743750D03*
D17*
X186867500Y-112943750D03*
D18*
X197087500Y-105043750D03*
X192087500Y-102843750D03*
D17*
X197307500Y-112943750D03*
D19*
X192087500Y-108743750D03*
D20*
X194837500Y-114142750D03*
X194837500Y-112742750D03*
X189337500Y-112742750D03*
X189337500Y-114142750D03*
D21*
X189287500Y-102843750D03*
X199887500Y-105043750D03*
D16*
X97687500Y-64293750D03*
X108687500Y-64293750D03*
D17*
X97967500Y-68493750D03*
D18*
X108187500Y-60593750D03*
X103187500Y-58393750D03*
D17*
X108407500Y-68493750D03*
D19*
X103187500Y-64293750D03*
D20*
X105937500Y-69692750D03*
X105937500Y-68292750D03*
X100437500Y-68292750D03*
X100437500Y-69692750D03*
D21*
X100387500Y-58393750D03*
X110987500Y-60593750D03*
D16*
X119912500Y-86518750D03*
X130912500Y-86518750D03*
D17*
X120192500Y-90718750D03*
D18*
X130412500Y-82818750D03*
X125412500Y-80618750D03*
D17*
X130632500Y-90718750D03*
D19*
X125412500Y-86518750D03*
D20*
X128162500Y-91917750D03*
X128162500Y-90517750D03*
X122662500Y-90517750D03*
X122662500Y-91917750D03*
D21*
X122612500Y-80618750D03*
X133212500Y-82818750D03*
D16*
X164362500Y-86518750D03*
X175362500Y-86518750D03*
D17*
X164642500Y-90718750D03*
D18*
X174862500Y-82818750D03*
X169862500Y-80618750D03*
D17*
X175082500Y-90718750D03*
D19*
X169862500Y-86518750D03*
D20*
X172612500Y-91917750D03*
X172612500Y-90517750D03*
X167112500Y-90517750D03*
X167112500Y-91917750D03*
D21*
X167062500Y-80618750D03*
X177662500Y-82818750D03*
D22*
X158750000Y-68937500D03*
D23*
X158750000Y-71437500D03*
D22*
X158750000Y-66137500D03*
D24*
X158750000Y-63637500D03*
D23*
X93662500Y-71368750D03*
D22*
X93662500Y-68868750D03*
X93662500Y-66068750D03*
D24*
X93662500Y-63568750D03*
D22*
X93662500Y-113387500D03*
D23*
X93662500Y-115887500D03*
D24*
X93662500Y-108087500D03*
D22*
X93662500Y-110587500D03*
D25*
X75803125Y-97631250D03*
X177403125Y-75406250D03*
D23*
X114300000Y-115887500D03*
D22*
X114300000Y-113387500D03*
D24*
X114300000Y-108087500D03*
D22*
X114300000Y-110587500D03*
D23*
X114300000Y-71437500D03*
D22*
X114300000Y-68937500D03*
X114300000Y-66137500D03*
D24*
X114300000Y-63637500D03*
D22*
X114300000Y-91162500D03*
D23*
X114300000Y-93662500D03*
D24*
X114300000Y-85862500D03*
D22*
X114300000Y-88362500D03*
D26*
X186487500Y-108743750D03*
X197687500Y-108743750D03*
D27*
X189587500Y-116243750D03*
D28*
X194587500Y-116243750D03*
X192087500Y-116243750D03*
X194587500Y-101743750D03*
X189587500Y-101743750D03*
D23*
X136525000Y-71437500D03*
D22*
X136525000Y-68937500D03*
X136525000Y-66137500D03*
D24*
X136525000Y-63637500D03*
D23*
X93662500Y-93662500D03*
D22*
X93662500Y-91162500D03*
D24*
X93662500Y-85862500D03*
D22*
X93662500Y-88362500D03*
D29*
X196757500Y-93160750D03*
D30*
X194217500Y-93160750D03*
X191677500Y-93160750D03*
X189137500Y-93160750D03*
D25*
X199628125Y-96837500D03*
D22*
X136525000Y-107575000D03*
D23*
X136525000Y-110075000D03*
D24*
X136525000Y-102275000D03*
D22*
X136525000Y-104775000D03*
D25*
X136525000Y-113506250D03*
D23*
X158750000Y-115887500D03*
D22*
X158750000Y-113387500D03*
X158750000Y-110587500D03*
D24*
X158750000Y-108087500D03*
D22*
X90487500Y-91162500D03*
D23*
X90487500Y-93662500D03*
D24*
X90487500Y-85862500D03*
D22*
X90487500Y-88362500D03*
D25*
X136525000Y-59928125D03*
X75803125Y-75406250D03*
D23*
X158750000Y-93662500D03*
D22*
X158750000Y-91162500D03*
D24*
X158750000Y-85862500D03*
D22*
X158750000Y-88362500D03*
D23*
X90487500Y-115887500D03*
D22*
X90487500Y-113387500D03*
X90487500Y-110587500D03*
D24*
X90487500Y-108087500D03*
D23*
X180975000Y-115887500D03*
D22*
X180975000Y-113387500D03*
D24*
X180975000Y-108087500D03*
D22*
X180975000Y-110587500D03*
X90487500Y-68868750D03*
D23*
X90487500Y-71368750D03*
D24*
X90487500Y-63568750D03*
D22*
X90487500Y-66068750D03*
X136525000Y-91162500D03*
D23*
X136525000Y-93662500D03*
D24*
X136525000Y-85862500D03*
D22*
X136525000Y-88362500D03*
D14*
X199707500Y-58660500D03*
D31*
X201485500Y-58660500D03*
X201485500Y-61200500D03*
D15*
X199707500Y-61200500D03*
X199707500Y-63740500D03*
D31*
X201485500Y-63740500D03*
X201485500Y-66280500D03*
D15*
X199707500Y-66280500D03*
X199707500Y-68820500D03*
D31*
X201485500Y-68820500D03*
D15*
X199707500Y-71360500D03*
D31*
X201485500Y-71360500D03*
X201485500Y-73900500D03*
D15*
X199707500Y-73900500D03*
X199707500Y-76440500D03*
D31*
X201485500Y-76440500D03*
D15*
X199707500Y-78980500D03*
D31*
X201485500Y-78980500D03*
X201485500Y-81520500D03*
D15*
X199707500Y-81520500D03*
X199707500Y-84060500D03*
D31*
X201485500Y-84060500D03*
D15*
X199707500Y-86600500D03*
D31*
X201485500Y-86600500D03*
X182689500Y-86600500D03*
D15*
X184467500Y-86600500D03*
X184467500Y-84060500D03*
D31*
X182689500Y-84060500D03*
D15*
X184467500Y-81520500D03*
D31*
X182689500Y-81520500D03*
X182689500Y-78980500D03*
D15*
X184467500Y-78980500D03*
X184467500Y-76440500D03*
D31*
X182689500Y-76440500D03*
D15*
X184467500Y-73900500D03*
D31*
X182689500Y-73900500D03*
D15*
X184467500Y-71360500D03*
D31*
X182689500Y-71360500D03*
X182689500Y-68820500D03*
D15*
X184467500Y-68820500D03*
X184467500Y-66280500D03*
D31*
X182689500Y-66280500D03*
D15*
X184467500Y-63740500D03*
D31*
X182689500Y-63740500D03*
D15*
X184467500Y-61200500D03*
D31*
X182689500Y-61200500D03*
D15*
X184467500Y-58660500D03*
D31*
X182689500Y-58660500D03*
M02*
