G04 #@! TF.GenerationSoftware,KiCad,Pcbnew,(6.0.1-0)*
G04 #@! TF.CreationDate,2023-03-21T08:23:48-07:00*
G04 #@! TF.ProjectId,pcb,7063622e-6b69-4636-9164-5f7063625858,rev?*
G04 #@! TF.SameCoordinates,Original*
G04 #@! TF.FileFunction,Soldermask,Bot*
G04 #@! TF.FilePolarity,Negative*
%FSLAX46Y46*%
G04 Gerber Fmt 4.6, Leading zero omitted, Abs format (unit mm)*
G04 Created by KiCad (PCBNEW (6.0.1-0)) date 2023-03-21 08:23:48*
%MOMM*%
%LPD*%
G01*
G04 APERTURE LIST*
%ADD10C,1.800000*%
%ADD11C,1.000000*%
%ADD12C,3.000000*%
%ADD13C,3.400000*%
%ADD14R,1.700000X1.000000*%
%ADD15R,1.600000X2.200000*%
%ADD16R,1.200000X1.600000*%
%ADD17R,1.600000X1.600000*%
%ADD18C,1.600000*%
%ADD19C,2.200000*%
%ADD20O,2.000000X3.200000*%
%ADD21R,2.000000X2.000000*%
%ADD22C,2.000000*%
%ADD23R,1.700000X1.700000*%
%ADD24O,1.700000X1.700000*%
%ADD25R,1.752600X1.752600*%
%ADD26R,3.250000X2.000000*%
%ADD27C,1.752600*%
G04 APERTURE END LIST*
D10*
X142137500Y-86518750D03*
X153137500Y-86518750D03*
D11*
X142417500Y-90718750D03*
D12*
X152637500Y-82818750D03*
X147637500Y-80618750D03*
D11*
X152857500Y-90718750D03*
D13*
X147637500Y-86518750D03*
D14*
X150387500Y-91917750D03*
X150387500Y-90517750D03*
X144887500Y-90517750D03*
X144887500Y-91917750D03*
D15*
X144837500Y-80618750D03*
X155437500Y-82818750D03*
D10*
X142137500Y-108743750D03*
X153137500Y-108743750D03*
D11*
X142417500Y-112943750D03*
D12*
X152637500Y-105043750D03*
X147637500Y-102843750D03*
D11*
X152857500Y-112943750D03*
D13*
X147637500Y-108743750D03*
D14*
X150387500Y-114142750D03*
X150387500Y-112742750D03*
X144887500Y-112742750D03*
X144887500Y-114142750D03*
D15*
X144837500Y-102843750D03*
X155437500Y-105043750D03*
D10*
X75462500Y-86518750D03*
X86462500Y-86518750D03*
D11*
X75742500Y-90718750D03*
D12*
X85962500Y-82818750D03*
X80962500Y-80618750D03*
D11*
X86182500Y-90718750D03*
D13*
X80962500Y-86518750D03*
D14*
X83712500Y-91917750D03*
X83712500Y-90517750D03*
X78212500Y-90517750D03*
X78212500Y-91917750D03*
D15*
X78162500Y-80618750D03*
X88762500Y-82818750D03*
D10*
X97687500Y-108743750D03*
X108687500Y-108743750D03*
D11*
X97967500Y-112943750D03*
D12*
X108187500Y-105043750D03*
X103187500Y-102843750D03*
D11*
X108407500Y-112943750D03*
D13*
X103187500Y-108743750D03*
D14*
X105937500Y-114142750D03*
X105937500Y-112742750D03*
X100437500Y-112742750D03*
X100437500Y-114142750D03*
D15*
X100387500Y-102843750D03*
X110987500Y-105043750D03*
D10*
X75462500Y-64293750D03*
X86462500Y-64293750D03*
D11*
X75742500Y-68493750D03*
D12*
X85962500Y-60593750D03*
X80962500Y-58393750D03*
D11*
X86182500Y-68493750D03*
D13*
X80962500Y-64293750D03*
D14*
X83712500Y-69692750D03*
X83712500Y-68292750D03*
X78212500Y-68292750D03*
X78212500Y-69692750D03*
D15*
X78162500Y-58393750D03*
X88762500Y-60593750D03*
D10*
X75462500Y-108743750D03*
X86462500Y-108743750D03*
D11*
X75742500Y-112943750D03*
D12*
X85962500Y-105043750D03*
X80962500Y-102843750D03*
D11*
X86182500Y-112943750D03*
D13*
X80962500Y-108743750D03*
D14*
X83712500Y-114142750D03*
X83712500Y-112742750D03*
X78212500Y-112742750D03*
X78212500Y-114142750D03*
D15*
X78162500Y-102843750D03*
X88762500Y-105043750D03*
D10*
X119912500Y-64293750D03*
X130912500Y-64293750D03*
D11*
X120192500Y-68493750D03*
D12*
X130412500Y-60593750D03*
X125412500Y-58393750D03*
D11*
X130632500Y-68493750D03*
D13*
X125412500Y-64293750D03*
D14*
X128162500Y-69692750D03*
X128162500Y-68292750D03*
X122662500Y-68292750D03*
X122662500Y-69692750D03*
D15*
X122612500Y-58393750D03*
X133212500Y-60593750D03*
D10*
X164362500Y-64293750D03*
X175362500Y-64293750D03*
D11*
X164642500Y-68493750D03*
D12*
X174862500Y-60593750D03*
X169862500Y-58393750D03*
D11*
X175082500Y-68493750D03*
D13*
X169862500Y-64293750D03*
D14*
X172612500Y-69692750D03*
X172612500Y-68292750D03*
X167112500Y-68292750D03*
X167112500Y-69692750D03*
D15*
X167062500Y-58393750D03*
X177662500Y-60593750D03*
D10*
X119912500Y-108743750D03*
X130912500Y-108743750D03*
D11*
X120192500Y-112943750D03*
D12*
X130412500Y-105043750D03*
X125412500Y-102843750D03*
D11*
X130632500Y-112943750D03*
D13*
X125412500Y-108743750D03*
D14*
X128162500Y-114142750D03*
X128162500Y-112742750D03*
X122662500Y-112742750D03*
X122662500Y-114142750D03*
D15*
X122612500Y-102843750D03*
X133212500Y-105043750D03*
D10*
X164362500Y-108743750D03*
X175362500Y-108743750D03*
D11*
X164642500Y-112943750D03*
D12*
X174862500Y-105043750D03*
X169862500Y-102843750D03*
D11*
X175082500Y-112943750D03*
D13*
X169862500Y-108743750D03*
D14*
X172612500Y-114142750D03*
X172612500Y-112742750D03*
X167112500Y-112742750D03*
X167112500Y-114142750D03*
D15*
X167062500Y-102843750D03*
X177662500Y-105043750D03*
D10*
X97687500Y-86518750D03*
X108687500Y-86518750D03*
D11*
X97967500Y-90718750D03*
D12*
X108187500Y-82818750D03*
X103187500Y-80618750D03*
D11*
X108407500Y-90718750D03*
D13*
X103187500Y-86518750D03*
D14*
X105937500Y-91917750D03*
X105937500Y-90517750D03*
X100437500Y-90517750D03*
X100437500Y-91917750D03*
D15*
X100387500Y-80618750D03*
X110987500Y-82818750D03*
D10*
X142137500Y-64293750D03*
X153137500Y-64293750D03*
D11*
X142417500Y-68493750D03*
D12*
X152637500Y-60593750D03*
X147637500Y-58393750D03*
D11*
X152857500Y-68493750D03*
D13*
X147637500Y-64293750D03*
D14*
X150387500Y-69692750D03*
X150387500Y-68292750D03*
X144887500Y-68292750D03*
X144887500Y-69692750D03*
D15*
X144837500Y-58393750D03*
X155437500Y-60593750D03*
D10*
X186587500Y-108743750D03*
X197587500Y-108743750D03*
D11*
X186867500Y-112943750D03*
D12*
X197087500Y-105043750D03*
X192087500Y-102843750D03*
D11*
X197307500Y-112943750D03*
D13*
X192087500Y-108743750D03*
D14*
X194837500Y-114142750D03*
X194837500Y-112742750D03*
X189337500Y-112742750D03*
X189337500Y-114142750D03*
D15*
X189287500Y-102843750D03*
X199887500Y-105043750D03*
D10*
X97687500Y-64293750D03*
X108687500Y-64293750D03*
D11*
X97967500Y-68493750D03*
D12*
X108187500Y-60593750D03*
X103187500Y-58393750D03*
D11*
X108407500Y-68493750D03*
D13*
X103187500Y-64293750D03*
D14*
X105937500Y-69692750D03*
X105937500Y-68292750D03*
X100437500Y-68292750D03*
X100437500Y-69692750D03*
D15*
X100387500Y-58393750D03*
X110987500Y-60593750D03*
D10*
X119912500Y-86518750D03*
X130912500Y-86518750D03*
D11*
X120192500Y-90718750D03*
D12*
X130412500Y-82818750D03*
X125412500Y-80618750D03*
D11*
X130632500Y-90718750D03*
D13*
X125412500Y-86518750D03*
D14*
X128162500Y-91917750D03*
X128162500Y-90517750D03*
X122662500Y-90517750D03*
X122662500Y-91917750D03*
D15*
X122612500Y-80618750D03*
X133212500Y-82818750D03*
D10*
X164362500Y-86518750D03*
X175362500Y-86518750D03*
D11*
X164642500Y-90718750D03*
D12*
X174862500Y-82818750D03*
X169862500Y-80618750D03*
D11*
X175082500Y-90718750D03*
D13*
X169862500Y-86518750D03*
D14*
X172612500Y-91917750D03*
X172612500Y-90517750D03*
X167112500Y-90517750D03*
X167112500Y-91917750D03*
D15*
X167062500Y-80618750D03*
X177662500Y-82818750D03*
D16*
X158750000Y-68937500D03*
D17*
X158750000Y-71437500D03*
D16*
X158750000Y-66137500D03*
D18*
X158750000Y-63637500D03*
D17*
X93662500Y-71368750D03*
D16*
X93662500Y-68868750D03*
X93662500Y-66068750D03*
D18*
X93662500Y-63568750D03*
D16*
X93662500Y-113387500D03*
D17*
X93662500Y-115887500D03*
D18*
X93662500Y-108087500D03*
D16*
X93662500Y-110587500D03*
D19*
X75803125Y-97631250D03*
X177403125Y-75406250D03*
D17*
X114300000Y-115887500D03*
D16*
X114300000Y-113387500D03*
D18*
X114300000Y-108087500D03*
D16*
X114300000Y-110587500D03*
D17*
X114300000Y-71437500D03*
D16*
X114300000Y-68937500D03*
X114300000Y-66137500D03*
D18*
X114300000Y-63637500D03*
D16*
X114300000Y-91162500D03*
D17*
X114300000Y-93662500D03*
D18*
X114300000Y-85862500D03*
D16*
X114300000Y-88362500D03*
D20*
X186487500Y-108743750D03*
X197687500Y-108743750D03*
D21*
X189587500Y-116243750D03*
D22*
X194587500Y-116243750D03*
X192087500Y-116243750D03*
X194587500Y-101743750D03*
X189587500Y-101743750D03*
D17*
X136525000Y-71437500D03*
D16*
X136525000Y-68937500D03*
X136525000Y-66137500D03*
D18*
X136525000Y-63637500D03*
D17*
X93662500Y-93662500D03*
D16*
X93662500Y-91162500D03*
D18*
X93662500Y-85862500D03*
D16*
X93662500Y-88362500D03*
D23*
X196757500Y-93160750D03*
D24*
X194217500Y-93160750D03*
X191677500Y-93160750D03*
X189137500Y-93160750D03*
D19*
X199628125Y-96837500D03*
D16*
X136525000Y-107575000D03*
D17*
X136525000Y-110075000D03*
D18*
X136525000Y-102275000D03*
D16*
X136525000Y-104775000D03*
D19*
X136525000Y-113506250D03*
D17*
X158750000Y-115887500D03*
D16*
X158750000Y-113387500D03*
X158750000Y-110587500D03*
D18*
X158750000Y-108087500D03*
D16*
X90487500Y-91162500D03*
D17*
X90487500Y-93662500D03*
D18*
X90487500Y-85862500D03*
D16*
X90487500Y-88362500D03*
D19*
X136525000Y-59928125D03*
X75803125Y-75406250D03*
D17*
X158750000Y-93662500D03*
D16*
X158750000Y-91162500D03*
D18*
X158750000Y-85862500D03*
D16*
X158750000Y-88362500D03*
D17*
X90487500Y-115887500D03*
D16*
X90487500Y-113387500D03*
X90487500Y-110587500D03*
D18*
X90487500Y-108087500D03*
D17*
X180975000Y-115887500D03*
D16*
X180975000Y-113387500D03*
D18*
X180975000Y-108087500D03*
D16*
X180975000Y-110587500D03*
X90487500Y-68868750D03*
D17*
X90487500Y-71368750D03*
D18*
X90487500Y-63568750D03*
D16*
X90487500Y-66068750D03*
X136525000Y-91162500D03*
D17*
X136525000Y-93662500D03*
D18*
X136525000Y-85862500D03*
D16*
X136525000Y-88362500D03*
D25*
X199707500Y-58660500D03*
D26*
X201485500Y-58660500D03*
X201485500Y-61200500D03*
D27*
X199707500Y-61200500D03*
X199707500Y-63740500D03*
D26*
X201485500Y-63740500D03*
X201485500Y-66280500D03*
D27*
X199707500Y-66280500D03*
X199707500Y-68820500D03*
D26*
X201485500Y-68820500D03*
D27*
X199707500Y-71360500D03*
D26*
X201485500Y-71360500D03*
X201485500Y-73900500D03*
D27*
X199707500Y-73900500D03*
X199707500Y-76440500D03*
D26*
X201485500Y-76440500D03*
D27*
X199707500Y-78980500D03*
D26*
X201485500Y-78980500D03*
X201485500Y-81520500D03*
D27*
X199707500Y-81520500D03*
X199707500Y-84060500D03*
D26*
X201485500Y-84060500D03*
D27*
X199707500Y-86600500D03*
D26*
X201485500Y-86600500D03*
X182689500Y-86600500D03*
D27*
X184467500Y-86600500D03*
X184467500Y-84060500D03*
D26*
X182689500Y-84060500D03*
D27*
X184467500Y-81520500D03*
D26*
X182689500Y-81520500D03*
X182689500Y-78980500D03*
D27*
X184467500Y-78980500D03*
X184467500Y-76440500D03*
D26*
X182689500Y-76440500D03*
D27*
X184467500Y-73900500D03*
D26*
X182689500Y-73900500D03*
D27*
X184467500Y-71360500D03*
D26*
X182689500Y-71360500D03*
X182689500Y-68820500D03*
D27*
X184467500Y-68820500D03*
X184467500Y-66280500D03*
D26*
X182689500Y-66280500D03*
D27*
X184467500Y-63740500D03*
D26*
X182689500Y-63740500D03*
D27*
X184467500Y-61200500D03*
D26*
X182689500Y-61200500D03*
D27*
X184467500Y-58660500D03*
D26*
X182689500Y-58660500D03*
M02*
