G04 #@! TF.GenerationSoftware,KiCad,Pcbnew,(6.0.1-0)*
G04 #@! TF.CreationDate,2023-03-21T08:23:48-07:00*
G04 #@! TF.ProjectId,pcb,7063622e-6b69-4636-9164-5f7063625858,rev?*
G04 #@! TF.SameCoordinates,Original*
G04 #@! TF.FileFunction,Profile,NP*
%FSLAX46Y46*%
G04 Gerber Fmt 4.6, Leading zero omitted, Abs format (unit mm)*
G04 Created by KiCad (PCBNEW (6.0.1-0)) date 2023-03-21 08:23:48*
%MOMM*%
%LPD*%
G01*
G04 APERTURE LIST*
G04 #@! TA.AperFunction,Profile*
%ADD10C,0.100000*%
G04 #@! TD*
G04 #@! TA.AperFunction,Profile*
%ADD11C,0.120000*%
G04 #@! TD*
G04 APERTURE END LIST*
D10*
X73818750Y-54768750D02*
X201612500Y-54768750D01*
X201612500Y-118665625D02*
X73818750Y-118665625D01*
X71437500Y-57150000D02*
X71437500Y-116284375D01*
X203993750Y-57150000D02*
G75*
G03*
X201612500Y-54768750I-2381250J0D01*
G01*
X203993750Y-57150000D02*
X203993750Y-116284375D01*
X201612500Y-118665625D02*
G75*
G03*
X203993750Y-116284375I0J2381250D01*
G01*
X71437500Y-116284375D02*
G75*
G03*
X73818750Y-118665625I2381250J0D01*
G01*
X73818750Y-54768750D02*
G75*
G03*
X71437500Y-57150000I0J-2381250D01*
G01*
D11*
X145837500Y-92767750D02*
X149437500Y-92767750D01*
X145837500Y-89667750D02*
X145837500Y-92767750D01*
X149437500Y-92767750D02*
X149437500Y-89667750D01*
X149437500Y-89667750D02*
X145837500Y-89667750D01*
X145837500Y-114992750D02*
X149437500Y-114992750D01*
X145837500Y-111892750D02*
X145837500Y-114992750D01*
X149437500Y-114992750D02*
X149437500Y-111892750D01*
X149437500Y-111892750D02*
X145837500Y-111892750D01*
X79162500Y-92767750D02*
X82762500Y-92767750D01*
X79162500Y-89667750D02*
X79162500Y-92767750D01*
X82762500Y-92767750D02*
X82762500Y-89667750D01*
X82762500Y-89667750D02*
X79162500Y-89667750D01*
X101387500Y-114992750D02*
X104987500Y-114992750D01*
X101387500Y-111892750D02*
X101387500Y-114992750D01*
X104987500Y-114992750D02*
X104987500Y-111892750D01*
X104987500Y-111892750D02*
X101387500Y-111892750D01*
X79162500Y-70542750D02*
X82762500Y-70542750D01*
X79162500Y-67442750D02*
X79162500Y-70542750D01*
X82762500Y-70542750D02*
X82762500Y-67442750D01*
X82762500Y-67442750D02*
X79162500Y-67442750D01*
X79162500Y-114992750D02*
X82762500Y-114992750D01*
X79162500Y-111892750D02*
X79162500Y-114992750D01*
X82762500Y-114992750D02*
X82762500Y-111892750D01*
X82762500Y-111892750D02*
X79162500Y-111892750D01*
X123612500Y-70542750D02*
X127212500Y-70542750D01*
X123612500Y-67442750D02*
X123612500Y-70542750D01*
X127212500Y-70542750D02*
X127212500Y-67442750D01*
X127212500Y-67442750D02*
X123612500Y-67442750D01*
X168062500Y-70542750D02*
X171662500Y-70542750D01*
X168062500Y-67442750D02*
X168062500Y-70542750D01*
X171662500Y-70542750D02*
X171662500Y-67442750D01*
X171662500Y-67442750D02*
X168062500Y-67442750D01*
X123612500Y-114992750D02*
X127212500Y-114992750D01*
X123612500Y-111892750D02*
X123612500Y-114992750D01*
X127212500Y-114992750D02*
X127212500Y-111892750D01*
X127212500Y-111892750D02*
X123612500Y-111892750D01*
X168062500Y-114992750D02*
X171662500Y-114992750D01*
X168062500Y-111892750D02*
X168062500Y-114992750D01*
X171662500Y-114992750D02*
X171662500Y-111892750D01*
X171662500Y-111892750D02*
X168062500Y-111892750D01*
X101387500Y-92767750D02*
X104987500Y-92767750D01*
X101387500Y-89667750D02*
X101387500Y-92767750D01*
X104987500Y-92767750D02*
X104987500Y-89667750D01*
X104987500Y-89667750D02*
X101387500Y-89667750D01*
X145837500Y-70542750D02*
X149437500Y-70542750D01*
X145837500Y-67442750D02*
X145837500Y-70542750D01*
X149437500Y-70542750D02*
X149437500Y-67442750D01*
X149437500Y-67442750D02*
X145837500Y-67442750D01*
X190287500Y-114992750D02*
X193887500Y-114992750D01*
X190287500Y-111892750D02*
X190287500Y-114992750D01*
X193887500Y-114992750D02*
X193887500Y-111892750D01*
X193887500Y-111892750D02*
X190287500Y-111892750D01*
X101387500Y-70542750D02*
X104987500Y-70542750D01*
X101387500Y-67442750D02*
X101387500Y-70542750D01*
X104987500Y-70542750D02*
X104987500Y-67442750D01*
X104987500Y-67442750D02*
X101387500Y-67442750D01*
X123612500Y-92767750D02*
X127212500Y-92767750D01*
X123612500Y-89667750D02*
X123612500Y-92767750D01*
X127212500Y-92767750D02*
X127212500Y-89667750D01*
X127212500Y-89667750D02*
X123612500Y-89667750D01*
X168062500Y-92767750D02*
X171662500Y-92767750D01*
X168062500Y-89667750D02*
X168062500Y-92767750D01*
X171662500Y-92767750D02*
X171662500Y-89667750D01*
X171662500Y-89667750D02*
X168062500Y-89667750D01*
M02*
