%FSLAX45Y45*%
G04 Gerber Fmt 4.5, Leading zero omitted, Abs format (unit mm)*
G04 Created by KiCad (PCBNEW (6.0.1-0)) date 2023-03-27 09:33:37*
%MOMM*%
%LPD*%
G01*
G04 APERTURE LIST*
%TA.AperFunction,Profile*%
%ADD10C,0.100000*%
%TD*%
%ADD11C,0.200000*%
%ADD12C,0.150000*%
%ADD13C,0.220000*%
G04 APERTURE END LIST*
D10*
X7381875Y-5476875D02*
X20161250Y-5476875D01*
X20161250Y-11866562D02*
X7381875Y-11866562D01*
X7143750Y-5715000D02*
X7143750Y-11628437D01*
X20399375Y-5715000D02*
G75*
G03*
X20161250Y-5476875I-238125J0D01*
G01*
X20399375Y-5715000D02*
X20399375Y-11628437D01*
X20161250Y-11866562D02*
G75*
G03*
X20399375Y-11628437I0J238125D01*
G01*
X7143750Y-11628437D02*
G75*
G03*
X7381875Y-11866562I238125J0D01*
G01*
X7381875Y-5476875D02*
G75*
G03*
X7143750Y-5715000I0J-238125D01*
G01*
D11*
D12*
X18573750Y-10799375D02*
X18723750Y-10949375D01*
X18723750Y-10799375D02*
X18573750Y-10949375D01*
D11*
X18713750Y-10939375D02*
X18713750Y-10809375D01*
X18583750Y-10939375D02*
X18583750Y-10809375D01*
X18713750Y-10809375D02*
G75*
G03*
X18583750Y-10809375I-65000J0D01*
G01*
X18583750Y-10939375D02*
G75*
G03*
X18713750Y-10939375I65000J0D01*
G01*
D12*
X19693750Y-10799375D02*
X19843750Y-10949375D01*
X19843750Y-10799375D02*
X19693750Y-10949375D01*
D11*
X19833750Y-10939375D02*
X19833750Y-10809375D01*
X19703750Y-10939375D02*
X19703750Y-10809375D01*
X19833750Y-10809375D02*
G75*
G03*
X19703750Y-10809375I-65000J0D01*
G01*
X19703750Y-10939375D02*
G75*
G03*
X19833750Y-10939375I65000J0D01*
G01*
D13*
X7690312Y-7540625D02*
G75*
G03*
X7690312Y-7540625I-110000J0D01*
G01*
X7690312Y-9763125D02*
G75*
G03*
X7690312Y-9763125I-110000J0D01*
G01*
X13762500Y-5992812D02*
G75*
G03*
X13762500Y-5992812I-110000J0D01*
G01*
X13762500Y-11350625D02*
G75*
G03*
X13762500Y-11350625I-110000J0D01*
G01*
X17850313Y-7540625D02*
G75*
G03*
X17850313Y-7540625I-110000J0D01*
G01*
X20072813Y-9683750D02*
G75*
G03*
X20072813Y-9683750I-110000J0D01*
G01*
D11*
X7396369Y-12182039D02*
X7396369Y-11982039D01*
X7443988Y-11982039D01*
X7472559Y-11991562D01*
X7491607Y-12010610D01*
X7501131Y-12029658D01*
X7510655Y-12067753D01*
X7510655Y-12096324D01*
X7501131Y-12134420D01*
X7491607Y-12153467D01*
X7472559Y-12172515D01*
X7443988Y-12182039D01*
X7396369Y-12182039D01*
X7596369Y-12182039D02*
X7596369Y-12048705D01*
X7596369Y-12086800D02*
X7605893Y-12067753D01*
X7615417Y-12058229D01*
X7634464Y-12048705D01*
X7653512Y-12048705D01*
X7720178Y-12182039D02*
X7720178Y-12048705D01*
X7720178Y-11982039D02*
X7710655Y-11991562D01*
X7720178Y-12001086D01*
X7729702Y-11991562D01*
X7720178Y-11982039D01*
X7720178Y-12001086D01*
X7843988Y-12182039D02*
X7824940Y-12172515D01*
X7815417Y-12153467D01*
X7815417Y-11982039D01*
X7948750Y-12182039D02*
X7929702Y-12172515D01*
X7920178Y-12153467D01*
X7920178Y-11982039D01*
X8177321Y-12182039D02*
X8177321Y-11982039D01*
X8243988Y-12124896D01*
X8310655Y-11982039D01*
X8310655Y-12182039D01*
X8491607Y-12182039D02*
X8491607Y-12077277D01*
X8482083Y-12058229D01*
X8463036Y-12048705D01*
X8424940Y-12048705D01*
X8405893Y-12058229D01*
X8491607Y-12172515D02*
X8472560Y-12182039D01*
X8424940Y-12182039D01*
X8405893Y-12172515D01*
X8396369Y-12153467D01*
X8396369Y-12134420D01*
X8405893Y-12115372D01*
X8424940Y-12105848D01*
X8472560Y-12105848D01*
X8491607Y-12096324D01*
X8586845Y-12048705D02*
X8586845Y-12248705D01*
X8586845Y-12058229D02*
X8605893Y-12048705D01*
X8643988Y-12048705D01*
X8663036Y-12058229D01*
X8672560Y-12067753D01*
X8682083Y-12086800D01*
X8682083Y-12143943D01*
X8672560Y-12162991D01*
X8663036Y-12172515D01*
X8643988Y-12182039D01*
X8605893Y-12182039D01*
X8586845Y-12172515D01*
X8767798Y-12162991D02*
X8777321Y-12172515D01*
X8767798Y-12182039D01*
X8758274Y-12172515D01*
X8767798Y-12162991D01*
X8767798Y-12182039D01*
X8767798Y-12058229D02*
X8777321Y-12067753D01*
X8767798Y-12077277D01*
X8758274Y-12067753D01*
X8767798Y-12058229D01*
X8767798Y-12077277D01*
D12*
X6988750Y-12436562D02*
X7138750Y-12586562D01*
X7138750Y-12436562D02*
X6988750Y-12586562D01*
D11*
X7501131Y-12602039D02*
X7386845Y-12602039D01*
X7443988Y-12602039D02*
X7443988Y-12402039D01*
X7424940Y-12430610D01*
X7405893Y-12449658D01*
X7386845Y-12459181D01*
X7586845Y-12582991D02*
X7596369Y-12592515D01*
X7586845Y-12602039D01*
X7577321Y-12592515D01*
X7586845Y-12582991D01*
X7586845Y-12602039D01*
X7777321Y-12402039D02*
X7682083Y-12402039D01*
X7672559Y-12497277D01*
X7682083Y-12487753D01*
X7701131Y-12478229D01*
X7748750Y-12478229D01*
X7767798Y-12487753D01*
X7777321Y-12497277D01*
X7786845Y-12516324D01*
X7786845Y-12563943D01*
X7777321Y-12582991D01*
X7767798Y-12592515D01*
X7748750Y-12602039D01*
X7701131Y-12602039D01*
X7682083Y-12592515D01*
X7672559Y-12582991D01*
X7910655Y-12402039D02*
X7929702Y-12402039D01*
X7948750Y-12411562D01*
X7958274Y-12421086D01*
X7967798Y-12440134D01*
X7977321Y-12478229D01*
X7977321Y-12525848D01*
X7967798Y-12563943D01*
X7958274Y-12582991D01*
X7948750Y-12592515D01*
X7929702Y-12602039D01*
X7910655Y-12602039D01*
X7891607Y-12592515D01*
X7882083Y-12582991D01*
X7872559Y-12563943D01*
X7863036Y-12525848D01*
X7863036Y-12478229D01*
X7872559Y-12440134D01*
X7882083Y-12421086D01*
X7891607Y-12411562D01*
X7910655Y-12402039D01*
X8101131Y-12402039D02*
X8120178Y-12402039D01*
X8139226Y-12411562D01*
X8148750Y-12421086D01*
X8158274Y-12440134D01*
X8167798Y-12478229D01*
X8167798Y-12525848D01*
X8158274Y-12563943D01*
X8148750Y-12582991D01*
X8139226Y-12592515D01*
X8120178Y-12602039D01*
X8101131Y-12602039D01*
X8082083Y-12592515D01*
X8072559Y-12582991D01*
X8063036Y-12563943D01*
X8053512Y-12525848D01*
X8053512Y-12478229D01*
X8063036Y-12440134D01*
X8072559Y-12421086D01*
X8082083Y-12411562D01*
X8101131Y-12402039D01*
X8253512Y-12602039D02*
X8253512Y-12468705D01*
X8253512Y-12487753D02*
X8263036Y-12478229D01*
X8282083Y-12468705D01*
X8310655Y-12468705D01*
X8329702Y-12478229D01*
X8339226Y-12497277D01*
X8339226Y-12602039D01*
X8339226Y-12497277D02*
X8348750Y-12478229D01*
X8367798Y-12468705D01*
X8396369Y-12468705D01*
X8415417Y-12478229D01*
X8424940Y-12497277D01*
X8424940Y-12602039D01*
X8520179Y-12602039D02*
X8520179Y-12468705D01*
X8520179Y-12487753D02*
X8529702Y-12478229D01*
X8548750Y-12468705D01*
X8577321Y-12468705D01*
X8596369Y-12478229D01*
X8605893Y-12497277D01*
X8605893Y-12602039D01*
X8605893Y-12497277D02*
X8615417Y-12478229D01*
X8634464Y-12468705D01*
X8663036Y-12468705D01*
X8682083Y-12478229D01*
X8691607Y-12497277D01*
X8691607Y-12602039D01*
X9082083Y-12392515D02*
X8910655Y-12649658D01*
X9339226Y-12402039D02*
X9358274Y-12402039D01*
X9377321Y-12411562D01*
X9386845Y-12421086D01*
X9396369Y-12440134D01*
X9405893Y-12478229D01*
X9405893Y-12525848D01*
X9396369Y-12563943D01*
X9386845Y-12582991D01*
X9377321Y-12592515D01*
X9358274Y-12602039D01*
X9339226Y-12602039D01*
X9320179Y-12592515D01*
X9310655Y-12582991D01*
X9301131Y-12563943D01*
X9291607Y-12525848D01*
X9291607Y-12478229D01*
X9301131Y-12440134D01*
X9310655Y-12421086D01*
X9320179Y-12411562D01*
X9339226Y-12402039D01*
X9491607Y-12582991D02*
X9501131Y-12592515D01*
X9491607Y-12602039D01*
X9482083Y-12592515D01*
X9491607Y-12582991D01*
X9491607Y-12602039D01*
X9624940Y-12402039D02*
X9643988Y-12402039D01*
X9663036Y-12411562D01*
X9672560Y-12421086D01*
X9682083Y-12440134D01*
X9691607Y-12478229D01*
X9691607Y-12525848D01*
X9682083Y-12563943D01*
X9672560Y-12582991D01*
X9663036Y-12592515D01*
X9643988Y-12602039D01*
X9624940Y-12602039D01*
X9605893Y-12592515D01*
X9596369Y-12582991D01*
X9586845Y-12563943D01*
X9577321Y-12525848D01*
X9577321Y-12478229D01*
X9586845Y-12440134D01*
X9596369Y-12421086D01*
X9605893Y-12411562D01*
X9624940Y-12402039D01*
X9872560Y-12402039D02*
X9777321Y-12402039D01*
X9767798Y-12497277D01*
X9777321Y-12487753D01*
X9796369Y-12478229D01*
X9843988Y-12478229D01*
X9863036Y-12487753D01*
X9872560Y-12497277D01*
X9882083Y-12516324D01*
X9882083Y-12563943D01*
X9872560Y-12582991D01*
X9863036Y-12592515D01*
X9843988Y-12602039D01*
X9796369Y-12602039D01*
X9777321Y-12592515D01*
X9767798Y-12582991D01*
X9977321Y-12602039D02*
X10015417Y-12602039D01*
X10034464Y-12592515D01*
X10043988Y-12582991D01*
X10063036Y-12554420D01*
X10072560Y-12516324D01*
X10072560Y-12440134D01*
X10063036Y-12421086D01*
X10053512Y-12411562D01*
X10034464Y-12402039D01*
X9996369Y-12402039D01*
X9977321Y-12411562D01*
X9967798Y-12421086D01*
X9958274Y-12440134D01*
X9958274Y-12487753D01*
X9967798Y-12506800D01*
X9977321Y-12516324D01*
X9996369Y-12525848D01*
X10034464Y-12525848D01*
X10053512Y-12516324D01*
X10063036Y-12506800D01*
X10072560Y-12487753D01*
X10263036Y-12602039D02*
X10148750Y-12602039D01*
X10205893Y-12602039D02*
X10205893Y-12402039D01*
X10186845Y-12430610D01*
X10167798Y-12449658D01*
X10148750Y-12459181D01*
X10339226Y-12402039D02*
X10339226Y-12440134D01*
X10415417Y-12402039D02*
X10415417Y-12440134D01*
X10710655Y-12678229D02*
X10701131Y-12668705D01*
X10682083Y-12640134D01*
X10672560Y-12621086D01*
X10663036Y-12592515D01*
X10653512Y-12544896D01*
X10653512Y-12506800D01*
X10663036Y-12459181D01*
X10672560Y-12430610D01*
X10682083Y-12411562D01*
X10701131Y-12382991D01*
X10710655Y-12373467D01*
X10824940Y-12402039D02*
X10843988Y-12402039D01*
X10863036Y-12411562D01*
X10872560Y-12421086D01*
X10882083Y-12440134D01*
X10891607Y-12478229D01*
X10891607Y-12525848D01*
X10882083Y-12563943D01*
X10872560Y-12582991D01*
X10863036Y-12592515D01*
X10843988Y-12602039D01*
X10824940Y-12602039D01*
X10805893Y-12592515D01*
X10796369Y-12582991D01*
X10786845Y-12563943D01*
X10777321Y-12525848D01*
X10777321Y-12478229D01*
X10786845Y-12440134D01*
X10796369Y-12421086D01*
X10805893Y-12411562D01*
X10824940Y-12402039D01*
X11129702Y-12602039D02*
X11129702Y-12402039D01*
X11215417Y-12602039D02*
X11215417Y-12497277D01*
X11205893Y-12478229D01*
X11186845Y-12468705D01*
X11158274Y-12468705D01*
X11139226Y-12478229D01*
X11129702Y-12487753D01*
X11339226Y-12602039D02*
X11320178Y-12592515D01*
X11310655Y-12582991D01*
X11301131Y-12563943D01*
X11301131Y-12506800D01*
X11310655Y-12487753D01*
X11320178Y-12478229D01*
X11339226Y-12468705D01*
X11367798Y-12468705D01*
X11386845Y-12478229D01*
X11396369Y-12487753D01*
X11405893Y-12506800D01*
X11405893Y-12563943D01*
X11396369Y-12582991D01*
X11386845Y-12592515D01*
X11367798Y-12602039D01*
X11339226Y-12602039D01*
X11520178Y-12602039D02*
X11501131Y-12592515D01*
X11491607Y-12573467D01*
X11491607Y-12402039D01*
X11672559Y-12592515D02*
X11653512Y-12602039D01*
X11615417Y-12602039D01*
X11596369Y-12592515D01*
X11586845Y-12573467D01*
X11586845Y-12497277D01*
X11596369Y-12478229D01*
X11615417Y-12468705D01*
X11653512Y-12468705D01*
X11672559Y-12478229D01*
X11682083Y-12497277D01*
X11682083Y-12516324D01*
X11586845Y-12535372D01*
X11758274Y-12592515D02*
X11777321Y-12602039D01*
X11815417Y-12602039D01*
X11834464Y-12592515D01*
X11843988Y-12573467D01*
X11843988Y-12563943D01*
X11834464Y-12544896D01*
X11815417Y-12535372D01*
X11786845Y-12535372D01*
X11767798Y-12525848D01*
X11758274Y-12506800D01*
X11758274Y-12497277D01*
X11767798Y-12478229D01*
X11786845Y-12468705D01*
X11815417Y-12468705D01*
X11834464Y-12478229D01*
X12082083Y-12525848D02*
X12234464Y-12525848D01*
X12158274Y-12602039D02*
X12158274Y-12449658D01*
X12472559Y-12421086D02*
X12482083Y-12411562D01*
X12501131Y-12402039D01*
X12548750Y-12402039D01*
X12567798Y-12411562D01*
X12577321Y-12421086D01*
X12586845Y-12440134D01*
X12586845Y-12459181D01*
X12577321Y-12487753D01*
X12463036Y-12602039D01*
X12586845Y-12602039D01*
X12815417Y-12592515D02*
X12834464Y-12602039D01*
X12872559Y-12602039D01*
X12891607Y-12592515D01*
X12901131Y-12573467D01*
X12901131Y-12563943D01*
X12891607Y-12544896D01*
X12872559Y-12535372D01*
X12843988Y-12535372D01*
X12824940Y-12525848D01*
X12815417Y-12506800D01*
X12815417Y-12497277D01*
X12824940Y-12478229D01*
X12843988Y-12468705D01*
X12872559Y-12468705D01*
X12891607Y-12478229D01*
X13015417Y-12602039D02*
X12996369Y-12592515D01*
X12986845Y-12573467D01*
X12986845Y-12402039D01*
X13120178Y-12602039D02*
X13101131Y-12592515D01*
X13091607Y-12582991D01*
X13082083Y-12563943D01*
X13082083Y-12506800D01*
X13091607Y-12487753D01*
X13101131Y-12478229D01*
X13120178Y-12468705D01*
X13148750Y-12468705D01*
X13167798Y-12478229D01*
X13177321Y-12487753D01*
X13186845Y-12506800D01*
X13186845Y-12563943D01*
X13177321Y-12582991D01*
X13167798Y-12592515D01*
X13148750Y-12602039D01*
X13120178Y-12602039D01*
X13243988Y-12468705D02*
X13320178Y-12468705D01*
X13272559Y-12402039D02*
X13272559Y-12573467D01*
X13282083Y-12592515D01*
X13301131Y-12602039D01*
X13320178Y-12602039D01*
X13377321Y-12592515D02*
X13396369Y-12602039D01*
X13434464Y-12602039D01*
X13453512Y-12592515D01*
X13463036Y-12573467D01*
X13463036Y-12563943D01*
X13453512Y-12544896D01*
X13434464Y-12535372D01*
X13405893Y-12535372D01*
X13386845Y-12525848D01*
X13377321Y-12506800D01*
X13377321Y-12497277D01*
X13386845Y-12478229D01*
X13405893Y-12468705D01*
X13434464Y-12468705D01*
X13453512Y-12478229D01*
X13529702Y-12678229D02*
X13539226Y-12668705D01*
X13558274Y-12640134D01*
X13567798Y-12621086D01*
X13577321Y-12592515D01*
X13586845Y-12544896D01*
X13586845Y-12506800D01*
X13577321Y-12459181D01*
X13567798Y-12430610D01*
X13558274Y-12411562D01*
X13539226Y-12382991D01*
X13529702Y-12373467D01*
X13891607Y-12678229D02*
X13882083Y-12668705D01*
X13863036Y-12640134D01*
X13853512Y-12621086D01*
X13843988Y-12592515D01*
X13834464Y-12544896D01*
X13834464Y-12506800D01*
X13843988Y-12459181D01*
X13853512Y-12430610D01*
X13863036Y-12411562D01*
X13882083Y-12382991D01*
X13891607Y-12373467D01*
X13967798Y-12468705D02*
X13967798Y-12602039D01*
X13967798Y-12487753D02*
X13977321Y-12478229D01*
X13996369Y-12468705D01*
X14024940Y-12468705D01*
X14043988Y-12478229D01*
X14053512Y-12497277D01*
X14053512Y-12602039D01*
X14177321Y-12602039D02*
X14158274Y-12592515D01*
X14148750Y-12582991D01*
X14139226Y-12563943D01*
X14139226Y-12506800D01*
X14148750Y-12487753D01*
X14158274Y-12478229D01*
X14177321Y-12468705D01*
X14205893Y-12468705D01*
X14224940Y-12478229D01*
X14234464Y-12487753D01*
X14243988Y-12506800D01*
X14243988Y-12563943D01*
X14234464Y-12582991D01*
X14224940Y-12592515D01*
X14205893Y-12602039D01*
X14177321Y-12602039D01*
X14301131Y-12468705D02*
X14377321Y-12468705D01*
X14329702Y-12402039D02*
X14329702Y-12573467D01*
X14339226Y-12592515D01*
X14358274Y-12602039D01*
X14377321Y-12602039D01*
X14596369Y-12468705D02*
X14596369Y-12668705D01*
X14596369Y-12478229D02*
X14615417Y-12468705D01*
X14653512Y-12468705D01*
X14672559Y-12478229D01*
X14682083Y-12487753D01*
X14691607Y-12506800D01*
X14691607Y-12563943D01*
X14682083Y-12582991D01*
X14672559Y-12592515D01*
X14653512Y-12602039D01*
X14615417Y-12602039D01*
X14596369Y-12592515D01*
X14805893Y-12602039D02*
X14786845Y-12592515D01*
X14777321Y-12573467D01*
X14777321Y-12402039D01*
X14967798Y-12602039D02*
X14967798Y-12497277D01*
X14958274Y-12478229D01*
X14939226Y-12468705D01*
X14901131Y-12468705D01*
X14882083Y-12478229D01*
X14967798Y-12592515D02*
X14948750Y-12602039D01*
X14901131Y-12602039D01*
X14882083Y-12592515D01*
X14872559Y-12573467D01*
X14872559Y-12554420D01*
X14882083Y-12535372D01*
X14901131Y-12525848D01*
X14948750Y-12525848D01*
X14967798Y-12516324D01*
X15034464Y-12468705D02*
X15110655Y-12468705D01*
X15063036Y-12402039D02*
X15063036Y-12573467D01*
X15072559Y-12592515D01*
X15091607Y-12602039D01*
X15110655Y-12602039D01*
X15253512Y-12592515D02*
X15234464Y-12602039D01*
X15196369Y-12602039D01*
X15177321Y-12592515D01*
X15167798Y-12573467D01*
X15167798Y-12497277D01*
X15177321Y-12478229D01*
X15196369Y-12468705D01*
X15234464Y-12468705D01*
X15253512Y-12478229D01*
X15263036Y-12497277D01*
X15263036Y-12516324D01*
X15167798Y-12535372D01*
X15434464Y-12602039D02*
X15434464Y-12402039D01*
X15434464Y-12592515D02*
X15415417Y-12602039D01*
X15377321Y-12602039D01*
X15358274Y-12592515D01*
X15348750Y-12582991D01*
X15339226Y-12563943D01*
X15339226Y-12506800D01*
X15348750Y-12487753D01*
X15358274Y-12478229D01*
X15377321Y-12468705D01*
X15415417Y-12468705D01*
X15434464Y-12478229D01*
X15510655Y-12678229D02*
X15520178Y-12668705D01*
X15539226Y-12640134D01*
X15548750Y-12621086D01*
X15558274Y-12592515D01*
X15567798Y-12544896D01*
X15567798Y-12506800D01*
X15558274Y-12459181D01*
X15548750Y-12430610D01*
X15539226Y-12411562D01*
X15520178Y-12382991D01*
X15510655Y-12373467D01*
X7138750Y-12781562D02*
G75*
G03*
X7138750Y-12781562I-100000J0D01*
G01*
X7386845Y-12691086D02*
X7396369Y-12681562D01*
X7415417Y-12672039D01*
X7463036Y-12672039D01*
X7482083Y-12681562D01*
X7491607Y-12691086D01*
X7501131Y-12710134D01*
X7501131Y-12729181D01*
X7491607Y-12757753D01*
X7377321Y-12872039D01*
X7501131Y-12872039D01*
X7586845Y-12852991D02*
X7596369Y-12862515D01*
X7586845Y-12872039D01*
X7577321Y-12862515D01*
X7586845Y-12852991D01*
X7586845Y-12872039D01*
X7672559Y-12691086D02*
X7682083Y-12681562D01*
X7701131Y-12672039D01*
X7748750Y-12672039D01*
X7767798Y-12681562D01*
X7777321Y-12691086D01*
X7786845Y-12710134D01*
X7786845Y-12729181D01*
X7777321Y-12757753D01*
X7663036Y-12872039D01*
X7786845Y-12872039D01*
X7910655Y-12672039D02*
X7929702Y-12672039D01*
X7948750Y-12681562D01*
X7958274Y-12691086D01*
X7967798Y-12710134D01*
X7977321Y-12748229D01*
X7977321Y-12795848D01*
X7967798Y-12833943D01*
X7958274Y-12852991D01*
X7948750Y-12862515D01*
X7929702Y-12872039D01*
X7910655Y-12872039D01*
X7891607Y-12862515D01*
X7882083Y-12852991D01*
X7872559Y-12833943D01*
X7863036Y-12795848D01*
X7863036Y-12748229D01*
X7872559Y-12710134D01*
X7882083Y-12691086D01*
X7891607Y-12681562D01*
X7910655Y-12672039D01*
X8101131Y-12672039D02*
X8120178Y-12672039D01*
X8139226Y-12681562D01*
X8148750Y-12691086D01*
X8158274Y-12710134D01*
X8167798Y-12748229D01*
X8167798Y-12795848D01*
X8158274Y-12833943D01*
X8148750Y-12852991D01*
X8139226Y-12862515D01*
X8120178Y-12872039D01*
X8101131Y-12872039D01*
X8082083Y-12862515D01*
X8072559Y-12852991D01*
X8063036Y-12833943D01*
X8053512Y-12795848D01*
X8053512Y-12748229D01*
X8063036Y-12710134D01*
X8072559Y-12691086D01*
X8082083Y-12681562D01*
X8101131Y-12672039D01*
X8253512Y-12872039D02*
X8253512Y-12738705D01*
X8253512Y-12757753D02*
X8263036Y-12748229D01*
X8282083Y-12738705D01*
X8310655Y-12738705D01*
X8329702Y-12748229D01*
X8339226Y-12767277D01*
X8339226Y-12872039D01*
X8339226Y-12767277D02*
X8348750Y-12748229D01*
X8367798Y-12738705D01*
X8396369Y-12738705D01*
X8415417Y-12748229D01*
X8424940Y-12767277D01*
X8424940Y-12872039D01*
X8520179Y-12872039D02*
X8520179Y-12738705D01*
X8520179Y-12757753D02*
X8529702Y-12748229D01*
X8548750Y-12738705D01*
X8577321Y-12738705D01*
X8596369Y-12748229D01*
X8605893Y-12767277D01*
X8605893Y-12872039D01*
X8605893Y-12767277D02*
X8615417Y-12748229D01*
X8634464Y-12738705D01*
X8663036Y-12738705D01*
X8682083Y-12748229D01*
X8691607Y-12767277D01*
X8691607Y-12872039D01*
X9082083Y-12662515D02*
X8910655Y-12919658D01*
X9339226Y-12672039D02*
X9358274Y-12672039D01*
X9377321Y-12681562D01*
X9386845Y-12691086D01*
X9396369Y-12710134D01*
X9405893Y-12748229D01*
X9405893Y-12795848D01*
X9396369Y-12833943D01*
X9386845Y-12852991D01*
X9377321Y-12862515D01*
X9358274Y-12872039D01*
X9339226Y-12872039D01*
X9320179Y-12862515D01*
X9310655Y-12852991D01*
X9301131Y-12833943D01*
X9291607Y-12795848D01*
X9291607Y-12748229D01*
X9301131Y-12710134D01*
X9310655Y-12691086D01*
X9320179Y-12681562D01*
X9339226Y-12672039D01*
X9491607Y-12852991D02*
X9501131Y-12862515D01*
X9491607Y-12872039D01*
X9482083Y-12862515D01*
X9491607Y-12852991D01*
X9491607Y-12872039D01*
X9624940Y-12672039D02*
X9643988Y-12672039D01*
X9663036Y-12681562D01*
X9672560Y-12691086D01*
X9682083Y-12710134D01*
X9691607Y-12748229D01*
X9691607Y-12795848D01*
X9682083Y-12833943D01*
X9672560Y-12852991D01*
X9663036Y-12862515D01*
X9643988Y-12872039D01*
X9624940Y-12872039D01*
X9605893Y-12862515D01*
X9596369Y-12852991D01*
X9586845Y-12833943D01*
X9577321Y-12795848D01*
X9577321Y-12748229D01*
X9586845Y-12710134D01*
X9596369Y-12691086D01*
X9605893Y-12681562D01*
X9624940Y-12672039D01*
X9805893Y-12757753D02*
X9786845Y-12748229D01*
X9777321Y-12738705D01*
X9767798Y-12719658D01*
X9767798Y-12710134D01*
X9777321Y-12691086D01*
X9786845Y-12681562D01*
X9805893Y-12672039D01*
X9843988Y-12672039D01*
X9863036Y-12681562D01*
X9872560Y-12691086D01*
X9882083Y-12710134D01*
X9882083Y-12719658D01*
X9872560Y-12738705D01*
X9863036Y-12748229D01*
X9843988Y-12757753D01*
X9805893Y-12757753D01*
X9786845Y-12767277D01*
X9777321Y-12776800D01*
X9767798Y-12795848D01*
X9767798Y-12833943D01*
X9777321Y-12852991D01*
X9786845Y-12862515D01*
X9805893Y-12872039D01*
X9843988Y-12872039D01*
X9863036Y-12862515D01*
X9872560Y-12852991D01*
X9882083Y-12833943D01*
X9882083Y-12795848D01*
X9872560Y-12776800D01*
X9863036Y-12767277D01*
X9843988Y-12757753D01*
X10053512Y-12672039D02*
X10015417Y-12672039D01*
X9996369Y-12681562D01*
X9986845Y-12691086D01*
X9967798Y-12719658D01*
X9958274Y-12757753D01*
X9958274Y-12833943D01*
X9967798Y-12852991D01*
X9977321Y-12862515D01*
X9996369Y-12872039D01*
X10034464Y-12872039D01*
X10053512Y-12862515D01*
X10063036Y-12852991D01*
X10072560Y-12833943D01*
X10072560Y-12786324D01*
X10063036Y-12767277D01*
X10053512Y-12757753D01*
X10034464Y-12748229D01*
X9996369Y-12748229D01*
X9977321Y-12757753D01*
X9967798Y-12767277D01*
X9958274Y-12786324D01*
X10243988Y-12672039D02*
X10205893Y-12672039D01*
X10186845Y-12681562D01*
X10177321Y-12691086D01*
X10158274Y-12719658D01*
X10148750Y-12757753D01*
X10148750Y-12833943D01*
X10158274Y-12852991D01*
X10167798Y-12862515D01*
X10186845Y-12872039D01*
X10224940Y-12872039D01*
X10243988Y-12862515D01*
X10253512Y-12852991D01*
X10263036Y-12833943D01*
X10263036Y-12786324D01*
X10253512Y-12767277D01*
X10243988Y-12757753D01*
X10224940Y-12748229D01*
X10186845Y-12748229D01*
X10167798Y-12757753D01*
X10158274Y-12767277D01*
X10148750Y-12786324D01*
X10339226Y-12672039D02*
X10339226Y-12710134D01*
X10415417Y-12672039D02*
X10415417Y-12710134D01*
X10710655Y-12948229D02*
X10701131Y-12938705D01*
X10682083Y-12910134D01*
X10672560Y-12891086D01*
X10663036Y-12862515D01*
X10653512Y-12814896D01*
X10653512Y-12776800D01*
X10663036Y-12729181D01*
X10672560Y-12700610D01*
X10682083Y-12681562D01*
X10701131Y-12652991D01*
X10710655Y-12643467D01*
X10872560Y-12672039D02*
X10834464Y-12672039D01*
X10815417Y-12681562D01*
X10805893Y-12691086D01*
X10786845Y-12719658D01*
X10777321Y-12757753D01*
X10777321Y-12833943D01*
X10786845Y-12852991D01*
X10796369Y-12862515D01*
X10815417Y-12872039D01*
X10853512Y-12872039D01*
X10872560Y-12862515D01*
X10882083Y-12852991D01*
X10891607Y-12833943D01*
X10891607Y-12786324D01*
X10882083Y-12767277D01*
X10872560Y-12757753D01*
X10853512Y-12748229D01*
X10815417Y-12748229D01*
X10796369Y-12757753D01*
X10786845Y-12767277D01*
X10777321Y-12786324D01*
X11129702Y-12872039D02*
X11129702Y-12672039D01*
X11215417Y-12872039D02*
X11215417Y-12767277D01*
X11205893Y-12748229D01*
X11186845Y-12738705D01*
X11158274Y-12738705D01*
X11139226Y-12748229D01*
X11129702Y-12757753D01*
X11339226Y-12872039D02*
X11320178Y-12862515D01*
X11310655Y-12852991D01*
X11301131Y-12833943D01*
X11301131Y-12776800D01*
X11310655Y-12757753D01*
X11320178Y-12748229D01*
X11339226Y-12738705D01*
X11367798Y-12738705D01*
X11386845Y-12748229D01*
X11396369Y-12757753D01*
X11405893Y-12776800D01*
X11405893Y-12833943D01*
X11396369Y-12852991D01*
X11386845Y-12862515D01*
X11367798Y-12872039D01*
X11339226Y-12872039D01*
X11520178Y-12872039D02*
X11501131Y-12862515D01*
X11491607Y-12843467D01*
X11491607Y-12672039D01*
X11672559Y-12862515D02*
X11653512Y-12872039D01*
X11615417Y-12872039D01*
X11596369Y-12862515D01*
X11586845Y-12843467D01*
X11586845Y-12767277D01*
X11596369Y-12748229D01*
X11615417Y-12738705D01*
X11653512Y-12738705D01*
X11672559Y-12748229D01*
X11682083Y-12767277D01*
X11682083Y-12786324D01*
X11586845Y-12805372D01*
X11758274Y-12862515D02*
X11777321Y-12872039D01*
X11815417Y-12872039D01*
X11834464Y-12862515D01*
X11843988Y-12843467D01*
X11843988Y-12833943D01*
X11834464Y-12814896D01*
X11815417Y-12805372D01*
X11786845Y-12805372D01*
X11767798Y-12795848D01*
X11758274Y-12776800D01*
X11758274Y-12767277D01*
X11767798Y-12748229D01*
X11786845Y-12738705D01*
X11815417Y-12738705D01*
X11834464Y-12748229D01*
X11910655Y-12948229D02*
X11920178Y-12938705D01*
X11939226Y-12910134D01*
X11948750Y-12891086D01*
X11958274Y-12862515D01*
X11967798Y-12814896D01*
X11967798Y-12776800D01*
X11958274Y-12729181D01*
X11948750Y-12700610D01*
X11939226Y-12681562D01*
X11920178Y-12652991D01*
X11910655Y-12643467D01*
X12272559Y-12948229D02*
X12263036Y-12938705D01*
X12243988Y-12910134D01*
X12234464Y-12891086D01*
X12224940Y-12862515D01*
X12215417Y-12814896D01*
X12215417Y-12776800D01*
X12224940Y-12729181D01*
X12234464Y-12700610D01*
X12243988Y-12681562D01*
X12263036Y-12652991D01*
X12272559Y-12643467D01*
X12348750Y-12738705D02*
X12348750Y-12872039D01*
X12348750Y-12757753D02*
X12358274Y-12748229D01*
X12377321Y-12738705D01*
X12405893Y-12738705D01*
X12424940Y-12748229D01*
X12434464Y-12767277D01*
X12434464Y-12872039D01*
X12558274Y-12872039D02*
X12539226Y-12862515D01*
X12529702Y-12852991D01*
X12520178Y-12833943D01*
X12520178Y-12776800D01*
X12529702Y-12757753D01*
X12539226Y-12748229D01*
X12558274Y-12738705D01*
X12586845Y-12738705D01*
X12605893Y-12748229D01*
X12615417Y-12757753D01*
X12624940Y-12776800D01*
X12624940Y-12833943D01*
X12615417Y-12852991D01*
X12605893Y-12862515D01*
X12586845Y-12872039D01*
X12558274Y-12872039D01*
X12682083Y-12738705D02*
X12758274Y-12738705D01*
X12710655Y-12672039D02*
X12710655Y-12843467D01*
X12720178Y-12862515D01*
X12739226Y-12872039D01*
X12758274Y-12872039D01*
X12977321Y-12738705D02*
X12977321Y-12938705D01*
X12977321Y-12748229D02*
X12996369Y-12738705D01*
X13034464Y-12738705D01*
X13053512Y-12748229D01*
X13063036Y-12757753D01*
X13072559Y-12776800D01*
X13072559Y-12833943D01*
X13063036Y-12852991D01*
X13053512Y-12862515D01*
X13034464Y-12872039D01*
X12996369Y-12872039D01*
X12977321Y-12862515D01*
X13186845Y-12872039D02*
X13167798Y-12862515D01*
X13158274Y-12843467D01*
X13158274Y-12672039D01*
X13348750Y-12872039D02*
X13348750Y-12767277D01*
X13339226Y-12748229D01*
X13320178Y-12738705D01*
X13282083Y-12738705D01*
X13263036Y-12748229D01*
X13348750Y-12862515D02*
X13329702Y-12872039D01*
X13282083Y-12872039D01*
X13263036Y-12862515D01*
X13253512Y-12843467D01*
X13253512Y-12824420D01*
X13263036Y-12805372D01*
X13282083Y-12795848D01*
X13329702Y-12795848D01*
X13348750Y-12786324D01*
X13415417Y-12738705D02*
X13491607Y-12738705D01*
X13443988Y-12672039D02*
X13443988Y-12843467D01*
X13453512Y-12862515D01*
X13472559Y-12872039D01*
X13491607Y-12872039D01*
X13634464Y-12862515D02*
X13615417Y-12872039D01*
X13577321Y-12872039D01*
X13558274Y-12862515D01*
X13548750Y-12843467D01*
X13548750Y-12767277D01*
X13558274Y-12748229D01*
X13577321Y-12738705D01*
X13615417Y-12738705D01*
X13634464Y-12748229D01*
X13643988Y-12767277D01*
X13643988Y-12786324D01*
X13548750Y-12805372D01*
X13815417Y-12872039D02*
X13815417Y-12672039D01*
X13815417Y-12862515D02*
X13796369Y-12872039D01*
X13758274Y-12872039D01*
X13739226Y-12862515D01*
X13729702Y-12852991D01*
X13720178Y-12833943D01*
X13720178Y-12776800D01*
X13729702Y-12757753D01*
X13739226Y-12748229D01*
X13758274Y-12738705D01*
X13796369Y-12738705D01*
X13815417Y-12748229D01*
X13891607Y-12948229D02*
X13901131Y-12938705D01*
X13920178Y-12910134D01*
X13929702Y-12891086D01*
X13939226Y-12862515D01*
X13948750Y-12814896D01*
X13948750Y-12776800D01*
X13939226Y-12729181D01*
X13929702Y-12700610D01*
X13920178Y-12681562D01*
X13901131Y-12652991D01*
X13891607Y-12643467D01*
M02*
