M48
; DRILL file {KiCad (6.0.1-0)} date Monday, March 27, 2023 at 09:33:35 AM
; FORMAT={-:-/ absolute / metric / decimal}
; #@! TF.CreationDate,2023-03-27T09:33:35-07:00
; #@! TF.GenerationSoftware,Kicad,Pcbnew,(6.0.1-0)
; #@! TF.FileFunction,Plated,1,2,PTH
FMAT,2
METRIC
; #@! TA.AperFunction,Plated,PTH,ViaDrill
T1C0.400
; #@! TA.AperFunction,Plated,PTH,ComponentDrill
T2C0.800
; #@! TA.AperFunction,Plated,PTH,ComponentDrill
T3C1.000
; #@! TA.AperFunction,Plated,PTH,ComponentDrill
T4C1.092
; #@! TA.AperFunction,Plated,PTH,ComponentDrill
T5C1.200
%
G90
G05
T1
X76.597Y-67.866
X76.597Y-93.662
X76.597Y-116.284
X78.212Y-91.661
X78.212Y-113.886
X83.712Y-68.036
X83.712Y-90.261
X98.822Y-67.866
X98.822Y-90.091
X98.822Y-112.316
X100.409Y-101.6
X100.438Y-69.436
X100.438Y-91.661
X105.938Y-69.436
X105.938Y-90.261
X105.938Y-91.661
X105.938Y-113.886
X105.966Y-72.628
X105.966Y-94.853
X105.966Y-117.078
X117.475Y-90.091
X117.872Y-112.316
X121.047Y-67.866
X121.047Y-90.091
X121.047Y-112.316
X122.634Y-91.678
X122.662Y-113.886
X128.162Y-68.036
X128.162Y-69.436
X128.162Y-90.261
X128.162Y-91.661
X128.162Y-113.886
X128.191Y-72.628
X128.191Y-94.853
X128.191Y-117.078
X143.272Y-67.866
X143.272Y-90.091
X143.272Y-112.316
X144.859Y-69.453
X144.859Y-91.678
X150.387Y-90.261
X150.387Y-91.661
X150.387Y-112.486
X150.387Y-113.886
X150.416Y-69.453
X150.416Y-72.628
X150.416Y-94.853
X150.416Y-117.078
X158.75Y-76.994
X161.925Y-90.091
X165.497Y-67.866
X165.497Y-90.091
X165.894Y-115.887
X167.112Y-91.661
X167.112Y-113.886
X172.612Y-68.036
X172.612Y-69.436
X172.612Y-90.261
X172.612Y-91.661
X172.612Y-113.886
X172.641Y-72.628
X172.641Y-94.853
X172.641Y-117.078
X179.387Y-72.628
X179.387Y-94.853
X179.387Y-116.284
X180.465Y-76.994
X180.479Y-75.031
X180.578Y-95.647
X180.975Y-93.662
X181.372Y-90.487
X187.722Y-112.316
T3
X90.487Y-63.569
X90.487Y-71.369
X90.487Y-85.862
X90.487Y-93.662
X90.487Y-108.087
X90.487Y-115.887
X93.662Y-63.569
X93.662Y-71.369
X93.662Y-85.862
X93.662Y-93.662
X93.662Y-108.087
X93.662Y-115.887
X114.3Y-63.637
X114.3Y-71.438
X114.3Y-85.862
X114.3Y-93.662
X114.3Y-108.087
X114.3Y-115.887
X136.525Y-63.637
X136.525Y-71.438
X136.525Y-85.862
X136.525Y-93.662
X136.525Y-102.275
X136.525Y-110.075
X158.75Y-63.637
X158.75Y-71.438
X158.75Y-85.862
X158.75Y-93.662
X158.75Y-108.087
X158.75Y-115.887
X180.975Y-108.087
X180.975Y-115.887
X189.137Y-93.161
X189.587Y-101.744
X189.587Y-116.244
X191.677Y-93.161
X192.087Y-116.244
X194.218Y-93.161
X194.587Y-101.744
X194.587Y-116.244
X196.757Y-93.161
T4
X184.468Y-58.66
X184.468Y-61.2
X184.468Y-63.74
X184.468Y-66.281
X184.468Y-68.82
X184.468Y-71.361
X184.468Y-73.9
X184.468Y-76.441
X184.468Y-78.98
X184.468Y-81.52
X184.468Y-84.06
X184.468Y-86.6
X199.707Y-58.66
X199.707Y-61.2
X199.707Y-63.74
X199.707Y-66.281
X199.707Y-68.82
X199.707Y-71.361
X199.707Y-73.9
X199.707Y-76.441
X199.707Y-78.98
X199.707Y-81.52
X199.707Y-84.06
X199.707Y-86.6
T5
X78.962Y-58.894
X78.962Y-81.119
X78.962Y-103.344
X85.542Y-59.194
X85.542Y-81.419
X85.542Y-103.644
X101.188Y-58.894
X101.188Y-81.119
X101.188Y-103.344
X107.767Y-59.194
X107.767Y-81.419
X107.767Y-103.644
X123.412Y-58.894
X123.412Y-81.119
X123.412Y-103.344
X129.993Y-59.194
X129.993Y-81.419
X129.993Y-103.644
X145.637Y-58.894
X145.637Y-81.119
X145.637Y-103.344
X152.218Y-59.194
X152.218Y-81.419
X152.218Y-103.644
X167.862Y-58.894
X167.862Y-81.119
X167.862Y-103.344
X174.442Y-59.194
X174.442Y-81.419
X174.442Y-103.644
X190.087Y-103.344
X196.667Y-103.644
T2
X75.672Y-69.244G85X75.672Y-68.844
G05
X75.672Y-91.469G85X75.672Y-91.069
G05
X75.672Y-113.694G85X75.672Y-113.294
G05
X86.252Y-69.244G85X86.252Y-68.844
G05
X86.252Y-91.469G85X86.252Y-91.069
G05
X86.252Y-113.694G85X86.252Y-113.294
G05
X97.897Y-69.244G85X97.897Y-68.844
G05
X97.897Y-91.469G85X97.897Y-91.069
G05
X97.897Y-113.694G85X97.897Y-113.294
G05
X108.477Y-69.244G85X108.477Y-68.844
G05
X108.477Y-91.469G85X108.477Y-91.069
G05
X108.477Y-113.694G85X108.477Y-113.294
G05
X120.122Y-69.244G85X120.122Y-68.844
G05
X120.122Y-91.469G85X120.122Y-91.069
G05
X120.122Y-113.694G85X120.122Y-113.294
G05
X130.702Y-69.244G85X130.702Y-68.844
G05
X130.702Y-91.469G85X130.702Y-91.069
G05
X130.702Y-113.694G85X130.702Y-113.294
G05
X142.347Y-69.244G85X142.347Y-68.844
G05
X142.347Y-91.469G85X142.347Y-91.069
G05
X142.347Y-113.694G85X142.347Y-113.294
G05
X152.927Y-69.244G85X152.927Y-68.844
G05
X152.927Y-91.469G85X152.927Y-91.069
G05
X152.927Y-113.694G85X152.927Y-113.294
G05
X164.572Y-69.244G85X164.572Y-68.844
G05
X164.572Y-91.469G85X164.572Y-91.069
G05
X164.572Y-113.694G85X164.572Y-113.294
G05
X175.153Y-69.244G85X175.153Y-68.844
G05
X175.153Y-91.469G85X175.153Y-91.069
G05
X175.153Y-113.694G85X175.153Y-113.294
G05
X186.797Y-113.694G85X186.797Y-113.294
G05
X197.377Y-113.694G85X197.377Y-113.294
G05
T0
M30
