<?xml version="1.0" standalone="no"?>
 <!DOCTYPE svg PUBLIC "-//W3C//DTD SVG 1.1//EN" 
 "http://www.w3.org/Graphics/SVG/1.1/DTD/svg11.dtd"> 
<svg
  xmlns:svg="http://www.w3.org/2000/svg"
  xmlns="http://www.w3.org/2000/svg"
  xmlns:xlink="http://www.w3.org/1999/xlink"
  version="1.1"
  width="13.401040cm" height="6.548120cm" viewBox="0 0 134010400 65481200">
<title>SVG Picture created as pcb-chocmini-brd.svg date 2023/04/07 06:52:05 </title>
  <desc>Picture generated by PCBNEW </desc>
<g style="fill:#000000; fill-opacity:1.000000;stroke:#000000; stroke-opacity:1.000000;
stroke-linecap:round; stroke-linejoin:round;"
 transform="translate(0 0) scale(1 1)">
</g>
<g style="fill:#000000; fill-opacity:0.0; 
stroke:#000000; stroke-width:0.000000; stroke-opacity:1; 
stroke-linecap:round; stroke-linejoin:round;">
<g >
</g>
<g >
</g>
<g >
</g>
<g >
</g>
<g >
</g>
<g >
</g>
<g >
</g>
<g >
</g>
<g >
</g>
<g >
</g>
<g >
</g>
<g >
</g>
<g >
</g>
<g >
</g>
<g >
</g>
<g >
</g>
<g >
</g>
<g >
</g>
<g >
</g>
<g >
</g>
<g >
</g>
<g >
</g>
<g >
</g>
<g >
</g>
<g >
</g>
<g >
</g>
<g >
</g>
<g >
</g>
<g >
</g>
<g >
</g>
<g >
</g>
<g >
</g>
<g >
</g>
<g >
</g>
<g >
</g>
<g >
</g>
<g >
</g>
<g >
</g>
<g >
</g>
<g >
</g>
<g >
</g>
<g >
</g>
<g >
</g>
<g >
</g>
<g >
</g>
</g>
<g style="fill:#000000; fill-opacity:0.0; 
stroke:#000000; stroke-width:0.000000; stroke-opacity:1; 
stroke-linecap:round; stroke-linejoin:round;">
</g>
<g style="fill:#C2C2C2; fill-opacity:0.0; 
stroke:#C2C2C2; stroke-width:0.000000; stroke-opacity:1; 
stroke-linecap:round; stroke-linejoin:round;">
</g>
<g style="fill:#C2C2C2; fill-opacity:0.0; 
stroke:#C2C2C2; stroke-width:50000.000000; stroke-opacity:1; 
stroke-linecap:round; stroke-linejoin:round;">
<path d="M62208184 62517250
L62208184 48517250
" />
<path d="M62208184 48517250
L47208184 48517250
" />
<path d="M47208184 48517250
L47208184 62517250
" />
<path d="M47208184 62517250
L62208184 62517250
" />
<circle cx="5098809.000000" cy="44404750.000000" r="2450000.000000" /> 
<circle cx="106698809.000000" cy="22179750.000000" r="2450000.000000" /> 
<path d="M2758184 62517250
L17758184 62517250
" />
<path d="M17758184 48517250
L2758184 48517250
" />
<path d="M2758184 48517250
L2758184 62517250
" />
<path d="M17758184 62517250
L17758184 48517250
" />
<path d="M39983184 26292250
L24983184 26292250
" />
<path d="M24983184 26292250
L24983184 40292250
" />
<path d="M24983184 40292250
L39983184 40292250
" />
<path d="M39983184 40292250
L39983184 26292250
" />
<path d="M91658184 48517250
L91658184 62517250
" />
<path d="M106658184 48517250
L91658184 48517250
" />
<path d="M106658184 62517250
L106658184 48517250
" />
<path d="M91658184 62517250
L106658184 62517250
" />
<path d="M106658184 18067250
L106658184 4067250
" />
<path d="M106658184 4067250
L91658184 4067250
" />
<path d="M91658184 4067250
L91658184 18067250
" />
<path d="M91658184 18067250
L106658184 18067250
" />
<path d="M106658184 40292250
L106658184 26292250
" />
<path d="M91658184 26292250
L91658184 40292250
" />
<path d="M91658184 40292250
L106658184 40292250
" />
<path d="M106658184 26292250
L91658184 26292250
" />
<path d="M39983184 62517250
L39983184 48517250
" />
<path d="M24983184 62517250
L39983184 62517250
" />
<path d="M24983184 48517250
L24983184 62517250
" />
<path d="M39983184 48517250
L24983184 48517250
" />
</g>
<g style="fill:#C2C2C2; fill-opacity:0.0; 
stroke:#C2C2C2; stroke-width:120000.000000; stroke-opacity:1; 
stroke-linecap:round; stroke-linejoin:round;">
<path d="M128263184 41204250
L128263184 3155250
" />
<path d="M116223184 41204250
L116223184 3155250
" />
<path d="M116223184 3155250
L128263184 3155250
" />
<path d="M116223184 41204250
L128263184 41204250
" />
</g>
<g style="fill:#C2C2C2; fill-opacity:0.0; 
stroke:#C2C2C2; stroke-width:50000.000000; stroke-opacity:1; 
stroke-linecap:round; stroke-linejoin:round;">
<path d="M113883184 62517250
L128883184 62517250
" />
<path d="M113883184 48517250
L113883184 62517250
" />
<path d="M128883184 62517250
L128883184 48517250
" />
<path d="M128883184 48517250
L113883184 48517250
" />
<circle cx="128923809.000000" cy="43611000.000000" r="2450000.000000" /> 
<circle cx="65820684.000000" cy="60279750.000000" r="2450000.000000" /> 
<path d="M84433184 40292250
L84433184 26292250
" />
<path d="M69433184 40292250
L84433184 40292250
" />
<path d="M69433184 26292250
L69433184 40292250
" />
<path d="M84433184 26292250
L69433184 26292250
" />
<path d="M69433184 48517250
L69433184 62517250
" />
<path d="M84433184 62517250
L84433184 48517250
" />
<path d="M69433184 62517250
L84433184 62517250
" />
<path d="M84433184 48517250
L69433184 48517250
" />
<path d="M17758184 26292250
L2758184 26292250
" />
<path d="M17758184 40292250
L17758184 26292250
" />
<path d="M2758184 26292250
L2758184 40292250
" />
<path d="M2758184 40292250
L17758184 40292250
" />
<path d="M2758184 18067250
L17758184 18067250
" />
<path d="M17758184 18067250
L17758184 4067250
" />
<path d="M2758184 4067250
L2758184 18067250
" />
<path d="M17758184 4067250
L2758184 4067250
" />
<path d="M39983184 4067250
L24983184 4067250
" />
<path d="M24983184 4067250
L24983184 18067250
" />
<path d="M39983184 18067250
L39983184 4067250
" />
<path d="M24983184 18067250
L39983184 18067250
" />
<path d="M69433184 18067250
L84433184 18067250
" />
<path d="M69433184 4067250
L69433184 18067250
" />
<path d="M84433184 4067250
L69433184 4067250
" />
<path d="M84433184 18067250
L84433184 4067250
" />
<circle cx="65820684.000000" cy="6701625.000000" r="2450000.000000" /> 
<path d="M128483184 47017250
L128483184 64517250
" />
<path d="M114283184 64517250
L114283184 47017250
" />
<path d="M114283184 64517250
L128483184 64517250
" />
<path d="M128483184 47017250
L114283184 47017250
" />
<path d="M47208184 26292250
L47208184 40292250
" />
<path d="M62208184 26292250
L47208184 26292250
" />
<path d="M47208184 40292250
L62208184 40292250
" />
<path d="M62208184 40292250
L62208184 26292250
" />
<circle cx="5098809.000000" cy="22179750.000000" r="2450000.000000" /> 
<path d="M47208184 18067250
L62208184 18067250
" />
<path d="M62208184 4067250
L47208184 4067250
" />
<path d="M47208184 4067250
L47208184 18067250
" />
<path d="M62208184 18067250
L62208184 4067250
" />
<g >
</g>
<g >
</g>
<g >
</g>
<g >
</g>
<g >
</g>
<g >
</g>
<g >
</g>
<g >
</g>
<g >
</g>
<g >
</g>
<g >
</g>
<g >
</g>
<g >
</g>
<g >
</g>
<g >
</g>
<g >
</g>
<g >
</g>
<g >
</g>
<g >
</g>
<g >
</g>
<g >
</g>
<g >
</g>
<g >
</g>
<g >
</g>
<g >
</g>
<g >
</g>
<g >
</g>
<g >
</g>
<g >
</g>
<g >
</g>
<g >
</g>
<g >
</g>
<g >
</g>
<g >
</g>
<g >
</g>
<g >
</g>
<g >
</g>
<g >
</g>
<g >
</g>
<g >
</g>
<g >
</g>
<g >
</g>
<g >
</g>
<g >
</g>
<g >
</g>
</g>
<g style="fill:#000000; fill-opacity:0.0; 
stroke:#000000; stroke-width:50000.000000; stroke-opacity:1; 
stroke-linecap:round; stroke-linejoin:round;">
</g>
<g style="fill:#C2C2C2; fill-opacity:0.0; 
stroke:#C2C2C2; stroke-width:50000.000000; stroke-opacity:1; 
stroke-linecap:round; stroke-linejoin:round;">
</g>
<g style="fill:#C2C2C2; fill-opacity:0.0; 
stroke:#C2C2C2; stroke-width:150000.000000; stroke-opacity:1; 
stroke-linecap:round; stroke-linejoin:round;">
<text x="54708184.000000" y="64517250.000000"
textLength="4195000.000000" font-size="1333333.000000" lengthAdjust="spacingAndGlyphs"
text-anchor="middle" opacity="0">SW22</text>
<g class="stroked-text"><desc>SW22</desc>
<path d="M52898660 64422011
L53041517 64469630
L53279612 64469630
L53374850 64422011
L53422469 64374392
L53470088 64279154
L53470088 64183916
L53422469 64088678
L53374850 64041059
L53279612 63993440
L53089136 63945821
L52993898 63898202
L52946279 63850583
L52898660 63755345
L52898660 63660107
L52946279 63564869
L52993898 63517250
L53089136 63469630
L53327231 63469630
L53470088 63517250
" />
<path d="M53803422 63469630
L54041517 64469630
L54231993 63755345
L54422469 64469630
L54660564 63469630
" />
<path d="M54993898 63564869
L55041517 63517250
L55136755 63469630
L55374850 63469630
L55470088 63517250
L55517707 63564869
L55565326 63660107
L55565326 63755345
L55517707 63898202
L54946279 64469630
L55565326 64469630
" />
<path d="M55946279 63564869
L55993898 63517250
L56089136 63469630
L56327231 63469630
L56422469 63517250
L56470088 63564869
L56517707 63660107
L56517707 63755345
L56470088 63898202
L55898660 64469630
L56517707 64469630
" />
</g><text x="10258184.000000" y="64517250.000000"
textLength="4195000.000000" font-size="1333333.000000" lengthAdjust="spacingAndGlyphs"
text-anchor="middle" opacity="0">SW20</text>
<g class="stroked-text"><desc>SW20</desc>
<path d="M8448660 64422011
L8591517 64469630
L8829612 64469630
L8924850 64422011
L8972469 64374392
L9020088 64279154
L9020088 64183916
L8972469 64088678
L8924850 64041059
L8829612 63993440
L8639136 63945821
L8543898 63898202
L8496279 63850583
L8448660 63755345
L8448660 63660107
L8496279 63564869
L8543898 63517250
L8639136 63469630
L8877231 63469630
L9020088 63517250
" />
<path d="M9353422 63469630
L9591517 64469630
L9781993 63755345
L9972469 64469630
L10210564 63469630
" />
<path d="M10543898 63564869
L10591517 63517250
L10686755 63469630
L10924850 63469630
L11020088 63517250
L11067707 63564869
L11115326 63660107
L11115326 63755345
L11067707 63898202
L10496279 64469630
L11115326 64469630
" />
<path d="M11734374 63469630
L11829612 63469630
L11924850 63517250
L11972469 63564869
L12020088 63660107
L12067707 63850583
L12067707 64088678
L12020088 64279154
L11972469 64374392
L11924850 64422011
L11829612 64469630
L11734374 64469630
L11639136 64422011
L11591517 64374392
L11543898 64279154
L11496279 64088678
L11496279 63850583
L11543898 63660107
L11591517 63564869
L11639136 63517250
L11734374 63469630
" />
</g><text x="32483184.000000" y="42292250.000000"
textLength="4195000.000000" font-size="1333333.000000" lengthAdjust="spacingAndGlyphs"
text-anchor="middle" opacity="0">SW11</text>
<g class="stroked-text"><desc>SW11</desc>
<path d="M30673660 42197011
L30816517 42244630
L31054612 42244630
L31149850 42197011
L31197469 42149392
L31245088 42054154
L31245088 41958916
L31197469 41863678
L31149850 41816059
L31054612 41768440
L30864136 41720821
L30768898 41673202
L30721279 41625583
L30673660 41530345
L30673660 41435107
L30721279 41339869
L30768898 41292250
L30864136 41244630
L31102231 41244630
L31245088 41292250
" />
<path d="M31578422 41244630
L31816517 42244630
L32006993 41530345
L32197469 42244630
L32435564 41244630
" />
<path d="M33340326 42244630
L32768898 42244630
" />
<path d="M33054612 42244630
L33054612 41244630
L32959374 41387488
L32864136 41482726
L32768898 41530345
" />
<path d="M34292707 42244630
L33721279 42244630
" />
<path d="M34006993 42244630
L34006993 41244630
L33911755 41387488
L33816517 41482726
L33721279 41530345
" />
</g><text x="99158184.000000" y="64517250.000000"
textLength="4195000.000000" font-size="1333333.000000" lengthAdjust="spacingAndGlyphs"
text-anchor="middle" opacity="0">SW24</text>
<g class="stroked-text"><desc>SW24</desc>
<path d="M97348660 64422011
L97491517 64469630
L97729612 64469630
L97824850 64422011
L97872469 64374392
L97920088 64279154
L97920088 64183916
L97872469 64088678
L97824850 64041059
L97729612 63993440
L97539136 63945821
L97443898 63898202
L97396279 63850583
L97348660 63755345
L97348660 63660107
L97396279 63564869
L97443898 63517250
L97539136 63469630
L97777231 63469630
L97920088 63517250
" />
<path d="M98253422 63469630
L98491517 64469630
L98681993 63755345
L98872469 64469630
L99110564 63469630
" />
<path d="M99443898 63564869
L99491517 63517250
L99586755 63469630
L99824850 63469630
L99920088 63517250
L99967707 63564869
L100015326 63660107
L100015326 63755345
L99967707 63898202
L99396279 64469630
L100015326 64469630
" />
<path d="M100872469 63802964
L100872469 64469630
" />
<path d="M100634374 63422011
L100396279 64136297
L101015326 64136297
" />
</g><text x="99158184.000000" y="20067250.000000"
textLength="4195000.000000" font-size="1333333.000000" lengthAdjust="spacingAndGlyphs"
text-anchor="middle" opacity="0">SW04</text>
<g class="stroked-text"><desc>SW04</desc>
<path d="M97348660 19972011
L97491517 20019630
L97729612 20019630
L97824850 19972011
L97872469 19924392
L97920088 19829154
L97920088 19733916
L97872469 19638678
L97824850 19591059
L97729612 19543440
L97539136 19495821
L97443898 19448202
L97396279 19400583
L97348660 19305345
L97348660 19210107
L97396279 19114869
L97443898 19067250
L97539136 19019630
L97777231 19019630
L97920088 19067250
" />
<path d="M98253422 19019630
L98491517 20019630
L98681993 19305345
L98872469 20019630
L99110564 19019630
" />
<path d="M99681993 19019630
L99777231 19019630
L99872469 19067250
L99920088 19114869
L99967707 19210107
L100015326 19400583
L100015326 19638678
L99967707 19829154
L99920088 19924392
L99872469 19972011
L99777231 20019630
L99681993 20019630
L99586755 19972011
L99539136 19924392
L99491517 19829154
L99443898 19638678
L99443898 19400583
L99491517 19210107
L99539136 19114869
L99586755 19067250
L99681993 19019630
" />
<path d="M100872469 19352964
L100872469 20019630
" />
<path d="M100634374 18972011
L100396279 19686297
L101015326 19686297
" />
</g><text x="99158184.000000" y="42292250.000000"
textLength="4195000.000000" font-size="1333333.000000" lengthAdjust="spacingAndGlyphs"
text-anchor="middle" opacity="0">SW14</text>
<g class="stroked-text"><desc>SW14</desc>
<path d="M97348660 42197011
L97491517 42244630
L97729612 42244630
L97824850 42197011
L97872469 42149392
L97920088 42054154
L97920088 41958916
L97872469 41863678
L97824850 41816059
L97729612 41768440
L97539136 41720821
L97443898 41673202
L97396279 41625583
L97348660 41530345
L97348660 41435107
L97396279 41339869
L97443898 41292250
L97539136 41244630
L97777231 41244630
L97920088 41292250
" />
<path d="M98253422 41244630
L98491517 42244630
L98681993 41530345
L98872469 42244630
L99110564 41244630
" />
<path d="M100015326 42244630
L99443898 42244630
" />
<path d="M99729612 42244630
L99729612 41244630
L99634374 41387488
L99539136 41482726
L99443898 41530345
" />
<path d="M100872469 41577964
L100872469 42244630
" />
<path d="M100634374 41197011
L100396279 41911297
L101015326 41911297
" />
</g><text x="32483184.000000" y="64517250.000000"
textLength="4195000.000000" font-size="1333333.000000" lengthAdjust="spacingAndGlyphs"
text-anchor="middle" opacity="0">SW21</text>
<g class="stroked-text"><desc>SW21</desc>
<path d="M30673660 64422011
L30816517 64469630
L31054612 64469630
L31149850 64422011
L31197469 64374392
L31245088 64279154
L31245088 64183916
L31197469 64088678
L31149850 64041059
L31054612 63993440
L30864136 63945821
L30768898 63898202
L30721279 63850583
L30673660 63755345
L30673660 63660107
L30721279 63564869
L30768898 63517250
L30864136 63469630
L31102231 63469630
L31245088 63517250
" />
<path d="M31578422 63469630
L31816517 64469630
L32006993 63755345
L32197469 64469630
L32435564 63469630
" />
<path d="M32768898 63564869
L32816517 63517250
L32911755 63469630
L33149850 63469630
L33245088 63517250
L33292707 63564869
L33340326 63660107
L33340326 63755345
L33292707 63898202
L32721279 64469630
L33340326 64469630
" />
<path d="M34292707 64469630
L33721279 64469630
" />
<path d="M34006993 64469630
L34006993 63469630
L33911755 63612488
L33816517 63707726
L33721279 63755345
" />
</g><text x="121383184.000000" y="64517250.000000"
textLength="4195000.000000" font-size="1333333.000000" lengthAdjust="spacingAndGlyphs"
text-anchor="middle" opacity="0">SW34</text>
<g class="stroked-text"><desc>SW34</desc>
<path d="M119573660 64422011
L119716517 64469630
L119954612 64469630
L120049850 64422011
L120097469 64374392
L120145088 64279154
L120145088 64183916
L120097469 64088678
L120049850 64041059
L119954612 63993440
L119764136 63945821
L119668898 63898202
L119621279 63850583
L119573660 63755345
L119573660 63660107
L119621279 63564869
L119668898 63517250
L119764136 63469630
L120002231 63469630
L120145088 63517250
" />
<path d="M120478422 63469630
L120716517 64469630
L120906993 63755345
L121097469 64469630
L121335564 63469630
" />
<path d="M121621279 63469630
L122240326 63469630
L121906993 63850583
L122049850 63850583
L122145088 63898202
L122192707 63945821
L122240326 64041059
L122240326 64279154
L122192707 64374392
L122145088 64422011
L122049850 64469630
L121764136 64469630
L121668898 64422011
L121621279 64374392
" />
<path d="M123097469 63802964
L123097469 64469630
" />
<path d="M122859374 63422011
L122621279 64136297
L123240326 64136297
" />
</g><text x="76933184.000000" y="42292250.000000"
textLength="4195000.000000" font-size="1333333.000000" lengthAdjust="spacingAndGlyphs"
text-anchor="middle" opacity="0">SW13</text>
<g class="stroked-text"><desc>SW13</desc>
<path d="M75123660 42197011
L75266517 42244630
L75504612 42244630
L75599850 42197011
L75647469 42149392
L75695088 42054154
L75695088 41958916
L75647469 41863678
L75599850 41816059
L75504612 41768440
L75314136 41720821
L75218898 41673202
L75171279 41625583
L75123660 41530345
L75123660 41435107
L75171279 41339869
L75218898 41292250
L75314136 41244630
L75552231 41244630
L75695088 41292250
" />
<path d="M76028422 41244630
L76266517 42244630
L76456993 41530345
L76647469 42244630
L76885564 41244630
" />
<path d="M77790326 42244630
L77218898 42244630
" />
<path d="M77504612 42244630
L77504612 41244630
L77409374 41387488
L77314136 41482726
L77218898 41530345
" />
<path d="M78123660 41244630
L78742707 41244630
L78409374 41625583
L78552231 41625583
L78647469 41673202
L78695088 41720821
L78742707 41816059
L78742707 42054154
L78695088 42149392
L78647469 42197011
L78552231 42244630
L78266517 42244630
L78171279 42197011
L78123660 42149392
" />
</g><text x="76933184.000000" y="64517250.000000"
textLength="4195000.000000" font-size="1333333.000000" lengthAdjust="spacingAndGlyphs"
text-anchor="middle" opacity="0">SW23</text>
<g class="stroked-text"><desc>SW23</desc>
<path d="M75123660 64422011
L75266517 64469630
L75504612 64469630
L75599850 64422011
L75647469 64374392
L75695088 64279154
L75695088 64183916
L75647469 64088678
L75599850 64041059
L75504612 63993440
L75314136 63945821
L75218898 63898202
L75171279 63850583
L75123660 63755345
L75123660 63660107
L75171279 63564869
L75218898 63517250
L75314136 63469630
L75552231 63469630
L75695088 63517250
" />
<path d="M76028422 63469630
L76266517 64469630
L76456993 63755345
L76647469 64469630
L76885564 63469630
" />
<path d="M77218898 63564869
L77266517 63517250
L77361755 63469630
L77599850 63469630
L77695088 63517250
L77742707 63564869
L77790326 63660107
L77790326 63755345
L77742707 63898202
L77171279 64469630
L77790326 64469630
" />
<path d="M78123660 63469630
L78742707 63469630
L78409374 63850583
L78552231 63850583
L78647469 63898202
L78695088 63945821
L78742707 64041059
L78742707 64279154
L78695088 64374392
L78647469 64422011
L78552231 64469630
L78266517 64469630
L78171279 64422011
L78123660 64374392
" />
</g><text x="10258184.000000" y="42292250.000000"
textLength="4195000.000000" font-size="1333333.000000" lengthAdjust="spacingAndGlyphs"
text-anchor="middle" opacity="0">SW10</text>
<g class="stroked-text"><desc>SW10</desc>
<path d="M8448660 42197011
L8591517 42244630
L8829612 42244630
L8924850 42197011
L8972469 42149392
L9020088 42054154
L9020088 41958916
L8972469 41863678
L8924850 41816059
L8829612 41768440
L8639136 41720821
L8543898 41673202
L8496279 41625583
L8448660 41530345
L8448660 41435107
L8496279 41339869
L8543898 41292250
L8639136 41244630
L8877231 41244630
L9020088 41292250
" />
<path d="M9353422 41244630
L9591517 42244630
L9781993 41530345
L9972469 42244630
L10210564 41244630
" />
<path d="M11115326 42244630
L10543898 42244630
" />
<path d="M10829612 42244630
L10829612 41244630
L10734374 41387488
L10639136 41482726
L10543898 41530345
" />
<path d="M11734374 41244630
L11829612 41244630
L11924850 41292250
L11972469 41339869
L12020088 41435107
L12067707 41625583
L12067707 41863678
L12020088 42054154
L11972469 42149392
L11924850 42197011
L11829612 42244630
L11734374 42244630
L11639136 42197011
L11591517 42149392
L11543898 42054154
L11496279 41863678
L11496279 41625583
L11543898 41435107
L11591517 41339869
L11639136 41292250
L11734374 41244630
" />
</g><text x="10258184.000000" y="20067250.000000"
textLength="4195000.000000" font-size="1333333.000000" lengthAdjust="spacingAndGlyphs"
text-anchor="middle" opacity="0">SW00</text>
<g class="stroked-text"><desc>SW00</desc>
<path d="M8448660 19972011
L8591517 20019630
L8829612 20019630
L8924850 19972011
L8972469 19924392
L9020088 19829154
L9020088 19733916
L8972469 19638678
L8924850 19591059
L8829612 19543440
L8639136 19495821
L8543898 19448202
L8496279 19400583
L8448660 19305345
L8448660 19210107
L8496279 19114869
L8543898 19067250
L8639136 19019630
L8877231 19019630
L9020088 19067250
" />
<path d="M9353422 19019630
L9591517 20019630
L9781993 19305345
L9972469 20019630
L10210564 19019630
" />
<path d="M10781993 19019630
L10877231 19019630
L10972469 19067250
L11020088 19114869
L11067707 19210107
L11115326 19400583
L11115326 19638678
L11067707 19829154
L11020088 19924392
L10972469 19972011
L10877231 20019630
L10781993 20019630
L10686755 19972011
L10639136 19924392
L10591517 19829154
L10543898 19638678
L10543898 19400583
L10591517 19210107
L10639136 19114869
L10686755 19067250
L10781993 19019630
" />
<path d="M11734374 19019630
L11829612 19019630
L11924850 19067250
L11972469 19114869
L12020088 19210107
L12067707 19400583
L12067707 19638678
L12020088 19829154
L11972469 19924392
L11924850 19972011
L11829612 20019630
L11734374 20019630
L11639136 19972011
L11591517 19924392
L11543898 19829154
L11496279 19638678
L11496279 19400583
L11543898 19210107
L11591517 19114869
L11639136 19067250
L11734374 19019630
" />
</g><text x="32483184.000000" y="20067250.000000"
textLength="4195000.000000" font-size="1333333.000000" lengthAdjust="spacingAndGlyphs"
text-anchor="middle" opacity="0">SW01</text>
<g class="stroked-text"><desc>SW01</desc>
<path d="M30673660 19972011
L30816517 20019630
L31054612 20019630
L31149850 19972011
L31197469 19924392
L31245088 19829154
L31245088 19733916
L31197469 19638678
L31149850 19591059
L31054612 19543440
L30864136 19495821
L30768898 19448202
L30721279 19400583
L30673660 19305345
L30673660 19210107
L30721279 19114869
L30768898 19067250
L30864136 19019630
L31102231 19019630
L31245088 19067250
" />
<path d="M31578422 19019630
L31816517 20019630
L32006993 19305345
L32197469 20019630
L32435564 19019630
" />
<path d="M33006993 19019630
L33102231 19019630
L33197469 19067250
L33245088 19114869
L33292707 19210107
L33340326 19400583
L33340326 19638678
L33292707 19829154
L33245088 19924392
L33197469 19972011
L33102231 20019630
L33006993 20019630
L32911755 19972011
L32864136 19924392
L32816517 19829154
L32768898 19638678
L32768898 19400583
L32816517 19210107
L32864136 19114869
L32911755 19067250
L33006993 19019630
" />
<path d="M34292707 20019630
L33721279 20019630
" />
<path d="M34006993 20019630
L34006993 19019630
L33911755 19162488
L33816517 19257726
L33721279 19305345
" />
</g><text x="76933184.000000" y="20067250.000000"
textLength="4195000.000000" font-size="1333333.000000" lengthAdjust="spacingAndGlyphs"
text-anchor="middle" opacity="0">SW03</text>
<g class="stroked-text"><desc>SW03</desc>
<path d="M75123660 19972011
L75266517 20019630
L75504612 20019630
L75599850 19972011
L75647469 19924392
L75695088 19829154
L75695088 19733916
L75647469 19638678
L75599850 19591059
L75504612 19543440
L75314136 19495821
L75218898 19448202
L75171279 19400583
L75123660 19305345
L75123660 19210107
L75171279 19114869
L75218898 19067250
L75314136 19019630
L75552231 19019630
L75695088 19067250
" />
<path d="M76028422 19019630
L76266517 20019630
L76456993 19305345
L76647469 20019630
L76885564 19019630
" />
<path d="M77456993 19019630
L77552231 19019630
L77647469 19067250
L77695088 19114869
L77742707 19210107
L77790326 19400583
L77790326 19638678
L77742707 19829154
L77695088 19924392
L77647469 19972011
L77552231 20019630
L77456993 20019630
L77361755 19972011
L77314136 19924392
L77266517 19829154
L77218898 19638678
L77218898 19400583
L77266517 19210107
L77314136 19114869
L77361755 19067250
L77456993 19019630
" />
<path d="M78123660 19019630
L78742707 19019630
L78409374 19400583
L78552231 19400583
L78647469 19448202
L78695088 19495821
L78742707 19591059
L78742707 19829154
L78695088 19924392
L78647469 19972011
L78552231 20019630
L78266517 20019630
L78171279 19972011
L78123660 19924392
" />
</g><text x="54708184.000000" y="42292250.000000"
textLength="4195000.000000" font-size="1333333.000000" lengthAdjust="spacingAndGlyphs"
text-anchor="middle" opacity="0">SW12</text>
<g class="stroked-text"><desc>SW12</desc>
<path d="M52898660 42197011
L53041517 42244630
L53279612 42244630
L53374850 42197011
L53422469 42149392
L53470088 42054154
L53470088 41958916
L53422469 41863678
L53374850 41816059
L53279612 41768440
L53089136 41720821
L52993898 41673202
L52946279 41625583
L52898660 41530345
L52898660 41435107
L52946279 41339869
L52993898 41292250
L53089136 41244630
L53327231 41244630
L53470088 41292250
" />
<path d="M53803422 41244630
L54041517 42244630
L54231993 41530345
L54422469 42244630
L54660564 41244630
" />
<path d="M55565326 42244630
L54993898 42244630
" />
<path d="M55279612 42244630
L55279612 41244630
L55184374 41387488
L55089136 41482726
L54993898 41530345
" />
<path d="M55946279 41339869
L55993898 41292250
L56089136 41244630
L56327231 41244630
L56422469 41292250
L56470088 41339869
L56517707 41435107
L56517707 41530345
L56470088 41673202
L55898660 42244630
L56517707 42244630
" />
</g><text x="54708184.000000" y="20067250.000000"
textLength="4195000.000000" font-size="1333333.000000" lengthAdjust="spacingAndGlyphs"
text-anchor="middle" opacity="0">SW02</text>
<g class="stroked-text"><desc>SW02</desc>
<path d="M52898660 19972011
L53041517 20019630
L53279612 20019630
L53374850 19972011
L53422469 19924392
L53470088 19829154
L53470088 19733916
L53422469 19638678
L53374850 19591059
L53279612 19543440
L53089136 19495821
L52993898 19448202
L52946279 19400583
L52898660 19305345
L52898660 19210107
L52946279 19114869
L52993898 19067250
L53089136 19019630
L53327231 19019630
L53470088 19067250
" />
<path d="M53803422 19019630
L54041517 20019630
L54231993 19305345
L54422469 20019630
L54660564 19019630
" />
<path d="M55231993 19019630
L55327231 19019630
L55422469 19067250
L55470088 19114869
L55517707 19210107
L55565326 19400583
L55565326 19638678
L55517707 19829154
L55470088 19924392
L55422469 19972011
L55327231 20019630
L55231993 20019630
L55136755 19972011
L55089136 19924392
L55041517 19829154
L54993898 19638678
L54993898 19400583
L55041517 19210107
L55089136 19114869
L55136755 19067250
L55231993 19019630
" />
<path d="M55946279 19114869
L55993898 19067250
L56089136 19019630
L56327231 19019630
L56422469 19067250
L56470088 19114869
L56517707 19210107
L56517707 19305345
L56470088 19448202
L55898660 20019630
L56517707 20019630
" />
</g></g>
<g style="fill:#C2C2C2; fill-opacity:0.0; 
stroke:#C2C2C2; stroke-width:120000.000000; stroke-opacity:1; 
stroke-linecap:round; stroke-linejoin:round;">
<path d="M57648184 59609250
L57648184 58929250
" />
</g>
<g style="fill:#C2C2C2; fill-opacity:0.0; 
stroke:#C2C2C2; stroke-width:100000.000000; stroke-opacity:1; 
stroke-linecap:round; stroke-linejoin:round;">
<path d="M45708184 64017250
L63708184 64017250
" />
</g>
<g style="fill:#C2C2C2; fill-opacity:0.0; 
stroke:#C2C2C2; stroke-width:120000.000000; stroke-opacity:1; 
stroke-linecap:round; stroke-linejoin:round;">
<path d="M56308184 58559250
L53108184 58559250
" />
</g>
<g style="fill:#C2C2C2; fill-opacity:0.0; 
stroke:#C2C2C2; stroke-width:100000.000000; stroke-opacity:1; 
stroke-linecap:round; stroke-linejoin:round;">
<path d="M45708184 47017250
L45708184 64017250
" />
</g>
<g style="fill:#C2C2C2; fill-opacity:0.0; 
stroke:#C2C2C2; stroke-width:120000.000000; stroke-opacity:1; 
stroke-linecap:round; stroke-linejoin:round;">
<path d="M51768184 59609250
L53108184 59609250
" />
<path d="M56308184 61359250
L53108184 61359250
" />
<path d="M53108184 60329250
L51768184 60329250
" />
<path d="M57648184 60329250
L56308184 60329250
" />
<path d="M51768184 61009250
L53108184 61009250
" />
<path d="M57648184 61009250
L57648184 60329250
" />
<path d="M56308184 61359250
L56308184 58559250
" />
<path d="M56308184 61009250
L57648184 61009250
" />
<path d="M53108184 58929250
L51768184 58929250
" />
</g>
<g style="fill:#C2C2C2; fill-opacity:0.0; 
stroke:#C2C2C2; stroke-width:100000.000000; stroke-opacity:1; 
stroke-linecap:round; stroke-linejoin:round;">
<path d="M63708184 47017250
L45708184 47017250
" />
</g>
<g style="fill:#C2C2C2; fill-opacity:0.0; 
stroke:#C2C2C2; stroke-width:120000.000000; stroke-opacity:1; 
stroke-linecap:round; stroke-linejoin:round;">
<path d="M56308184 59609250
L57648184 59609250
" />
<path d="M51768184 60329250
L51768184 61009250
" />
</g>
<g style="fill:#C2C2C2; fill-opacity:0.0; 
stroke:#C2C2C2; stroke-width:100000.000000; stroke-opacity:1; 
stroke-linecap:round; stroke-linejoin:round;">
<path d="M63708184 64017250
L63708184 47017250
" />
</g>
<g style="fill:#C2C2C2; fill-opacity:0.0; 
stroke:#C2C2C2; stroke-width:120000.000000; stroke-opacity:1; 
stroke-linecap:round; stroke-linejoin:round;">
<path d="M53108184 61359250
L53108184 58559250
" />
<path d="M51768184 58929250
L51768184 59609250
" />
<path d="M57648184 58929250
L56308184 58929250
" />
<path d="M13198184 58929250
L11858184 58929250
" />
<path d="M8658184 58929250
L7318184 58929250
" />
</g>
<g style="fill:#C2C2C2; fill-opacity:0.0; 
stroke:#C2C2C2; stroke-width:100000.000000; stroke-opacity:1; 
stroke-linecap:round; stroke-linejoin:round;">
<path d="M1258184 64017250
L19258184 64017250
" />
</g>
<g style="fill:#C2C2C2; fill-opacity:0.0; 
stroke:#C2C2C2; stroke-width:120000.000000; stroke-opacity:1; 
stroke-linecap:round; stroke-linejoin:round;">
<path d="M11858184 61009250
L13198184 61009250
" />
<path d="M8658184 61359250
L8658184 58559250
" />
<path d="M13198184 59609250
L13198184 58929250
" />
<path d="M11858184 61359250
L8658184 61359250
" />
<path d="M11858184 61359250
L11858184 58559250
" />
<path d="M13198184 60329250
L11858184 60329250
" />
<path d="M7318184 59609250
L8658184 59609250
" />
<path d="M8658184 60329250
L7318184 60329250
" />
<path d="M7318184 61009250
L8658184 61009250
" />
<path d="M11858184 58559250
L8658184 58559250
" />
</g>
<g style="fill:#C2C2C2; fill-opacity:0.0; 
stroke:#C2C2C2; stroke-width:100000.000000; stroke-opacity:1; 
stroke-linecap:round; stroke-linejoin:round;">
<path d="M19258184 64017250
L19258184 47017250
" />
<path d="M1258184 47017250
L1258184 64017250
" />
</g>
<g style="fill:#C2C2C2; fill-opacity:0.0; 
stroke:#C2C2C2; stroke-width:120000.000000; stroke-opacity:1; 
stroke-linecap:round; stroke-linejoin:round;">
<path d="M13198184 61009250
L13198184 60329250
" />
<path d="M7318184 58929250
L7318184 59609250
" />
<path d="M11858184 59609250
L13198184 59609250
" />
</g>
<g style="fill:#C2C2C2; fill-opacity:0.0; 
stroke:#C2C2C2; stroke-width:100000.000000; stroke-opacity:1; 
stroke-linecap:round; stroke-linejoin:round;">
<path d="M19258184 47017250
L1258184 47017250
" />
</g>
<g style="fill:#C2C2C2; fill-opacity:0.0; 
stroke:#C2C2C2; stroke-width:120000.000000; stroke-opacity:1; 
stroke-linecap:round; stroke-linejoin:round;">
<path d="M7318184 60329250
L7318184 61009250
" />
</g>
<g style="fill:#C2C2C2; fill-opacity:0.0; 
stroke:#C2C2C2; stroke-width:100000.000000; stroke-opacity:1; 
stroke-linecap:round; stroke-linejoin:round;">
<path d="M23483184 41792250
L41483184 41792250
" />
<path d="M41483184 41792250
L41483184 24792250
" />
</g>
<g style="fill:#C2C2C2; fill-opacity:0.0; 
stroke:#C2C2C2; stroke-width:120000.000000; stroke-opacity:1; 
stroke-linecap:round; stroke-linejoin:round;">
<path d="M35423184 38784250
L35423184 38104250
" />
<path d="M29543184 37384250
L30883184 37384250
" />
<path d="M30883184 39134250
L30883184 36334250
" />
</g>
<g style="fill:#C2C2C2; fill-opacity:0.0; 
stroke:#C2C2C2; stroke-width:100000.000000; stroke-opacity:1; 
stroke-linecap:round; stroke-linejoin:round;">
<path d="M23483184 24792250
L23483184 41792250
" />
</g>
<g style="fill:#C2C2C2; fill-opacity:0.0; 
stroke:#C2C2C2; stroke-width:120000.000000; stroke-opacity:1; 
stroke-linecap:round; stroke-linejoin:round;">
<path d="M35423184 36704250
L34083184 36704250
" />
<path d="M30883184 36704250
L29543184 36704250
" />
</g>
<g style="fill:#C2C2C2; fill-opacity:0.0; 
stroke:#C2C2C2; stroke-width:100000.000000; stroke-opacity:1; 
stroke-linecap:round; stroke-linejoin:round;">
<path d="M41483184 24792250
L23483184 24792250
" />
</g>
<g style="fill:#C2C2C2; fill-opacity:0.0; 
stroke:#C2C2C2; stroke-width:120000.000000; stroke-opacity:1; 
stroke-linecap:round; stroke-linejoin:round;">
<path d="M34083184 36334250
L30883184 36334250
" />
<path d="M34083184 38784250
L35423184 38784250
" />
<path d="M35423184 38104250
L34083184 38104250
" />
<path d="M29543184 36704250
L29543184 37384250
" />
<path d="M34083184 39134250
L34083184 36334250
" />
<path d="M34083184 39134250
L30883184 39134250
" />
<path d="M34083184 37384250
L35423184 37384250
" />
<path d="M29543184 38104250
L29543184 38784250
" />
<path d="M35423184 37384250
L35423184 36704250
" />
<path d="M30883184 38104250
L29543184 38104250
" />
<path d="M29543184 38784250
L30883184 38784250
" />
<path d="M100758184 61359250
L97558184 61359250
" />
</g>
<g style="fill:#C2C2C2; fill-opacity:0.0; 
stroke:#C2C2C2; stroke-width:100000.000000; stroke-opacity:1; 
stroke-linecap:round; stroke-linejoin:round;">
<path d="M90158184 64017250
L108158184 64017250
" />
</g>
<g style="fill:#C2C2C2; fill-opacity:0.0; 
stroke:#C2C2C2; stroke-width:120000.000000; stroke-opacity:1; 
stroke-linecap:round; stroke-linejoin:round;">
<path d="M96218184 61009250
L97558184 61009250
" />
<path d="M100758184 58559250
L97558184 58559250
" />
<path d="M97558184 61359250
L97558184 58559250
" />
<path d="M96218184 59609250
L97558184 59609250
" />
<path d="M102098184 61009250
L102098184 60329250
" />
</g>
<g style="fill:#C2C2C2; fill-opacity:0.0; 
stroke:#C2C2C2; stroke-width:100000.000000; stroke-opacity:1; 
stroke-linecap:round; stroke-linejoin:round;">
<path d="M108158184 47017250
L90158184 47017250
" />
</g>
<g style="fill:#C2C2C2; fill-opacity:0.0; 
stroke:#C2C2C2; stroke-width:120000.000000; stroke-opacity:1; 
stroke-linecap:round; stroke-linejoin:round;">
<path d="M100758184 61009250
L102098184 61009250
" />
</g>
<g style="fill:#C2C2C2; fill-opacity:0.0; 
stroke:#C2C2C2; stroke-width:100000.000000; stroke-opacity:1; 
stroke-linecap:round; stroke-linejoin:round;">
<path d="M90158184 47017250
L90158184 64017250
" />
</g>
<g style="fill:#C2C2C2; fill-opacity:0.0; 
stroke:#C2C2C2; stroke-width:120000.000000; stroke-opacity:1; 
stroke-linecap:round; stroke-linejoin:round;">
<path d="M96218184 58929250
L96218184 59609250
" />
<path d="M100758184 59609250
L102098184 59609250
" />
<path d="M102098184 59609250
L102098184 58929250
" />
<path d="M97558184 60329250
L96218184 60329250
" />
<path d="M100758184 61359250
L100758184 58559250
" />
<path d="M97558184 58929250
L96218184 58929250
" />
<path d="M96218184 60329250
L96218184 61009250
" />
<path d="M102098184 60329250
L100758184 60329250
" />
<path d="M102098184 58929250
L100758184 58929250
" />
</g>
<g style="fill:#C2C2C2; fill-opacity:0.0; 
stroke:#C2C2C2; stroke-width:100000.000000; stroke-opacity:1; 
stroke-linecap:round; stroke-linejoin:round;">
<path d="M108158184 64017250
L108158184 47017250
" />
</g>
<g style="fill:#C2C2C2; fill-opacity:0.0; 
stroke:#C2C2C2; stroke-width:120000.000000; stroke-opacity:1; 
stroke-linecap:round; stroke-linejoin:round;">
<path d="M102098184 14479250
L100758184 14479250
" />
<path d="M102098184 15159250
L102098184 14479250
" />
<path d="M100758184 16909250
L97558184 16909250
" />
<path d="M100758184 14109250
L97558184 14109250
" />
<path d="M102098184 16559250
L102098184 15879250
" />
<path d="M96218184 15879250
L96218184 16559250
" />
</g>
<g style="fill:#C2C2C2; fill-opacity:0.0; 
stroke:#C2C2C2; stroke-width:100000.000000; stroke-opacity:1; 
stroke-linecap:round; stroke-linejoin:round;">
<path d="M90158184 2567250
L90158184 19567250
" />
</g>
<g style="fill:#C2C2C2; fill-opacity:0.0; 
stroke:#C2C2C2; stroke-width:120000.000000; stroke-opacity:1; 
stroke-linecap:round; stroke-linejoin:round;">
<path d="M100758184 16909250
L100758184 14109250
" />
<path d="M97558184 14479250
L96218184 14479250
" />
</g>
<g style="fill:#C2C2C2; fill-opacity:0.0; 
stroke:#C2C2C2; stroke-width:100000.000000; stroke-opacity:1; 
stroke-linecap:round; stroke-linejoin:round;">
<path d="M90158184 19567250
L108158184 19567250
" />
<path d="M108158184 2567250
L90158184 2567250
" />
</g>
<g style="fill:#C2C2C2; fill-opacity:0.0; 
stroke:#C2C2C2; stroke-width:120000.000000; stroke-opacity:1; 
stroke-linecap:round; stroke-linejoin:round;">
<path d="M102098184 15879250
L100758184 15879250
" />
<path d="M100758184 15159250
L102098184 15159250
" />
<path d="M97558184 16909250
L97558184 14109250
" />
<path d="M96218184 14479250
L96218184 15159250
" />
<path d="M100758184 16559250
L102098184 16559250
" />
<path d="M96218184 16559250
L97558184 16559250
" />
<path d="M97558184 15879250
L96218184 15879250
" />
</g>
<g style="fill:#C2C2C2; fill-opacity:0.0; 
stroke:#C2C2C2; stroke-width:100000.000000; stroke-opacity:1; 
stroke-linecap:round; stroke-linejoin:round;">
<path d="M108158184 19567250
L108158184 2567250
" />
</g>
<g style="fill:#C2C2C2; fill-opacity:0.0; 
stroke:#C2C2C2; stroke-width:120000.000000; stroke-opacity:1; 
stroke-linecap:round; stroke-linejoin:round;">
<path d="M96218184 15159250
L97558184 15159250
" />
<path d="M100758184 39134250
L97558184 39134250
" />
</g>
<g style="fill:#C2C2C2; fill-opacity:0.0; 
stroke:#C2C2C2; stroke-width:100000.000000; stroke-opacity:1; 
stroke-linecap:round; stroke-linejoin:round;">
<path d="M90158184 24792250
L90158184 41792250
" />
</g>
<g style="fill:#C2C2C2; fill-opacity:0.0; 
stroke:#C2C2C2; stroke-width:120000.000000; stroke-opacity:1; 
stroke-linecap:round; stroke-linejoin:round;">
<path d="M102098184 37384250
L102098184 36704250
" />
<path d="M96218184 36704250
L96218184 37384250
" />
</g>
<g style="fill:#C2C2C2; fill-opacity:0.0; 
stroke:#C2C2C2; stroke-width:100000.000000; stroke-opacity:1; 
stroke-linecap:round; stroke-linejoin:round;">
<path d="M90158184 41792250
L108158184 41792250
" />
</g>
<g style="fill:#C2C2C2; fill-opacity:0.0; 
stroke:#C2C2C2; stroke-width:120000.000000; stroke-opacity:1; 
stroke-linecap:round; stroke-linejoin:round;">
<path d="M96218184 37384250
L97558184 37384250
" />
<path d="M97558184 38104250
L96218184 38104250
" />
<path d="M96218184 38104250
L96218184 38784250
" />
<path d="M97558184 39134250
L97558184 36334250
" />
</g>
<g style="fill:#C2C2C2; fill-opacity:0.0; 
stroke:#C2C2C2; stroke-width:100000.000000; stroke-opacity:1; 
stroke-linecap:round; stroke-linejoin:round;">
<path d="M108158184 41792250
L108158184 24792250
" />
</g>
<g style="fill:#C2C2C2; fill-opacity:0.0; 
stroke:#C2C2C2; stroke-width:120000.000000; stroke-opacity:1; 
stroke-linecap:round; stroke-linejoin:round;">
<path d="M100758184 37384250
L102098184 37384250
" />
<path d="M102098184 36704250
L100758184 36704250
" />
<path d="M102098184 38104250
L100758184 38104250
" />
</g>
<g style="fill:#C2C2C2; fill-opacity:0.0; 
stroke:#C2C2C2; stroke-width:100000.000000; stroke-opacity:1; 
stroke-linecap:round; stroke-linejoin:round;">
<path d="M108158184 24792250
L90158184 24792250
" />
</g>
<g style="fill:#C2C2C2; fill-opacity:0.0; 
stroke:#C2C2C2; stroke-width:120000.000000; stroke-opacity:1; 
stroke-linecap:round; stroke-linejoin:round;">
<path d="M100758184 38784250
L102098184 38784250
" />
<path d="M102098184 38784250
L102098184 38104250
" />
<path d="M100758184 39134250
L100758184 36334250
" />
<path d="M96218184 38784250
L97558184 38784250
" />
<path d="M100758184 36334250
L97558184 36334250
" />
<path d="M97558184 36704250
L96218184 36704250
" />
<path d="M30883184 60329250
L29543184 60329250
" />
<path d="M30883184 58929250
L29543184 58929250
" />
<path d="M34083184 61009250
L35423184 61009250
" />
<path d="M29543184 60329250
L29543184 61009250
" />
<path d="M35423184 59609250
L35423184 58929250
" />
</g>
<g style="fill:#C2C2C2; fill-opacity:0.0; 
stroke:#C2C2C2; stroke-width:100000.000000; stroke-opacity:1; 
stroke-linecap:round; stroke-linejoin:round;">
<path d="M41483184 64017250
L41483184 47017250
" />
</g>
<g style="fill:#C2C2C2; fill-opacity:0.0; 
stroke:#C2C2C2; stroke-width:120000.000000; stroke-opacity:1; 
stroke-linecap:round; stroke-linejoin:round;">
<path d="M34083184 61359250
L30883184 61359250
" />
</g>
<g style="fill:#C2C2C2; fill-opacity:0.0; 
stroke:#C2C2C2; stroke-width:100000.000000; stroke-opacity:1; 
stroke-linecap:round; stroke-linejoin:round;">
<path d="M41483184 47017250
L23483184 47017250
" />
</g>
<g style="fill:#C2C2C2; fill-opacity:0.0; 
stroke:#C2C2C2; stroke-width:120000.000000; stroke-opacity:1; 
stroke-linecap:round; stroke-linejoin:round;">
<path d="M35423184 61009250
L35423184 60329250
" />
<path d="M29543184 59609250
L30883184 59609250
" />
<path d="M35423184 58929250
L34083184 58929250
" />
<path d="M34083184 58559250
L30883184 58559250
" />
<path d="M30883184 61359250
L30883184 58559250
" />
<path d="M29543184 61009250
L30883184 61009250
" />
</g>
<g style="fill:#C2C2C2; fill-opacity:0.0; 
stroke:#C2C2C2; stroke-width:100000.000000; stroke-opacity:1; 
stroke-linecap:round; stroke-linejoin:round;">
<path d="M23483184 64017250
L41483184 64017250
" />
</g>
<g style="fill:#C2C2C2; fill-opacity:0.0; 
stroke:#C2C2C2; stroke-width:120000.000000; stroke-opacity:1; 
stroke-linecap:round; stroke-linejoin:round;">
<path d="M34083184 61359250
L34083184 58559250
" />
</g>
<g style="fill:#C2C2C2; fill-opacity:0.0; 
stroke:#C2C2C2; stroke-width:100000.000000; stroke-opacity:1; 
stroke-linecap:round; stroke-linejoin:round;">
<path d="M23483184 47017250
L23483184 64017250
" />
</g>
<g style="fill:#C2C2C2; fill-opacity:0.0; 
stroke:#C2C2C2; stroke-width:120000.000000; stroke-opacity:1; 
stroke-linecap:round; stroke-linejoin:round;">
<path d="M34083184 59609250
L35423184 59609250
" />
<path d="M35423184 60329250
L34083184 60329250
" />
<path d="M29543184 58929250
L29543184 59609250
" />
<path d="M112718184 41229750
L112718184 3129750
" />
<path d="M112718184 3129750
L131768184 3129750
" />
<path d="M131768184 41229750
L112718184 41229750
" />
<path d="M131768184 3129750
L131768184 41229750
" />
</g>
<g style="fill:#C2C2C2; fill-opacity:0.0; 
stroke:#C2C2C2; stroke-width:100000.000000; stroke-opacity:1; 
stroke-linecap:round; stroke-linejoin:round;">
<path d="M130383184 47017250
L112383184 47017250
" />
</g>
<g style="fill:#C2C2C2; fill-opacity:0.0; 
stroke:#C2C2C2; stroke-width:120000.000000; stroke-opacity:1; 
stroke-linecap:round; stroke-linejoin:round;">
<path d="M119783184 61359250
L119783184 58559250
" />
<path d="M119783184 58929250
L118443184 58929250
" />
<path d="M124323184 61009250
L124323184 60329250
" />
<path d="M122983184 59609250
L124323184 59609250
" />
<path d="M124323184 58929250
L122983184 58929250
" />
<path d="M122983184 61359250
L119783184 61359250
" />
</g>
<g style="fill:#C2C2C2; fill-opacity:0.0; 
stroke:#C2C2C2; stroke-width:100000.000000; stroke-opacity:1; 
stroke-linecap:round; stroke-linejoin:round;">
<path d="M112383184 64017250
L130383184 64017250
" />
</g>
<g style="fill:#C2C2C2; fill-opacity:0.0; 
stroke:#C2C2C2; stroke-width:120000.000000; stroke-opacity:1; 
stroke-linecap:round; stroke-linejoin:round;">
<path d="M118443184 60329250
L118443184 61009250
" />
<path d="M122983184 58559250
L119783184 58559250
" />
<path d="M119783184 60329250
L118443184 60329250
" />
<path d="M122983184 61009250
L124323184 61009250
" />
<path d="M124323184 59609250
L124323184 58929250
" />
</g>
<g style="fill:#C2C2C2; fill-opacity:0.0; 
stroke:#C2C2C2; stroke-width:100000.000000; stroke-opacity:1; 
stroke-linecap:round; stroke-linejoin:round;">
<path d="M130383184 64017250
L130383184 47017250
" />
</g>
<g style="fill:#C2C2C2; fill-opacity:0.0; 
stroke:#C2C2C2; stroke-width:120000.000000; stroke-opacity:1; 
stroke-linecap:round; stroke-linejoin:round;">
<path d="M124323184 60329250
L122983184 60329250
" />
<path d="M118443184 58929250
L118443184 59609250
" />
<path d="M118443184 61009250
L119783184 61009250
" />
<path d="M122983184 61359250
L122983184 58559250
" />
<path d="M118443184 59609250
L119783184 59609250
" />
</g>
<g style="fill:#C2C2C2; fill-opacity:0.0; 
stroke:#C2C2C2; stroke-width:100000.000000; stroke-opacity:1; 
stroke-linecap:round; stroke-linejoin:round;">
<path d="M112383184 47017250
L112383184 64017250
" />
</g>
<g style="fill:#C2C2C2; fill-opacity:0.0; 
stroke:#C2C2C2; stroke-width:120000.000000; stroke-opacity:1; 
stroke-linecap:round; stroke-linejoin:round;">
<path d="M78533184 37384250
L79873184 37384250
" />
<path d="M73993184 36704250
L73993184 37384250
" />
</g>
<g style="fill:#C2C2C2; fill-opacity:0.0; 
stroke:#C2C2C2; stroke-width:100000.000000; stroke-opacity:1; 
stroke-linecap:round; stroke-linejoin:round;">
<path d="M67933184 24792250
L67933184 41792250
" />
</g>
<g style="fill:#C2C2C2; fill-opacity:0.0; 
stroke:#C2C2C2; stroke-width:120000.000000; stroke-opacity:1; 
stroke-linecap:round; stroke-linejoin:round;">
<path d="M79873184 36704250
L78533184 36704250
" />
<path d="M78533184 39134250
L78533184 36334250
" />
</g>
<g style="fill:#C2C2C2; fill-opacity:0.0; 
stroke:#C2C2C2; stroke-width:100000.000000; stroke-opacity:1; 
stroke-linecap:round; stroke-linejoin:round;">
<path d="M85933184 41792250
L85933184 24792250
" />
</g>
<g style="fill:#C2C2C2; fill-opacity:0.0; 
stroke:#C2C2C2; stroke-width:120000.000000; stroke-opacity:1; 
stroke-linecap:round; stroke-linejoin:round;">
<path d="M73993184 37384250
L75333184 37384250
" />
</g>
<g style="fill:#C2C2C2; fill-opacity:0.0; 
stroke:#C2C2C2; stroke-width:100000.000000; stroke-opacity:1; 
stroke-linecap:round; stroke-linejoin:round;">
<path d="M67933184 41792250
L85933184 41792250
" />
</g>
<g style="fill:#C2C2C2; fill-opacity:0.0; 
stroke:#C2C2C2; stroke-width:120000.000000; stroke-opacity:1; 
stroke-linecap:round; stroke-linejoin:round;">
<path d="M75333184 36704250
L73993184 36704250
" />
<path d="M79873184 37384250
L79873184 36704250
" />
<path d="M79873184 38104250
L78533184 38104250
" />
<path d="M79873184 38784250
L79873184 38104250
" />
<path d="M73993184 38104250
L73993184 38784250
" />
<path d="M78533184 39134250
L75333184 39134250
" />
</g>
<g style="fill:#C2C2C2; fill-opacity:0.0; 
stroke:#C2C2C2; stroke-width:100000.000000; stroke-opacity:1; 
stroke-linecap:round; stroke-linejoin:round;">
<path d="M85933184 24792250
L67933184 24792250
" />
</g>
<g style="fill:#C2C2C2; fill-opacity:0.0; 
stroke:#C2C2C2; stroke-width:120000.000000; stroke-opacity:1; 
stroke-linecap:round; stroke-linejoin:round;">
<path d="M78533184 38784250
L79873184 38784250
" />
<path d="M78533184 36334250
L75333184 36334250
" />
<path d="M75333184 39134250
L75333184 36334250
" />
<path d="M73993184 38784250
L75333184 38784250
" />
<path d="M75333184 38104250
L73993184 38104250
" />
<path d="M79873184 59609250
L79873184 58929250
" />
</g>
<g style="fill:#C2C2C2; fill-opacity:0.0; 
stroke:#C2C2C2; stroke-width:100000.000000; stroke-opacity:1; 
stroke-linecap:round; stroke-linejoin:round;">
<path d="M67933184 47017250
L67933184 64017250
" />
<path d="M85933184 64017250
L85933184 47017250
" />
</g>
<g style="fill:#C2C2C2; fill-opacity:0.0; 
stroke:#C2C2C2; stroke-width:120000.000000; stroke-opacity:1; 
stroke-linecap:round; stroke-linejoin:round;">
<path d="M78533184 61009250
L79873184 61009250
" />
<path d="M75333184 61359250
L75333184 58559250
" />
<path d="M79873184 61009250
L79873184 60329250
" />
<path d="M73993184 59609250
L75333184 59609250
" />
<path d="M73993184 61009250
L75333184 61009250
" />
<path d="M78533184 61359250
L75333184 61359250
" />
<path d="M79873184 60329250
L78533184 60329250
" />
<path d="M79873184 58929250
L78533184 58929250
" />
<path d="M73993184 58929250
L73993184 59609250
" />
<path d="M75333184 60329250
L73993184 60329250
" />
</g>
<g style="fill:#C2C2C2; fill-opacity:0.0; 
stroke:#C2C2C2; stroke-width:100000.000000; stroke-opacity:1; 
stroke-linecap:round; stroke-linejoin:round;">
<path d="M67933184 64017250
L85933184 64017250
" />
</g>
<g style="fill:#C2C2C2; fill-opacity:0.0; 
stroke:#C2C2C2; stroke-width:120000.000000; stroke-opacity:1; 
stroke-linecap:round; stroke-linejoin:round;">
<path d="M75333184 58929250
L73993184 58929250
" />
<path d="M78533184 58559250
L75333184 58559250
" />
<path d="M78533184 59609250
L79873184 59609250
" />
<path d="M78533184 61359250
L78533184 58559250
" />
</g>
<g style="fill:#C2C2C2; fill-opacity:0.0; 
stroke:#C2C2C2; stroke-width:100000.000000; stroke-opacity:1; 
stroke-linecap:round; stroke-linejoin:round;">
<path d="M85933184 47017250
L67933184 47017250
" />
</g>
<g style="fill:#C2C2C2; fill-opacity:0.0; 
stroke:#C2C2C2; stroke-width:120000.000000; stroke-opacity:1; 
stroke-linecap:round; stroke-linejoin:round;">
<path d="M73993184 60329250
L73993184 61009250
" />
<path d="M7318184 36704250
L7318184 37384250
" />
<path d="M11858184 39134250
L8658184 39134250
" />
</g>
<g style="fill:#C2C2C2; fill-opacity:0.0; 
stroke:#C2C2C2; stroke-width:100000.000000; stroke-opacity:1; 
stroke-linecap:round; stroke-linejoin:round;">
<path d="M19258184 41792250
L19258184 24792250
" />
</g>
<g style="fill:#C2C2C2; fill-opacity:0.0; 
stroke:#C2C2C2; stroke-width:120000.000000; stroke-opacity:1; 
stroke-linecap:round; stroke-linejoin:round;">
<path d="M13198184 38784250
L13198184 38104250
" />
<path d="M11858184 39134250
L11858184 36334250
" />
<path d="M13198184 38104250
L11858184 38104250
" />
<path d="M7318184 38104250
L7318184 38784250
" />
<path d="M11858184 36334250
L8658184 36334250
" />
<path d="M8658184 36704250
L7318184 36704250
" />
</g>
<g style="fill:#C2C2C2; fill-opacity:0.0; 
stroke:#C2C2C2; stroke-width:100000.000000; stroke-opacity:1; 
stroke-linecap:round; stroke-linejoin:round;">
<path d="M1258184 24792250
L1258184 41792250
" />
</g>
<g style="fill:#C2C2C2; fill-opacity:0.0; 
stroke:#C2C2C2; stroke-width:120000.000000; stroke-opacity:1; 
stroke-linecap:round; stroke-linejoin:round;">
<path d="M8658184 38104250
L7318184 38104250
" />
<path d="M13198184 36704250
L11858184 36704250
" />
<path d="M11858184 37384250
L13198184 37384250
" />
<path d="M7318184 37384250
L8658184 37384250
" />
<path d="M8658184 39134250
L8658184 36334250
" />
</g>
<g style="fill:#C2C2C2; fill-opacity:0.0; 
stroke:#C2C2C2; stroke-width:100000.000000; stroke-opacity:1; 
stroke-linecap:round; stroke-linejoin:round;">
<path d="M19258184 24792250
L1258184 24792250
" />
</g>
<g style="fill:#C2C2C2; fill-opacity:0.0; 
stroke:#C2C2C2; stroke-width:120000.000000; stroke-opacity:1; 
stroke-linecap:round; stroke-linejoin:round;">
<path d="M13198184 37384250
L13198184 36704250
" />
</g>
<g style="fill:#C2C2C2; fill-opacity:0.0; 
stroke:#C2C2C2; stroke-width:100000.000000; stroke-opacity:1; 
stroke-linecap:round; stroke-linejoin:round;">
<path d="M1258184 41792250
L19258184 41792250
" />
</g>
<g style="fill:#C2C2C2; fill-opacity:0.0; 
stroke:#C2C2C2; stroke-width:120000.000000; stroke-opacity:1; 
stroke-linecap:round; stroke-linejoin:round;">
<path d="M7318184 38784250
L8658184 38784250
" />
<path d="M11858184 38784250
L13198184 38784250
" />
<path d="M11858184 16559250
L13198184 16559250
" />
<path d="M13198184 15159250
L13198184 14479250
" />
<path d="M11858184 16909250
L11858184 14109250
" />
<path d="M11858184 16909250
L8658184 16909250
" />
<path d="M11858184 14109250
L8658184 14109250
" />
<path d="M8658184 15879250
L7318184 15879250
" />
<path d="M13198184 15879250
L11858184 15879250
" />
</g>
<g style="fill:#C2C2C2; fill-opacity:0.0; 
stroke:#C2C2C2; stroke-width:100000.000000; stroke-opacity:1; 
stroke-linecap:round; stroke-linejoin:round;">
<path d="M1258184 19567250
L19258184 19567250
" />
<path d="M19258184 19567250
L19258184 2567250
" />
</g>
<g style="fill:#C2C2C2; fill-opacity:0.0; 
stroke:#C2C2C2; stroke-width:120000.000000; stroke-opacity:1; 
stroke-linecap:round; stroke-linejoin:round;">
<path d="M13198184 16559250
L13198184 15879250
" />
<path d="M7318184 14479250
L7318184 15159250
" />
<path d="M13198184 14479250
L11858184 14479250
" />
<path d="M8658184 14479250
L7318184 14479250
" />
<path d="M7318184 15879250
L7318184 16559250
" />
<path d="M7318184 15159250
L8658184 15159250
" />
<path d="M7318184 16559250
L8658184 16559250
" />
<path d="M11858184 15159250
L13198184 15159250
" />
</g>
<g style="fill:#C2C2C2; fill-opacity:0.0; 
stroke:#C2C2C2; stroke-width:100000.000000; stroke-opacity:1; 
stroke-linecap:round; stroke-linejoin:round;">
<path d="M1258184 2567250
L1258184 19567250
" />
</g>
<g style="fill:#C2C2C2; fill-opacity:0.0; 
stroke:#C2C2C2; stroke-width:120000.000000; stroke-opacity:1; 
stroke-linecap:round; stroke-linejoin:round;">
<path d="M8658184 16909250
L8658184 14109250
" />
</g>
<g style="fill:#C2C2C2; fill-opacity:0.0; 
stroke:#C2C2C2; stroke-width:100000.000000; stroke-opacity:1; 
stroke-linecap:round; stroke-linejoin:round;">
<path d="M19258184 2567250
L1258184 2567250
" />
<path d="M41483184 19567250
L41483184 2567250
" />
</g>
<g style="fill:#C2C2C2; fill-opacity:0.0; 
stroke:#C2C2C2; stroke-width:120000.000000; stroke-opacity:1; 
stroke-linecap:round; stroke-linejoin:round;">
<path d="M35423184 15159250
L35423184 14479250
" />
</g>
<g style="fill:#C2C2C2; fill-opacity:0.0; 
stroke:#C2C2C2; stroke-width:100000.000000; stroke-opacity:1; 
stroke-linecap:round; stroke-linejoin:round;">
<path d="M23483184 19567250
L41483184 19567250
" />
</g>
<g style="fill:#C2C2C2; fill-opacity:0.0; 
stroke:#C2C2C2; stroke-width:120000.000000; stroke-opacity:1; 
stroke-linecap:round; stroke-linejoin:round;">
<path d="M30883184 16909250
L30883184 14109250
" />
<path d="M34083184 16909250
L34083184 14109250
" />
<path d="M35423184 16559250
L35423184 15879250
" />
<path d="M35423184 15879250
L34083184 15879250
" />
<path d="M34083184 15159250
L35423184 15159250
" />
<path d="M34083184 14109250
L30883184 14109250
" />
</g>
<g style="fill:#C2C2C2; fill-opacity:0.0; 
stroke:#C2C2C2; stroke-width:100000.000000; stroke-opacity:1; 
stroke-linecap:round; stroke-linejoin:round;">
<path d="M23483184 2567250
L23483184 19567250
" />
</g>
<g style="fill:#C2C2C2; fill-opacity:0.0; 
stroke:#C2C2C2; stroke-width:120000.000000; stroke-opacity:1; 
stroke-linecap:round; stroke-linejoin:round;">
<path d="M29543184 16559250
L30883184 16559250
" />
</g>
<g style="fill:#C2C2C2; fill-opacity:0.0; 
stroke:#C2C2C2; stroke-width:100000.000000; stroke-opacity:1; 
stroke-linecap:round; stroke-linejoin:round;">
<path d="M41483184 2567250
L23483184 2567250
" />
</g>
<g style="fill:#C2C2C2; fill-opacity:0.0; 
stroke:#C2C2C2; stroke-width:120000.000000; stroke-opacity:1; 
stroke-linecap:round; stroke-linejoin:round;">
<path d="M29543184 14479250
L29543184 15159250
" />
<path d="M29543184 15879250
L29543184 16559250
" />
<path d="M29543184 15159250
L30883184 15159250
" />
<path d="M30883184 15879250
L29543184 15879250
" />
<path d="M34083184 16909250
L30883184 16909250
" />
<path d="M35423184 14479250
L34083184 14479250
" />
<path d="M30883184 14479250
L29543184 14479250
" />
<path d="M34083184 16559250
L35423184 16559250
" />
<path d="M73993184 16559250
L75333184 16559250
" />
</g>
<g style="fill:#C2C2C2; fill-opacity:0.0; 
stroke:#C2C2C2; stroke-width:100000.000000; stroke-opacity:1; 
stroke-linecap:round; stroke-linejoin:round;">
<path d="M67933184 19567250
L85933184 19567250
" />
</g>
<g style="fill:#C2C2C2; fill-opacity:0.0; 
stroke:#C2C2C2; stroke-width:120000.000000; stroke-opacity:1; 
stroke-linecap:round; stroke-linejoin:round;">
<path d="M78533184 16559250
L79873184 16559250
" />
<path d="M79873184 14479250
L78533184 14479250
" />
<path d="M75333184 14479250
L73993184 14479250
" />
<path d="M79873184 15159250
L79873184 14479250
" />
<path d="M75333184 15879250
L73993184 15879250
" />
</g>
<g style="fill:#C2C2C2; fill-opacity:0.0; 
stroke:#C2C2C2; stroke-width:100000.000000; stroke-opacity:1; 
stroke-linecap:round; stroke-linejoin:round;">
<path d="M85933184 19567250
L85933184 2567250
" />
</g>
<g style="fill:#C2C2C2; fill-opacity:0.0; 
stroke:#C2C2C2; stroke-width:120000.000000; stroke-opacity:1; 
stroke-linecap:round; stroke-linejoin:round;">
<path d="M73993184 15879250
L73993184 16559250
" />
<path d="M78533184 14109250
L75333184 14109250
" />
<path d="M75333184 16909250
L75333184 14109250
" />
<path d="M78533184 16909250
L78533184 14109250
" />
<path d="M73993184 14479250
L73993184 15159250
" />
<path d="M73993184 15159250
L75333184 15159250
" />
</g>
<g style="fill:#C2C2C2; fill-opacity:0.0; 
stroke:#C2C2C2; stroke-width:100000.000000; stroke-opacity:1; 
stroke-linecap:round; stroke-linejoin:round;">
<path d="M85933184 2567250
L67933184 2567250
" />
</g>
<g style="fill:#C2C2C2; fill-opacity:0.0; 
stroke:#C2C2C2; stroke-width:120000.000000; stroke-opacity:1; 
stroke-linecap:round; stroke-linejoin:round;">
<path d="M79873184 15879250
L78533184 15879250
" />
<path d="M78533184 16909250
L75333184 16909250
" />
</g>
<g style="fill:#C2C2C2; fill-opacity:0.0; 
stroke:#C2C2C2; stroke-width:100000.000000; stroke-opacity:1; 
stroke-linecap:round; stroke-linejoin:round;">
<path d="M67933184 2567250
L67933184 19567250
" />
</g>
<g style="fill:#C2C2C2; fill-opacity:0.0; 
stroke:#C2C2C2; stroke-width:120000.000000; stroke-opacity:1; 
stroke-linecap:round; stroke-linejoin:round;">
<path d="M78533184 15159250
L79873184 15159250
" />
<path d="M79873184 16559250
L79873184 15879250
" />
<circle cx="121383184.000000" cy="55517250.000000" r="3000000.000000" /> 
<path d="M53108184 36704250
L51768184 36704250
" />
<path d="M56308184 38784250
L57648184 38784250
" />
<path d="M51768184 36704250
L51768184 37384250
" />
<path d="M53108184 39134250
L53108184 36334250
" />
<path d="M56308184 39134250
L56308184 36334250
" />
<path d="M51768184 37384250
L53108184 37384250
" />
<path d="M57648184 37384250
L57648184 36704250
" />
</g>
<g style="fill:#C2C2C2; fill-opacity:0.0; 
stroke:#C2C2C2; stroke-width:100000.000000; stroke-opacity:1; 
stroke-linecap:round; stroke-linejoin:round;">
<path d="M63708184 41792250
L63708184 24792250
" />
</g>
<g style="fill:#C2C2C2; fill-opacity:0.0; 
stroke:#C2C2C2; stroke-width:120000.000000; stroke-opacity:1; 
stroke-linecap:round; stroke-linejoin:round;">
<path d="M57648184 38784250
L57648184 38104250
" />
<path d="M56308184 36334250
L53108184 36334250
" />
<path d="M57648184 38104250
L56308184 38104250
" />
<path d="M57648184 36704250
L56308184 36704250
" />
<path d="M51768184 38104250
L51768184 38784250
" />
<path d="M51768184 38784250
L53108184 38784250
" />
<path d="M53108184 38104250
L51768184 38104250
" />
</g>
<g style="fill:#C2C2C2; fill-opacity:0.0; 
stroke:#C2C2C2; stroke-width:100000.000000; stroke-opacity:1; 
stroke-linecap:round; stroke-linejoin:round;">
<path d="M45708184 24792250
L45708184 41792250
" />
<path d="M63708184 24792250
L45708184 24792250
" />
</g>
<g style="fill:#C2C2C2; fill-opacity:0.0; 
stroke:#C2C2C2; stroke-width:120000.000000; stroke-opacity:1; 
stroke-linecap:round; stroke-linejoin:round;">
<path d="M56308184 39134250
L53108184 39134250
" />
</g>
<g style="fill:#C2C2C2; fill-opacity:0.0; 
stroke:#C2C2C2; stroke-width:100000.000000; stroke-opacity:1; 
stroke-linecap:round; stroke-linejoin:round;">
<path d="M45708184 41792250
L63708184 41792250
" />
</g>
<g style="fill:#C2C2C2; fill-opacity:0.0; 
stroke:#C2C2C2; stroke-width:120000.000000; stroke-opacity:1; 
stroke-linecap:round; stroke-linejoin:round;">
<path d="M56308184 37384250
L57648184 37384250
" />
<path d="M57648184 16559250
L57648184 15879250
" />
<path d="M51768184 15159250
L53108184 15159250
" />
<path d="M53108184 15879250
L51768184 15879250
" />
</g>
<g style="fill:#C2C2C2; fill-opacity:0.0; 
stroke:#C2C2C2; stroke-width:100000.000000; stroke-opacity:1; 
stroke-linecap:round; stroke-linejoin:round;">
<path d="M63708184 2567250
L45708184 2567250
" />
</g>
<g style="fill:#C2C2C2; fill-opacity:0.0; 
stroke:#C2C2C2; stroke-width:120000.000000; stroke-opacity:1; 
stroke-linecap:round; stroke-linejoin:round;">
<path d="M51768184 16559250
L53108184 16559250
" />
<path d="M57648184 14479250
L56308184 14479250
" />
<path d="M56308184 15159250
L57648184 15159250
" />
</g>
<g style="fill:#C2C2C2; fill-opacity:0.0; 
stroke:#C2C2C2; stroke-width:100000.000000; stroke-opacity:1; 
stroke-linecap:round; stroke-linejoin:round;">
<path d="M45708184 19567250
L63708184 19567250
" />
<path d="M63708184 19567250
L63708184 2567250
" />
</g>
<g style="fill:#C2C2C2; fill-opacity:0.0; 
stroke:#C2C2C2; stroke-width:120000.000000; stroke-opacity:1; 
stroke-linecap:round; stroke-linejoin:round;">
<path d="M56308184 16559250
L57648184 16559250
" />
<path d="M56308184 14109250
L53108184 14109250
" />
<path d="M51768184 14479250
L51768184 15159250
" />
<path d="M53108184 16909250
L53108184 14109250
" />
<path d="M56308184 16909250
L53108184 16909250
" />
<path d="M56308184 16909250
L56308184 14109250
" />
<path d="M57648184 15159250
L57648184 14479250
" />
<path d="M53108184 14479250
L51768184 14479250
" />
</g>
<g style="fill:#C2C2C2; fill-opacity:0.0; 
stroke:#C2C2C2; stroke-width:100000.000000; stroke-opacity:1; 
stroke-linecap:round; stroke-linejoin:round;">
<path d="M45708184 2567250
L45708184 19567250
" />
</g>
<g style="fill:#C2C2C2; fill-opacity:0.0; 
stroke:#C2C2C2; stroke-width:120000.000000; stroke-opacity:1; 
stroke-linecap:round; stroke-linejoin:round;">
<path d="M57648184 15879250
L56308184 15879250
" />
<path d="M51768184 15879250
L51768184 16559250
" />
</g>
<g style="fill:#C2C2C2; fill-opacity:0.0; 
stroke:#C2C2C2; stroke-width:200000.000000; stroke-opacity:1; 
stroke-linecap:round; stroke-linejoin:round;">
<path d="M125193184 100000
L117827184 100000
" />
<path d="M117827184 5180000
L125193184 5180000
" />
<path d="M117827184 100000
L117827184 5180000
" />
<path d="M125193184 5180000
L125193184 100000
" />
<g >
</g>
<g >
</g>
<g >
</g>
<g >
</g>
<g >
</g>
<g >
</g>
<g >
</g>
<g >
</g>
<g >
</g>
<g >
</g>
<g >
</g>
<g >
</g>
<g >
</g>
<g >
</g>
<g >
</g>
<g >
</g>
<g >
</g>
<g >
</g>
<g >
</g>
<g >
</g>
<g >
</g>
<g >
</g>
<g >
</g>
<g >
</g>
<g >
</g>
<g >
</g>
<g >
</g>
<g >
</g>
<g >
</g>
<g >
</g>
<g >
</g>
<g >
</g>
<g >
</g>
<g >
</g>
<g >
</g>
<g >
</g>
<g >
</g>
<g >
</g>
<g >
</g>
<g >
</g>
<g >
</g>
<g >
</g>
<g >
</g>
<g >
</g>
<g >
</g>
</g>
<g style="fill:#000000; fill-opacity:0.0; 
stroke:#000000; stroke-width:200000.000000; stroke-opacity:1; 
stroke-linecap:round; stroke-linejoin:round;">
</g>
<g style="fill:#C2C200; fill-opacity:0.0; 
stroke:#C2C200; stroke-width:200000.000000; stroke-opacity:1; 
stroke-linecap:round; stroke-linejoin:round;">
</g>
<g style="fill:#C2C200; fill-opacity:0.0; 
stroke:#C2C200; stroke-width:100000.000000; stroke-opacity:1; 
stroke-linecap:round; stroke-linejoin:round;">
<path d="M3114434 1542250
L130908184 1542250
" />
<path d="M130908184 65439125
L3114434 65439125
" />
<path d="M733184 3923500
L733184 63057875
" />
<path d="M133289434.000000 3923500.000000 A2381250.000000 2381250.000000 0.0 0 0 130908184.000000 1542250.000000" />
<path d="M133289434 3923500
L133289434 63057875
" />
<path d="M130908184.000000 65439125.000000 A2381250.000000 2381250.000000 0.0 0 0 133289434.000000 63057875.000000" />
<path d="M733184.000000 63057875.000000 A2381250.000000 2381250.000000 0.0 0 0 3114434.000000 65439125.000000" />
<path d="M3114434.000000 1542250.000000 A2381250.000000 2381250.000000 0.0 0 0 733184.000000 3923500.000000" />
</g>
<g style="fill:#C2C200; fill-opacity:0.0; 
stroke:#C2C200; stroke-width:50000.000000; stroke-opacity:1; 
stroke-linecap:round; stroke-linejoin:round;">
<path d="M57208184 52517250
L57208184 51467250
" />
<path d="M48758184 58417250
L52908184 58417250
" />
<path d="M56508184 61509250
L56508184 58417250
" />
<path d="M48758184 52517250
L48758184 58417250
" />
<path d="M60608184 52517250
L57208184 52517250
" />
<path d="M57208184 51467250
L52658184 51467250
" />
<path d="M52658184 51467250
L52658184 52517250
" />
<path d="M52908184 61509250
L56508184 61509250
" />
<path d="M60608184 58417250
L60608184 52517250
" />
<path d="M52658184 52517250
L48758184 52517250
" />
<path d="M52908184 58417250
L52908184 61509250
" />
<path d="M56508184 58417250
L60608184 58417250
" />
<path d="M16158184 58417250
L16158184 52517250
" />
<path d="M8458184 58417250
L8458184 61509250
" />
<path d="M12758184 51467250
L8208184 51467250
" />
<path d="M12058184 61509250
L12058184 58417250
" />
<path d="M16158184 52517250
L12758184 52517250
" />
<path d="M12058184 58417250
L16158184 58417250
" />
<path d="M4308184 52517250
L4308184 58417250
" />
<path d="M8208184 52517250
L4308184 52517250
" />
<path d="M8208184 51467250
L8208184 52517250
" />
<path d="M4308184 58417250
L8458184 58417250
" />
<path d="M8458184 61509250
L12058184 61509250
" />
<path d="M12758184 52517250
L12758184 51467250
" />
<path d="M30683184 39284250
L34283184 39284250
" />
<path d="M38383184 30292250
L34983184 30292250
" />
<path d="M34983184 30292250
L34983184 29242250
" />
<path d="M34283184 36192250
L38383184 36192250
" />
<path d="M26533184 36192250
L30683184 36192250
" />
<path d="M38383184 36192250
L38383184 30292250
" />
<path d="M30433184 29242250
L30433184 30292250
" />
<path d="M30683184 36192250
L30683184 39284250
" />
<path d="M30433184 30292250
L26533184 30292250
" />
<path d="M26533184 30292250
L26533184 36192250
" />
<path d="M34283184 39284250
L34283184 36192250
" />
<path d="M34983184 29242250
L30433184 29242250
" />
<path d="M97108184 51467250
L97108184 52517250
" />
<path d="M97358184 58417250
L97358184 61509250
" />
<path d="M97108184 52517250
L93208184 52517250
" />
<path d="M105058184 58417250
L105058184 52517250
" />
<path d="M100958184 58417250
L105058184 58417250
" />
<path d="M93208184 52517250
L93208184 58417250
" />
<path d="M93208184 58417250
L97358184 58417250
" />
<path d="M101658184 52517250
L101658184 51467250
" />
<path d="M105058184 52517250
L101658184 52517250
" />
<path d="M100958184 61509250
L100958184 58417250
" />
<path d="M97358184 61509250
L100958184 61509250
" />
<path d="M101658184 51467250
L97108184 51467250
" />
<path d="M105058184 13967250
L105058184 8067250
" />
<path d="M97108184 8067250
L93208184 8067250
" />
<path d="M93208184 8067250
L93208184 13967250
" />
<path d="M97108184 7017250
L97108184 8067250
" />
<path d="M97358184 13967250
L97358184 17059250
" />
<path d="M101658184 8067250
L101658184 7017250
" />
<path d="M101658184 7017250
L97108184 7017250
" />
<path d="M105058184 8067250
L101658184 8067250
" />
<path d="M100958184 17059250
L100958184 13967250
" />
<path d="M97358184 17059250
L100958184 17059250
" />
<path d="M100958184 13967250
L105058184 13967250
" />
<path d="M93208184 13967250
L97358184 13967250
" />
<path d="M97108184 29242250
L97108184 30292250
" />
<path d="M101658184 30292250
L101658184 29242250
" />
<path d="M105058184 30292250
L101658184 30292250
" />
<path d="M93208184 36192250
L97358184 36192250
" />
<path d="M100958184 36192250
L105058184 36192250
" />
<path d="M100958184 39284250
L100958184 36192250
" />
<path d="M97358184 36192250
L97358184 39284250
" />
<path d="M97358184 39284250
L100958184 39284250
" />
<path d="M97108184 30292250
L93208184 30292250
" />
<path d="M93208184 30292250
L93208184 36192250
" />
<path d="M105058184 36192250
L105058184 30292250
" />
<path d="M101658184 29242250
L97108184 29242250
" />
<path d="M30683184 61509250
L34283184 61509250
" />
<path d="M38383184 52517250
L34983184 52517250
" />
<path d="M26533184 58417250
L30683184 58417250
" />
<path d="M34983184 52517250
L34983184 51467250
" />
<path d="M38383184 58417250
L38383184 52517250
" />
<path d="M30433184 52517250
L26533184 52517250
" />
<path d="M34283184 61509250
L34283184 58417250
" />
<path d="M34283184 58417250
L38383184 58417250
" />
<path d="M30683184 58417250
L30683184 61509250
" />
<path d="M34983184 51467250
L30433184 51467250
" />
<path d="M30433184 51467250
L30433184 52517250
" />
<path d="M26533184 52517250
L26533184 58417250
" />
<path d="M115433184 58417250
L119583184 58417250
" />
<path d="M123883184 52517250
L123883184 51467250
" />
<path d="M123183184 58417250
L127283184 58417250
" />
<path d="M123183184 61509250
L123183184 58417250
" />
<path d="M123883184 51467250
L119333184 51467250
" />
<path d="M119333184 52517250
L115433184 52517250
" />
<path d="M115433184 52517250
L115433184 58417250
" />
<path d="M127283184 52517250
L123883184 52517250
" />
<path d="M119583184 61509250
L123183184 61509250
" />
<path d="M127283184 58417250
L127283184 52517250
" />
<path d="M119583184 58417250
L119583184 61509250
" />
<path d="M119333184 51467250
L119333184 52517250
" />
<path d="M82833184 30292250
L79433184 30292250
" />
<path d="M74883184 29242250
L74883184 30292250
" />
<path d="M78733184 39284250
L78733184 36192250
" />
<path d="M79433184 29242250
L74883184 29242250
" />
<path d="M75133184 36192250
L75133184 39284250
" />
<path d="M74883184 30292250
L70983184 30292250
" />
<path d="M75133184 39284250
L78733184 39284250
" />
<path d="M78733184 36192250
L82833184 36192250
" />
<path d="M70983184 36192250
L75133184 36192250
" />
<path d="M79433184 30292250
L79433184 29242250
" />
<path d="M70983184 30292250
L70983184 36192250
" />
<path d="M82833184 36192250
L82833184 30292250
" />
<path d="M75133184 61509250
L78733184 61509250
" />
<path d="M78733184 61509250
L78733184 58417250
" />
<path d="M82833184 52517250
L79433184 52517250
" />
<path d="M82833184 58417250
L82833184 52517250
" />
<path d="M74883184 51467250
L74883184 52517250
" />
<path d="M70983184 52517250
L70983184 58417250
" />
<path d="M78733184 58417250
L82833184 58417250
" />
<path d="M74883184 52517250
L70983184 52517250
" />
<path d="M75133184 58417250
L75133184 61509250
" />
<path d="M79433184 52517250
L79433184 51467250
" />
<path d="M70983184 58417250
L75133184 58417250
" />
<path d="M79433184 51467250
L74883184 51467250
" />
<path d="M4308184 36192250
L8458184 36192250
" />
<path d="M12758184 30292250
L12758184 29242250
" />
<path d="M16158184 30292250
L12758184 30292250
" />
<path d="M16158184 36192250
L16158184 30292250
" />
<path d="M8208184 29242250
L8208184 30292250
" />
<path d="M4308184 30292250
L4308184 36192250
" />
<path d="M12058184 39284250
L12058184 36192250
" />
<path d="M12058184 36192250
L16158184 36192250
" />
<path d="M8208184 30292250
L4308184 30292250
" />
<path d="M12758184 29242250
L8208184 29242250
" />
<path d="M8458184 39284250
L12058184 39284250
" />
<path d="M8458184 36192250
L8458184 39284250
" />
<path d="M12758184 8067250
L12758184 7017250
" />
<path d="M4308184 13967250
L8458184 13967250
" />
<path d="M4308184 8067250
L4308184 13967250
" />
<path d="M12058184 17059250
L12058184 13967250
" />
<path d="M16158184 8067250
L12758184 8067250
" />
<path d="M8458184 17059250
L12058184 17059250
" />
<path d="M12758184 7017250
L8208184 7017250
" />
<path d="M8208184 7017250
L8208184 8067250
" />
<path d="M8458184 13967250
L8458184 17059250
" />
<path d="M16158184 13967250
L16158184 8067250
" />
<path d="M8208184 8067250
L4308184 8067250
" />
<path d="M12058184 13967250
L16158184 13967250
" />
<path d="M38383184 13967250
L38383184 8067250
" />
<path d="M30433184 8067250
L26533184 8067250
" />
<path d="M30433184 7017250
L30433184 8067250
" />
<path d="M34283184 13967250
L38383184 13967250
" />
<path d="M34983184 8067250
L34983184 7017250
" />
<path d="M30683184 13967250
L30683184 17059250
" />
<path d="M34983184 7017250
L30433184 7017250
" />
<path d="M34283184 17059250
L34283184 13967250
" />
<path d="M26533184 8067250
L26533184 13967250
" />
<path d="M26533184 13967250
L30683184 13967250
" />
<path d="M30683184 17059250
L34283184 17059250
" />
<path d="M38383184 8067250
L34983184 8067250
" />
<path d="M78733184 17059250
L78733184 13967250
" />
<path d="M79433184 7017250
L74883184 7017250
" />
<path d="M74883184 8067250
L70983184 8067250
" />
<path d="M78733184 13967250
L82833184 13967250
" />
<path d="M74883184 7017250
L74883184 8067250
" />
<path d="M75133184 13967250
L75133184 17059250
" />
<path d="M82833184 13967250
L82833184 8067250
" />
<path d="M70983184 13967250
L75133184 13967250
" />
<path d="M79433184 8067250
L79433184 7017250
" />
<path d="M70983184 8067250
L70983184 13967250
" />
<path d="M82833184 8067250
L79433184 8067250
" />
<path d="M75133184 17059250
L78733184 17059250
" />
<path d="M52908184 39284250
L56508184 39284250
" />
<path d="M52658184 30292250
L48758184 30292250
" />
<path d="M60608184 30292250
L57208184 30292250
" />
<path d="M57208184 30292250
L57208184 29242250
" />
<path d="M60608184 36192250
L60608184 30292250
" />
<path d="M52908184 36192250
L52908184 39284250
" />
<path d="M56508184 36192250
L60608184 36192250
" />
<path d="M52658184 29242250
L52658184 30292250
" />
<path d="M56508184 39284250
L56508184 36192250
" />
<path d="M57208184 29242250
L52658184 29242250
" />
<path d="M48758184 30292250
L48758184 36192250
" />
<path d="M48758184 36192250
L52908184 36192250
" />
<path d="M52908184 17059250
L56508184 17059250
" />
<path d="M60608184 8067250
L57208184 8067250
" />
<path d="M52658184 7017250
L52658184 8067250
" />
<path d="M57208184 8067250
L57208184 7017250
" />
<path d="M57208184 7017250
L52658184 7017250
" />
<path d="M56508184 17059250
L56508184 13967250
" />
<path d="M60608184 13967250
L60608184 8067250
" />
<path d="M52658184 8067250
L48758184 8067250
" />
<path d="M56508184 13967250
L60608184 13967250
" />
<path d="M48758184 13967250
L52908184 13967250
" />
<path d="M52908184 13967250
L52908184 17059250
" />
<path d="M48758184 8067250
L48758184 13967250
" />
<g >
</g>
<g >
</g>
<g >
</g>
<g >
</g>
<g >
</g>
<g >
</g>
<g >
</g>
<g >
</g>
<g >
</g>
<g >
</g>
<g >
</g>
<g >
</g>
<g >
</g>
<g >
</g>
<g >
</g>
<g >
</g>
<g >
</g>
<g >
</g>
<g >
</g>
<g >
</g>
<g >
</g>
<g >
</g>
<g >
</g>
<g >
</g>
<g >
</g>
<g >
</g>
<g >
</g>
<g >
</g>
<g >
</g>
<g >
</g>
<g >
</g>
<g >
</g>
<g >
</g>
<g >
</g>
<g >
</g>
<g >
</g>
<g >
</g>
<g >
</g>
<g >
</g>
<g >
</g>
<g >
</g>
<g >
</g>
<g >
</g>
<g >
</g>
<g >
</g>
</g> 
</svg>
