M48
; DRILL file {KiCad (6.0.1-0)} date Tuesday, March 21, 2023 at 08:23:50 AM
; FORMAT={-:-/ absolute / metric / decimal}
; #@! TF.CreationDate,2023-03-21T08:23:50-07:00
; #@! TF.GenerationSoftware,Kicad,Pcbnew,(6.0.1-0)
; #@! TF.FileFunction,Plated,1,2,PTH
FMAT,2
METRIC
; #@! TA.AperFunction,Plated,PTH,ViaDrill
T1C0.400
; #@! TA.AperFunction,Plated,PTH,ComponentDrill
T2C1.000
; #@! TA.AperFunction,Plated,PTH,ComponentDrill
T3C1.092
%
G90
G05
T1
X78.212Y-91.918
X78.212Y-114.143
X83.712Y-68.293
X83.741Y-90.487
X88.763Y-60.594
X88.763Y-82.819
X88.763Y-105.044
X100.438Y-69.693
X100.438Y-91.918
X105.938Y-69.693
X105.938Y-90.518
X105.938Y-91.918
X105.938Y-112.743
X105.938Y-114.143
X105.966Y-73.025
X105.966Y-95.25
X105.966Y-117.475
X110.331Y-57.944
X110.987Y-60.594
X110.987Y-82.819
X110.987Y-105.044
X122.237Y-62.309
X122.662Y-91.918
X122.662Y-114.143
X128.162Y-68.293
X128.162Y-69.693
X128.162Y-90.518
X128.162Y-91.918
X128.162Y-114.143
X128.191Y-73.025
X128.191Y-95.25
X128.191Y-117.475
X133.213Y-60.594
X133.213Y-82.819
X133.213Y-82.819
X133.213Y-105.044
X133.35Y-115.887
X144.463Y-61.912
X144.887Y-69.693
X144.887Y-91.918
X150.387Y-69.693
X150.387Y-90.518
X150.387Y-91.918
X150.387Y-112.743
X150.387Y-114.143
X150.416Y-73.025
X150.416Y-95.25
X150.416Y-117.475
X155.438Y-60.594
X155.438Y-82.819
X155.438Y-105.044
X158.75Y-75.734
X167.062Y-58.394
X167.112Y-91.918
X167.112Y-114.143
X172.612Y-68.293
X172.612Y-69.693
X172.612Y-90.518
X172.612Y-91.918
X172.612Y-114.143
X172.641Y-73.025
X172.641Y-95.25
X175.022Y-101.6
X177.662Y-60.594
X177.662Y-82.819
X177.662Y-105.044
X179.387Y-73.025
X179.387Y-95.25
X180.179Y-76.009
X180.181Y-75.009
X180.181Y-88.503
X181.719Y-99.963
X182.166Y-91.281
X188.516Y-105.966
X192.484Y-80.962
T2
X90.487Y-63.569
X90.487Y-71.369
X90.487Y-85.862
X90.487Y-93.662
X90.487Y-108.087
X90.487Y-115.887
X93.662Y-63.569
X93.662Y-71.369
X93.662Y-85.862
X93.662Y-93.662
X93.662Y-108.087
X93.662Y-115.887
X114.3Y-63.637
X114.3Y-71.438
X114.3Y-85.862
X114.3Y-93.662
X114.3Y-108.087
X114.3Y-115.887
X136.525Y-63.637
X136.525Y-71.438
X136.525Y-85.862
X136.525Y-93.662
X136.525Y-102.275
X136.525Y-110.075
X158.75Y-63.637
X158.75Y-71.438
X158.75Y-85.862
X158.75Y-93.662
X158.75Y-108.087
X158.75Y-115.887
X180.975Y-108.087
X180.975Y-115.887
X189.137Y-93.161
X189.587Y-101.744
X189.587Y-116.244
X191.677Y-93.161
X192.087Y-116.244
X194.218Y-93.161
X194.587Y-101.744
X194.587Y-116.244
X196.757Y-93.161
T3
X184.468Y-58.66
X184.468Y-61.2
X184.468Y-63.74
X184.468Y-66.281
X184.468Y-68.82
X184.468Y-71.361
X184.468Y-73.9
X184.468Y-76.441
X184.468Y-78.98
X184.468Y-81.52
X184.468Y-84.06
X184.468Y-86.6
X199.707Y-58.66
X199.707Y-61.2
X199.707Y-63.74
X199.707Y-66.281
X199.707Y-68.82
X199.707Y-71.361
X199.707Y-73.9
X199.707Y-76.441
X199.707Y-78.98
X199.707Y-81.52
X199.707Y-84.06
X199.707Y-86.6
T0
M30
