G04 #@! TF.GenerationSoftware,KiCad,Pcbnew,(6.0.1-0)*
G04 #@! TF.CreationDate,2023-03-21T08:23:48-07:00*
G04 #@! TF.ProjectId,pcb,7063622e-6b69-4636-9164-5f7063625858,rev?*
G04 #@! TF.SameCoordinates,Original*
G04 #@! TF.FileFunction,Soldermask,Top*
G04 #@! TF.FilePolarity,Negative*
%FSLAX46Y46*%
G04 Gerber Fmt 4.6, Leading zero omitted, Abs format (unit mm)*
G04 Created by KiCad (PCBNEW (6.0.1-0)) date 2023-03-21 08:23:48*
%MOMM*%
%LPD*%
G01*
G04 APERTURE LIST*
%ADD10C,1.800000*%
%ADD11C,1.000000*%
%ADD12C,3.000000*%
%ADD13C,3.400000*%
%ADD14R,1.600000X1.600000*%
%ADD15C,1.600000*%
%ADD16C,2.200000*%
%ADD17O,2.000000X3.200000*%
%ADD18R,2.000000X2.000000*%
%ADD19C,2.000000*%
%ADD20R,1.700000X1.700000*%
%ADD21O,1.700000X1.700000*%
%ADD22R,1.752600X1.752600*%
%ADD23C,1.752600*%
G04 APERTURE END LIST*
D10*
X142137500Y-86518750D03*
X153137500Y-86518750D03*
D11*
X142417500Y-90718750D03*
D12*
X152637500Y-82818750D03*
X147637500Y-80618750D03*
D11*
X152857500Y-90718750D03*
D13*
X147637500Y-86518750D03*
D10*
X142137500Y-108743750D03*
X153137500Y-108743750D03*
D11*
X142417500Y-112943750D03*
D12*
X152637500Y-105043750D03*
X147637500Y-102843750D03*
D11*
X152857500Y-112943750D03*
D13*
X147637500Y-108743750D03*
D10*
X75462500Y-86518750D03*
X86462500Y-86518750D03*
D11*
X75742500Y-90718750D03*
D12*
X85962500Y-82818750D03*
X80962500Y-80618750D03*
D11*
X86182500Y-90718750D03*
D13*
X80962500Y-86518750D03*
D10*
X97687500Y-108743750D03*
X108687500Y-108743750D03*
D11*
X97967500Y-112943750D03*
D12*
X108187500Y-105043750D03*
X103187500Y-102843750D03*
D11*
X108407500Y-112943750D03*
D13*
X103187500Y-108743750D03*
D10*
X75462500Y-64293750D03*
X86462500Y-64293750D03*
D11*
X75742500Y-68493750D03*
D12*
X85962500Y-60593750D03*
X80962500Y-58393750D03*
D11*
X86182500Y-68493750D03*
D13*
X80962500Y-64293750D03*
D10*
X75462500Y-108743750D03*
X86462500Y-108743750D03*
D11*
X75742500Y-112943750D03*
D12*
X85962500Y-105043750D03*
X80962500Y-102843750D03*
D11*
X86182500Y-112943750D03*
D13*
X80962500Y-108743750D03*
D10*
X119912500Y-64293750D03*
X130912500Y-64293750D03*
D11*
X120192500Y-68493750D03*
D12*
X130412500Y-60593750D03*
X125412500Y-58393750D03*
D11*
X130632500Y-68493750D03*
D13*
X125412500Y-64293750D03*
D10*
X164362500Y-64293750D03*
X175362500Y-64293750D03*
D11*
X164642500Y-68493750D03*
D12*
X174862500Y-60593750D03*
X169862500Y-58393750D03*
D11*
X175082500Y-68493750D03*
D13*
X169862500Y-64293750D03*
D10*
X119912500Y-108743750D03*
X130912500Y-108743750D03*
D11*
X120192500Y-112943750D03*
D12*
X130412500Y-105043750D03*
X125412500Y-102843750D03*
D11*
X130632500Y-112943750D03*
D13*
X125412500Y-108743750D03*
D10*
X164362500Y-108743750D03*
X175362500Y-108743750D03*
D11*
X164642500Y-112943750D03*
D12*
X174862500Y-105043750D03*
X169862500Y-102843750D03*
D11*
X175082500Y-112943750D03*
D13*
X169862500Y-108743750D03*
D10*
X97687500Y-86518750D03*
X108687500Y-86518750D03*
D11*
X97967500Y-90718750D03*
D12*
X108187500Y-82818750D03*
X103187500Y-80618750D03*
D11*
X108407500Y-90718750D03*
D13*
X103187500Y-86518750D03*
D10*
X142137500Y-64293750D03*
X153137500Y-64293750D03*
D11*
X142417500Y-68493750D03*
D12*
X152637500Y-60593750D03*
X147637500Y-58393750D03*
D11*
X152857500Y-68493750D03*
D13*
X147637500Y-64293750D03*
D10*
X186587500Y-108743750D03*
X197587500Y-108743750D03*
D11*
X186867500Y-112943750D03*
D12*
X197087500Y-105043750D03*
X192087500Y-102843750D03*
D11*
X197307500Y-112943750D03*
D13*
X192087500Y-108743750D03*
D10*
X97687500Y-64293750D03*
X108687500Y-64293750D03*
D11*
X97967500Y-68493750D03*
D12*
X108187500Y-60593750D03*
X103187500Y-58393750D03*
D11*
X108407500Y-68493750D03*
D13*
X103187500Y-64293750D03*
D10*
X119912500Y-86518750D03*
X130912500Y-86518750D03*
D11*
X120192500Y-90718750D03*
D12*
X130412500Y-82818750D03*
X125412500Y-80618750D03*
D11*
X130632500Y-90718750D03*
D13*
X125412500Y-86518750D03*
D10*
X164362500Y-86518750D03*
X175362500Y-86518750D03*
D11*
X164642500Y-90718750D03*
D12*
X174862500Y-82818750D03*
X169862500Y-80618750D03*
D11*
X175082500Y-90718750D03*
D13*
X169862500Y-86518750D03*
D14*
X158750000Y-71437500D03*
D15*
X158750000Y-63637500D03*
D14*
X93662500Y-71368750D03*
D15*
X93662500Y-63568750D03*
D14*
X93662500Y-115887500D03*
D15*
X93662500Y-108087500D03*
D16*
X75803125Y-97631250D03*
X177403125Y-75406250D03*
D14*
X114300000Y-115887500D03*
D15*
X114300000Y-108087500D03*
D14*
X114300000Y-71437500D03*
D15*
X114300000Y-63637500D03*
D14*
X114300000Y-93662500D03*
D15*
X114300000Y-85862500D03*
D17*
X186487500Y-108743750D03*
X197687500Y-108743750D03*
D18*
X189587500Y-116243750D03*
D19*
X194587500Y-116243750D03*
X192087500Y-116243750D03*
X194587500Y-101743750D03*
X189587500Y-101743750D03*
D14*
X136525000Y-71437500D03*
D15*
X136525000Y-63637500D03*
D14*
X93662500Y-93662500D03*
D15*
X93662500Y-85862500D03*
D20*
X196757500Y-93160750D03*
D21*
X194217500Y-93160750D03*
X191677500Y-93160750D03*
X189137500Y-93160750D03*
D16*
X199628125Y-96837500D03*
D14*
X136525000Y-110075000D03*
D15*
X136525000Y-102275000D03*
D16*
X136525000Y-113506250D03*
D14*
X158750000Y-115887500D03*
D15*
X158750000Y-108087500D03*
D14*
X90487500Y-93662500D03*
D15*
X90487500Y-85862500D03*
D16*
X136525000Y-59928125D03*
X75803125Y-75406250D03*
D14*
X158750000Y-93662500D03*
D15*
X158750000Y-85862500D03*
D14*
X90487500Y-115887500D03*
D15*
X90487500Y-108087500D03*
D14*
X180975000Y-115887500D03*
D15*
X180975000Y-108087500D03*
D14*
X90487500Y-71368750D03*
D15*
X90487500Y-63568750D03*
D14*
X136525000Y-93662500D03*
D15*
X136525000Y-85862500D03*
D22*
X199707500Y-58660500D03*
D23*
X199707500Y-61200500D03*
X199707500Y-63740500D03*
X199707500Y-66280500D03*
X199707500Y-68820500D03*
X199707500Y-71360500D03*
X199707500Y-73900500D03*
X199707500Y-76440500D03*
X199707500Y-78980500D03*
X199707500Y-81520500D03*
X199707500Y-84060500D03*
X199707500Y-86600500D03*
X184467500Y-86600500D03*
X184467500Y-84060500D03*
X184467500Y-81520500D03*
X184467500Y-78980500D03*
X184467500Y-76440500D03*
X184467500Y-73900500D03*
X184467500Y-71360500D03*
X184467500Y-68820500D03*
X184467500Y-66280500D03*
X184467500Y-63740500D03*
X184467500Y-61200500D03*
X184467500Y-58660500D03*
M02*
